<?xml version="1.0" encoding="UTF-8" standalone="no"?>
<svg xmlns="http://www.w3.org/2000/svg" height="585" width="1260" version="1.1" xmlns:xlink="http://www.w3.org/1999/xlink" viewBox="-44643 -21466 74862 32467">
<defs>
<g id="state_outline">
<path d="m8310-19935l30 7 32 3 20 5 93 20 51 6 41-10 31-10 21-15 24-15 26-10h20l31 15 16 16 11 10 13 14 23 23 26 21 60 33 84 35 61 22 18 6 96 25 114 22 103 16 91-6 28-11 23-10 36-16 8-3 30-8 34-9 46 19 26 25 16 35 5 19-5 31 6 30 11 46 18 31 24 33 20 29 12 20 15 23 5 8 20 24 31 41 7 9 10 16 8 12 8 13 8 10 19 16 21 12 5 2 36 6h6l9 1 20 2 15 4 26 10 21 9 51 26 41 16 26 10 40 15 21 7 10 3 31 11 41 25 43 30 15 15 31 35 42 40 20 16 16 13 27 19 30 20 37 36 3 40v35l-12 21-15 24-26 26-45 41-12 17-14 19-10 20-6 42-1 36v30l-4 31-2 7-20 30-26 21-35 20-42 21-26 12-16 7-29 13-27 12-44 19-30 25-21 15-5 5-15 26-10 14-10 21-15 56-18 76-15 63-15 61-15 52 1 45 2 27 5 27 15 40 16 32 4 9 21 30 62 45 13 7 22 9 21 8 19 8 22 5 17 7 14 4 19 9 32 12 7 4 16 8 22 12 29 35 57 80 41 57 30 56 15 27 4 9 21 55 16 30 37 45 15 15 13 11 36 10 51 1h52l79 11 100 11 60 8 20 2 120 27 97 15 118 6 123 6 70 1h22l67 6 23 3 18 2 36 6 4 2 57 18 77 31 43 14 14 5 52 23 16 8 23 16 46 38 9 7 46 41 36 29 37 29 4 4 31 21 26 5 35 9 33 10 41 15 25 10 12 6 22 16 23 23 21 30 7 38-1 25-4 30-15 28-10 35-4 10-3 18-6 10-8 56-3 47 10 53 31 55 40 31 50 44 65 34 12 7 18 3 29 4h36l41 5 35 11 21 9 36 20 52 20 25 4 16 3h21l24 1h128l68 3h20l41 3 4 1 53 30 14 11 15 15 37 41 4 4 29 38 14 26 7 17 9 21 2 6 16 30 13 19 13 16 12 14 19 21 21 29 5 6 21 24 31 46 58 79 56 41 39 48 24 32 6 9 31 35 35 25 36 16 41 10 32 12 45 29 41 31 20 25 25 35 21 16 30 40 36 36 51 40 25 31 30 45 5 15 15 41 10 30 15 40 16 31 10 30 4 40-5 25v20l-11 36-5 10-10 15-21 9-15 5-11 5-10 10-5 20 5 36 14 55 10 51 15 100 4 86-6 105-6 106v25l-7 166v46l-1 60 9 146 5 106 4 125-16 76-21 60-26 35-36 30-26 20-36 10-36-6-41-5-36-5h-20l-31 4-26 10-26 20-62 40-118 19-56-20-61-51-46-31-26 35 10 41 15 40 35 35v46l-16 25-20 35-6 45-10 10-26 40-5 10h-21l-36 25-57 20-56-16-66-66 6-70-5-46-20-40-31-20-46-1 40 61-26 85-113 25 5 25 51 15 36 26 40 55 46 21 41 45 25 41 5 45 66 26 36 25 36 31v15l20 45 10 31 10 35-6 25-10 15h-36l-51-6-41 5-26 5-20-10-16-6-15-25-5-15h-36l-25 10-26 25-16 75 4 55-25 10-98 40-98 34-67 15-30-31-5-50-25-31-31-45-25-30-10-36 36-40 16-25 36-4 36 5 25-10 1-50 36-15v-40l-20-36-26-15-77-1-56 5-72 19-51-40-67-16v20l15 31 36 30 31 31 4 35-5 60-36 35h-47l-41 4-52 60-31 55 56 102-27 90-20 15-26-10-36-16-15 45 35 46 31 15 15 5 20 41v70l-68 85h-36l-71-21-26-5-21 25 77 56 10 5 10 10 5 56 30 80 20 56-26 45-31 25-62 60-36 45-11 40-5 15-52-5-40-41-46-36-76-66-41-45-26-5v40l30 65 10 26 10 35 51 31 25 35 26 46 55 75 10 41-5 15-41 70-42 80-31 50-37 60-31 50-21 40-16 51-16 45-5 30-10 20-6 50-11 61-16 70v75l-1 51-6 90-1 91 5 70 15 76 20 70 35 106-6 25-5 41-26 20-46-66-56-41-30-61-10-25-30-35-10-56-82-15-5-66-20-5-31-30-40-36-57-31-71-35-16 9 10 41 15 30 26 36 56 10 31 10v31l20 50-6 50 36 51 15 25 10 30 36 1 35 35 25 71 158 102h47l14 61 87 71 25 30 26 20 20 26 25 35 21 25 25 51 15 40-16 30-31 15h-46l-30-86h-20l-16 50-26 40-77 15-72 9-66-61-31-10-31 15-62 50-61-11-51-20-47 14-5 30 20 21 31 20h31l40 26 52 5 72-34 30 20 62 51h30l36 5 119-39 117 6 113 6 41 51 36 20 56 21 107 10 119-9 87-24 57-30 67-30 56-19 67-15 62-4 87-5 82-14 52-20 41-30 46-45 42-50 26-50 36-45 47-25 41-14 67-10 92-4 97 1h113l31-4 47-25 30-20 62-50 16-25 16-35 21-50 41-70 47-55 31-20 46-15 52 6 35 20 46 46 71 81 56 55 30 36 16 30-1 40-10 31-1 40v40l5 45-1 56v60l-1 61v30l5 50-6 50-21 40-36 40-16 36-25-26-36 15-26 20-36 5-61-36-77-26-31 20-15 25-47 5v40l-6 60-31 71 15 15 52-40 21-70 26-10 76 56 67 15 51-24 31 5 36 30 5 21 20 30 40 40 21 16 51 40 61 76 50 86 51 31 62 10 41 11 40 30 41 31 41 40 56 91 25 71 9 65 5 61-11 50-26 55-25-70-40-142-41 15v45l14 96 25 71 36 76 25 45-27 75-10-5-56-56-36-5-30 10-21 35-36 30-67 4-41 15 5 25 35 6 41 10 26 20 57-24 10-36 26 6 25 15 15 30 21-5 92-4 52-45 51-9 11 10 71 41 51 10 67 11 61 20 21 10 10 26 10 40-16 40-21 20-11 40-15 60 15 16h46l41-40 21-60 27-70 61 45 56 51 71 66 41 36 46 20 41 6 36-5 30 5 31 15 26 16 56 15 92 36 77 1 67-20 62-19 77-25 82-9 97-5 134 11-26 40-6 41v60l51-5 25 16 21 25-11 30 15 20 62 36 15 35 10 36 15 55 71 6 103-5 25 31 31 50 4 51 36 60-16 61-82 4-82 9h-67l-41 30 5 30 46 10 71 6 41 36-26 95 4 50 5 46 30 50 62 16 61 10 41 26 41 30 56 21 46-20-25-25-36-31-107-66-71-71-20-96 16-50 103-34 57-55 16-71-9-105-31-41-45-55-26-46 11-60h36l76 81 41 26 56 35 52-20v-35l-31-20-56-11-36-10-10-45-10-36h-25l-31-20 21-30 10-30 21-30 1-41 5-30h26l82 6 50 66 159 82 71 116 61 36 61 50 29 131 31 11 11-45-4-187-45-60-10-31v-70l26-15 15 10 36 6 98 10 41 16h46l5 20-16 30 10 26 10 30 25 50 31 31 15 60 15 26v30l-124 79-11 35 82-19 36 25 61 51 72 41 61 21 56 40 77 46 97 41 92 56 86 51 26 20 5 31-1 45 25 71 26 45 30 41 46 55 10 26-11 40-71-46-52 15-21 60-50-131-15-61-20-45-46-26-16 35-5 71-11 50-52 20-25 15 51 30 56 36 30 30-5 25-36 35-31 35-15 50 30 21 56-15 26-20 20 10 10 56-36 60-57 30-51 14-52 25-36 40-26 40 35 26 67-30 73-45 51-45 21 26-11 40 5 30 30 46 26 40 45 26 16-31-5-30-4-50-16-30 6-46 31-4 57-40-72-36-10-40-20-51 16-30 36 15 45 21 98-45 11 11 35 20 51 20 92 31 98 21 51 6 31 15 20 20 20 26 26 35 10 45 4 31-26 35-46 4-51-55-56 24-62 25-67 65-62-6-15 25 61 26-6 45-72 15 20 55 62 11 46-35 16-45 21-10 62-40 82-19 10 50 9 66 46 30-36 45-67-11-31 96-11 30-31 20-25 10 20 40 25 41 5 15-11 70 5 55 41 6 36-80 1-71-4-65 15-35 52-25 93-55 36-55-5-45-71-66-15-41 82 6 62-20 51 1 20 35 5 30-11 56-26 40-31 25 16 20 30-10 36-25 41 16-10-36 11-35 61 31 20 40 31 41 30 25 52 26 51 15 56 16 72 15 20 21v30l-11 10-15 15-46 20-31 14-6 31 10 30 26 10 41-10 41-9 15 25-5 25-6 50-11 76 26 30h36l31-35 31-65 1-50-16-36-15-25-20-40 1-50 10-66 36 10 118 32 61 25-31 30-16 50 5 36 31 15 31-25 26-50 21-25 102 51 46 26-11 50 31-10 31-15 20 10 113 67 122 71 107 61 92 41 61 31 67 46 15 10 10 25 15 25-5 20-5 25-6 15-35-10-77-51-66-15 25 35 36 20 15 16 25 15-20 35-31-5-15-36-26-10-20 10-52-10-10-21-20-35h-15l-47 25-4-61 10-30-20-25-66-31-72-20-67-1-41 15 36 25 76 36 15 30-10 30-11 31 31 20 61 10 31 26 41 30 5 36-26 45 15 35 40 20 36-9 21-45 21-35h26l15 25 5 35-31 30-26 40-6 35 52 1 61-10 37-35 10-45-9-70 41-35 72-35 20 10 16 36-11 10v65l15 30h30l21-20 1-55-21-25 16-60 61 76-10 30-11 35-6 60-42 131-27 150-1 106-37 151-51-71-36 15-5 30 15 55-21 71-47 34-56 25-57-10 11-56 26-25 46-24 26-35-20-41-15-30 5-40 26-45 1-36-25-45-41-56-41-30-51-11-26 20 15 46 15 20 36 40-26 40 5 36 5 30 15 45-16 76-37 30-25-6-20-50 6-76-10-35-52 5-25 5-5-31v-30l-20-20-31 5-36-11-20-15 5-55 26-45-46-16-15 10-21 30-20-10-31-10-36 20-46 4-16-30-9-50-31-1-31 50-11 21-41-11-51-36-25-60-10-30-41-16-25-15-41-25-52 9-40-40-10-46-108 30-87 19-124-6-66-11-30-40-67-11-16 36-5 45 15 25 128 21 179 27 154 46 66 21 5 65-31 20-57 5-56 4-6 41 31 40h56l57-9 67-40 61-9 46 25 5 25-5 30 10 26h20l37-45 25 20 20 45 20 36 26-15 11-55 6-45 20-31 46 16 31 25 36 36 4 35-25 25-16 25 41 36h41l15 30v10l-16 5-36 5-21 40 5 35 26 26 51 20 57-60 41 26-1 25-5 30v50l-11 86-21 10-31 4-20-35-36-5-67 9-46-5-41-15-41-16-41-30-10 10-26 30-26 50 26 25h41l41-19 36 10 5 25 10 25-1 21 41 5 62-20 51 1 11 20 20 20 30 41 26-15 5-30 16-46 36 6 20 25 41 10 52-14 41 10 5 10 15 46 25 35v30h-41l-46-21-31-20-20 15-16 15-31-10-26 30-5 30 35 60v51l-36 4-15-20-10-30-36-36-31 10-21 45 15 46 41 25 41 26 10 20-21 30v35l25 26 41 35 46 46-21 65-46-10-41-21-41-66-35-30-51-41-30-55-10-46-10-50-10-71-40-35-31 15 9 65 5 46v25l-26 25 5 35 10 30 25 36-5 30-37 25-36 55 15 30 41-10 31-25 21 1 67-10 51 46-16 15-46 9-36 10-16 15v40l46 1 61 35 47 6-6 15-10 30 25 20 21-30 36-15 25 36 10 40 10 46 10 25 25 40 26 46 10 40-37 70-30-35-21-31-5 26v45l4 35-26 40h-25l-31-46-4-70-15-40-21-16-5 46-6 50-20-5-92-16-42 10-25-26v-45l16-65 6-71-10-25h-31l-10 40-6 45-16 61-26 29-15 10-41 20-1 41 26 30 46 15 61 21 61 26 77 25 61 71v40l-31 25-56-40-36-26-51 15-42 5-14-46-36 5-46-20-42-6-5 56 20 20 46 45 41 31 46-5 41 11 46 40 10 41-36-1-41-5-72 15-56-16-31 20 5 15 25 15 72 11 36 10 35 26 26 5 5-5 21-10 30 5 5 10v56l10 15v40l-16 10-36-5h-10l-31-1-36 10-21 40 26 16 41 5 26 10 25-5 41-14h21l46 35 26-14 46-30 36-40h21l-1 40v20l-5 45-6 16-26 60-31 35-46 35-46-1h-36l-10-30 15-20 21-35-5-5-31-16h-36l-20 5-16 15-25 5-26-1-21-5h-56l-21 30v15l15 10 16 10 25 21 5 25v30l-77 45-36-41-51-51-36-25-51-36-45-60-56-21h-47l-56 29-36-10-51-61-46-40-41-11h-30l-41-10-31-26-25-35 82-60 42-35 25 26 46 5 41-25-4-40-26-46-40-20-62 4-36-10 1-35 10-55-15-51-20 5-16 40-10 30-21 20-31 35 10 41-6 35-31 30-26 45-31 35-92-26v-65l11-31-41-10-66-26v-70l83-60 51-35 21-30 6-65-5-20-51-1-16-10 16-45 6-45-41-26-10-35 36-15 77-34 72-30 52-50 57-75 57-45 37-75-16-25-10 10-36 15-20-11-62-30-10 15-6 45-41 85-83 25-77 4-10 15-1 55-31 76-51 19-16-15-5-15-10-20-5-35-15-51-36 15-41-5-25-36-41-35-40-26-21-30 1-111 22-95-67-21-56 15-36-26-25-30-21 10v20l20 40 30 36 16 15-6 35-10 35-32 60 10 36h36l26 10 15 31 25 70 36 26 51-10 51 15 10 41 20 50 30 36 26 35-21 20-15-5-41-15-16 25 20 40 31 20 10 26 41 35 10 51-57 19-31 30v46l-1 70-21 45-41 5-20-31-16-5-10 45v21l-21 20 10 45 10 10 20 10 31 1 31 5v10l-1 25-25 30-21 10-41 35-77-6-62-35-30-51-107-107-50-70 1-106-5-50-5-56 1-45-20-61 10-40-15-55-15-46-20-40-20 15-31-5-46-36-30-35-26-41-20-55-30-56-25-20-26-31-20-30v-40l-10-36-4-50-25-106-41-35-20-56 73-80 46-60-5-25-35-10-42 35h-10l-10 15-21 14-16 56-36 14-30-30-26-10-16 50-56-16-36-30-36-15-15-21-40-40 71-5 88-24-21-20-30 4-52 5-61-5-67-11-25-46-20-25 10-20 26-30 21-25 40-45 12-50-20-46-31-15-46 20-77-1-5-50-31-5-10 20-5 20 5 25 9 50-26 35-15 36-26 60-31-31-35-81-41-30-61-31-41-50-15-56 31-25 36-20 32-40 31-65-10-60-10 10-31 20-62 60-57-6-25 15h25l15 25-36 30-46 55-62 5-61-11-51-40-36-41-36-30-10-20-20-11-26-15-30-10-36 15v-26l-5-55-10-50-30-41-31-5-35-26-15-85 21-35 10-10-15-16-51-25 42-90 46-45 52-15 77-30 36-39 11-61-5-65-20-36-31 20-16 66-16 55-31 45h-31l-76-21-41 15-1 90-37 50-51-15-61-6-20-45-5-76-5-50-15-45-15-36-25-50-30-41-31-40-46-36-61-56-40-30-51-46-57 20-41-11-25-45-20-35-46-26-62 10-36 14h-26l-20-20-5-25-15-46-25-25-31-20-30-26-11-20-4-20v-30l15-20 16-30-5-36-5-30-20-20-10-15v-20l6-41 20-10 26 6 15-20 1-31-16-20-41-15-20-15-41 29-11 15-10 21-5 20-36 4-31-50-5-25-20-36-25-10h-36l-62 4-36-15-20-51-30-45-15-61v-35l6-55-20-20-20-41-15-60v-36l-10-55-30-76-20-75 11-66-25-55-30-86-25-61-10-30-31-35-35-26-16-20-25-25-56-31-15-5-77-16-31-25-36-26-66-5-62-6-61-10-51-26-31-45-10-36-4-30-10-45-10-35-41-11-57 5-46 14-46 15-16 15-5 40-16 35-26 15h-31l-72 10-30-46-41-20-46-26-30-40-20-46v-25l5-20-5-30 1-71 1-65-5-61 6-45-5-55-10-56-46-40-102-46-15 5-11 5-47 100-25 5-51-106-15-36-35-30-52-11-36 35-47 55-15 50-72 35-41-10-16-31-9-50 5-35 11-25-5-20-10-31-26-5-36 40-31 20h-31l-41-1-31-20-20-30-66-6-88 35-51 4-67-20-20-21-92-56-46-40-77-21 31 71 91 96 122 102v60l30 15 31-40 57-24 57-50 57-25 61 51 30 10 41 36 5 50 25 45v46l10 45 35 61 92 31 10-5 52-30 1-96 15-30 21-40 42-30 46-4 30 15-10 55-11 35 15 31 10 55 36 41 71-5 57-25 62-80-4-90 41 15 15 26 10 35 5 40-16 65-16 81-17 110 10 51 20 80 46 31 82 41 25 25 31 41 40 40 67 16 87-15 119-79v-50l-5-36 11-20 26-25 30 11 5 50 10 30 5 46 10 35 10 20 61 36 82 31 153 46 87 26 87 41 26 25 20 46 5 15 9 60 15 46 15 70 36 66 20 50 20 51 15 40-6 40-25 15h-21l-5 20 5 30 4 36 5 15v20l26 20 45 66 5 30-5 10-31-5-21 25v15l5 30-47 70-20 20v10l25 36 30 25 31 46 36 20 25 15 31-9 82-5 46 6 62-5 56 26 5 35-11 30-21 45-31 35-10 30 5 36 20 15 36 15 46 16 35 25 36 51 25 35 25 46 51 45 61 61 46 56 56 5 57-4 36 15 66 26 15 25 16 15 4 25h-51l-15 15 5 15 20 40 15 6 31 5 41 35 20 26 31 15 36 5 51-9h20l5 15-5 15-5 20 5 35 20 46 25 60 40 51-5 55 25 66 46 36 40 40 26 25 20 41 25 50 10 81 30 40 56 66 25 41 41 86 50 76 41 50 40 81 82 61 61 71 102 6 77-10 46 6 36 30 36 21 41 10 5 15-6 40-26 60v36l4 55 46 61 92 41 102 11 129 1 82 15 51 21 20 20 15 25-26 30 56 91-6 25-31 40 36 16h31v-20l51 5 77 56 10 31 25 50 10 61-6 40-26 20-20 20-6 40 51 25 31-35 31-9 20 40-5 40 15 86 25 35 30 46 31 15 25 31-5 30-36-1-46-15-20-15-26-11-56-15-26-5-20-16-16-15-20-40-15-25-46-21-26 15 10 25 5 15-15 30-26 5-10 35 25 11 21-5 61 5 51 16 51 25 41 31 51 10 26 16 20 10 31 25 20 31-26 4h-36l-25-5-26-5-25 4h-21l-36 35 56 26h56l77 56 66 51 30 76 36 10 46 31 25 30 36 51 66 61 51 55 51 21h56l52 6 82 5 46-4 25 15 57-40 67-4 77 5 215 7 36 20 31-14 46 10 31-25 31-30 51 16 25 50-15 15-31 30 4 40-10 30 20 21h26l25 10 5 15-10 35-21 30 10 16 36 5 66 31 46 25 98 16 35 25 57 21 46 31h56l41-20 51 6h88l133 6 46 16 51 56 51 30h31l41-29 61 5 52 21 61 5 46 11v45l-52 20-26 50-6 70-36 25-61 5-31-21-41-35-46-31-31 15 5 25 16 15 40 36-5 30 5 50-6 46-16 40-25 10-26-26 6-60v-55l-56-26-21 40-46 10-56 4-46-15-57 35h-26l1-46-5-10-11-15-25-5-21 20-15 15-42 14-25 5-67-30-26 40-10 20-31-36-40-25-42 4-52 151-21 75-26 25-15-20-5-35-16-20-56-31-56 25-37 45-36 14-40-40-15-30-56-56-46-21-36-25-41-51-35-20-46-1-67 25-31 5-41 10-36-21-15-50-10-20-46-11-25-30-26-61h-10l-15 5-6 15v35l-21 25-45 11 9 29 15 15 26 16 46 5 25 15 46 21 5 30-10 45 10 6 67-35 26 5 30 15 31 11 31-25 20 20 15 35 56 41 92 26 15 76 15 15h72l31 11 35 35 36-5 26-15 41-19 46 60 77 1 82-45 32-60 67-4 31-30-15-46-15-40 15-5 51 26 46 10h31l41-5 56 46 41-20 46 11 16 15-1 35 10 86 30 40 46 21 77-15 46-9 52 20 35 41 31 25 25 71-47 35-56 4-57-10-51-16-26 35 21 21 97 30 61 1 62-15 51 26h46l16-20 26-30 51-24 26 15 20 45 20 26 31 20h41l56 11 5 25-11 30-36 10-30 15-6 15 25 55h-46l-25-10-51-11-37 25-56-10-25-26-41-20-21 20 10 30 36 31 35 35 21 30-21 25 4 56 31 20 26-35 21-55 57-35 82-14 36 30 4 40-5 56 61 10 16-40-5-55-25-56-4-70h30l31 20 46 41 15 35-37 101 15 25h26l26-20 46 16 16-51-5-55-25-71 6-55 40 15 10 31 25 70 30 91-5 76-32 45-10 65 4 60 15 91 35 116 14 76-1 151-26 75-27 60-25-35-25-61-41-35-51-11-36 15-36 5-56-11-6 30 31 26 36 5 41 26 46 10 35 20 46 61 10 45-21 56-26 50-26-10-10-36-15-45-25-26-31-15-36 30-26 20-30-25-26-1-41-30-31 5 5 30 36 40 51 36 71 36 67 46-21 40-27 75-11 85 15 76 20 66 5 50-1 40-16 76-52 80-51-21-15-40 67-35 16-40-5-55-36 9-10-60-25-41-46 40-41-40-10-25-20-16-26-10-41 15-31-31-30-40 5-35 6-40 41-45 52-55v-26l-51 15-93 70h-41l-36-46-51-46-60-101-5-40 21-50 22-101 36-40-10-55 36-50-15-31-46-5-36-20-40-121 47-35 21-71-20-25-36 5-57 35-5-41-30-35-16 5-35 5-36-21-4-101 10-45-36-15-41 60-21 85 65 102 62 15 51 21 10 30-21 20-16 35-10 60 20 21 46 25 35 56 5 75-11 76-52 50-77 24-26-10-45-31 5-60 11-35-46-11-31 25-31 15-36-15-41-16-20-35-51-46-4-90-41-51 1-55 5-66 47-75-20-40-51-21-26-10-20-55-20-71-30-20-36 14-6 25v36l15 55 30 61-10 30-52 5-71-11-52 5-31 14-15-35-4-40-20-71-5-40 16-40 10-35-5-31-25-25-31-35-45-30-21 19-11 50 10 30 15 21 5 35 5 55-6 56-31 70-72 45-47 24 5 36h31l41-5 46-40 36 6 20 40 5 35 46 11 82 10 21 26 46-15h41l30 46-5 50-26 20v35l30 6 46 10v35l-6 55v41l61 96-1 35-25 5-36-16-36-30-41-15-45-41-36-31h-41l-46 20-57-6-30-20-5-45-25-31-21-25-25-35-46-26-31 15-36-5-15-21-36-40-20-5-21 20-26 20-15-21-4-45-5-40-15-20-21-31-15-5-21 20 5 30 5 41v30l-26 15-11 25 21 25 25 10 62 21 40 10 21 31 41 10 31-5 41-5 10 36-11 25-11 40-31 65-36 65-42 15-20-25-20-26-21 20-5 36-6 30-5 45 35 20 36 6 26-40 36-15h41v25l46 21 51 5 36 1 16-41 6-40 36-20 25 26 5 20v40l10 40 51 26 51 10 35 26 10 25 5 35 21 31h35l42-5 66 11 20 30-5 35-21 15-15-10-36-25-15 15-6 25 5 20 26 25 15 51-11 25-56 20-62-6-31-5-30-46h-36l-26 15-30 10-5-25v-26l-61-30-62 24-26 25 5 41-57 9-46-20-15-31-10-65-25-30-36-16-46 5-21 15 26 25 25 31 20 40v45l-1 56 10 45 31 15 77-4 56-20 88-44h46l5 25 10 30v46l-16 20-36 20-36 14-56-10-41-21-41 15-16 55 15 26 46 20 56 31v35l20 51 41-10 11-35-5-41-10-55 36-10 46-15 26-35 16-40 36-10 46 1 67 10 46 1 26-30 21-40 41-30 36 25 41 16 35 35v25l-10 20-36-10-41 10 4 40 15 35 52 21 41-15 51-35 36 16v20l-36 50-11 45 15 30 31 16 15 35-21 10h-26l-15 30-11 45-31 15-41-11-56-20-31 10v25l10 30 20 10 31 11 41 5 61 21-5 20-72 9-67 10-133-11-51-61h-30l19 111-82 44-103 35-118 24-113-16-26 10 21-45 16-30 36-5-5-30-57-1-77 20-36 75-62 55-67 24-21-20-15-45-25-81-14-91-26-25-50-46-21-20-25-20-51-16h-41l-16-20 43-176-30-46-11 60-6 51-31 35-46 15-92-92-51-10-25-81 83-19 51-20 11-30-98-11-51 10-30-56-36-36-11 26 5 40-26 25-30-31-41-50-71-91-9-66-20-60-37 24-40-50-66-61-51-76-25-51-66-60-66-81-36-56-30-51-46-35-51-51-50-66-15-55-10-61v-30l-35-50-26 35-62 9-56-31-66-40-41-46 1-50-15-46-31 5-46-30-15-61-25-41-41-15-41-20-36-31-30-45-20-61-15-70-20-46-25-55-25-36-41-65-50-66-41-41-51-40-25-31-41-35-41-26-51-41-46-40-46-31-9-136-20-35-30-61-15-55-46 25-21 30 15 45-16 40-26 5-35-56-25-70-10-46-15-40-20-35-31-31-71-15-62 9-62 20-26 25-15 35-26 15-36 15-10 10-26 30-32 90-21 30-30-15-36-11-15-15-26-20 6-30 36-35 31-30 10-10 36-50 42-65 6-46 5-45-10-60-14-71-30-66-10-30-36-25-46-1-52 10h-36l-36 20-36 14-31 25 5 56 15 65 15 36 20 25 5 25v25l-21 35-26 5-20 5-41-5-31-31-25-45-5-36v-10l1-40v-15l-41-15-46-11-36 15-47 30-41 10-139 54-41 35-26 40-11 95-16 45-41 15-26-20-36-5-25-16 67-60 21-65-4-111-25-85-45-96-26-21-30-5h-16l-61 5-41 9-11 5-25 10-36 10-11 20-10 15-11 15 5 40 31 11 5 15-11 20-15 15-21-5-71-1-67-31-20-25-5-35 26-10h25l16-25 5-35 6-30-5-31-15-15-31-10-21 5-20 5-15-5-31-1-6 20v51l-15 15h-11l-20 15-11 25 5 35 5 25v20l5 20 10 15 15 21 20 25 31 25 46 16 46 5 46 6 31 15 20 10 21 21 35 25 15 5 21-15 26-10 21-25 21-40 15-35-5-40-5-20-20-56-4-25h56l31-4 20 10 10 15 15 45v16l10 40v40l-11 15-10 15-21 20-36 25-5 30-21 40-21 15 5 30 5 11 5 35 5 20 20 15 36 11 26 15 30 10 46 41 46 30 31 21 41 5 20-20 26-30 6-30 10-40 21-50 11-46 10-40 27-55 25-30 21-20 41-25 52 1 5 15 10 25 5 15 10 20 15 26 5 25 30 40 26 11 66 15 62 11 56-20 26-30 26-15 16-35 5-20-5-40 11-15v-71l-4-35-5-35v-35l11-15 10-10h20l41-5 16 20 5 15-1 41-5 30 4 65-15 50-11 36-21 45-5 15-26 25-26 35-5 5-31 35-16 30-21 35 10 25 10 40 25 41 21-5 61 11 36 10 62 21h46l21-20 20-25 16-45 16-25 36-30 26-20 10-15 11-25 5-25 5-15 21-35 36-20h36l51-5 21 31 5 25 4 40 15 86 46 41 10 10 15 55-6 30-15 25 5 25-16 26v30l10 50-1 50 5 26 51 35 87 31 87 41 77 26 51 25 25 36 10 25 5 30 10 46 10 45 15 25 20 26 20 25 31 35 15 26 15 45 20 66 15 40 40 46 67 60 96 82 72 66 40 35 132 152 106 192 31 41 65 121 77 11 31 20 4 50 20 71 25 71 41 60 66 61 30 56 30 76 46 70 45 86 51 46 21 5 15 10v21l-68 64 47 1 61-25 31 15 41 56 50 46 97 51 52 20 15 21v25l-26 30-6 30 87 6 67 15 66 26 52 10 41 11-1 35 66 71 56 56 56 35 36 46 35 15 57 21 102 46 71 56 56 56 82 46 5 5 112 51 93-24 108-15 102-24 67-15 36-20 46 11 11 20 20 20 15 41-26 20-31 5-36-11-41-10-71 9-21 30-1 36 21 20 51 20 51-14 57-15h46l15 16 26 30 15 25 46 1 10-20-15-36-15-40 16-35h26l30 20 21 26 25 40 15 56-1 65-6 70-5 71-37 20-15-36-20-35-61-61-46-20-46-16-15 15-31 10-57-6-36 5-72 30-31 20-30 20 20 25h31l46-15 46-9 67-10 41 6 41 20 46 25 25 51-1 55-36 71-42 34-30-15-26-20-35-51-26 15-5 35 10 36 25 35v20l-11 25 10 30-5 61-36 5-46-6-72-26-21 30v51l92 31 61 20 36-9 36-51 21-55 37-45 15 5 10 31 26 15 36-30-5-50-5-41 21-30 26-45-15-25 47-45 15 35-1 51 51 10 72-9 57 25 15 26-6 25-20 40-32 50-11 65 16 15 30-4 26-35 42-10h46l31-20-5-15-36-5-20-46 41-34h51l62-30-10-25-10-15-20-10-62-6-46 5 6-56 51-19 41-5 31-5 77 36 41 5 4 21-10 20-21 40 15 45 15 51 20 55 51 46 30 30 20 51 31 20 61 51-4-71-5-25 21-35 25 5 56 31 5 25 31 36 56 25 5 20-31 10-21 45 26 11 56-15 41 10 15 46-15 20-52 24-62 5-61 25-88 9-51-25-15 25-21 10-56-6-16 25-16 50-41 10-15-25-5-51-10-40-36 5h-36l-15-16-20-30-25-25-42 9-66 15-62 4-5 16-1 40v10l-5 40-6 45 31 6 16-10 26-45 25 10 5 5v15l-11 50 16 5 31-25 25 26 26 10 15-30 47-15 10 21-1 45 10 50 31 21h30l36 10 10 35-10 26-16 30-31 35-36 19-52 30-36 35-21 60v21l-11 60 5 65 14 61 31 15 16-20 21-45 10-65 26-45 57-50 52-35 11-50-10-101h36l21-5h10l5-30 6-40 26-25-10-45 72-15 15 20 15 31 5 40 20 20 10 26 5 25 20 35 26 25 16-75-20-50-20-56 82-34 21-10 36-20 47-50 66-10 36 36 20 30 20 61-6 85-21 55-26 81-22 100-26 101-42 125-27 91v20l-16 95-21 65-11 66-27 60-46 65-108 29-10-25 21-40 31-30 83-100 31-70-10-61-20-15-46 25-37 45-36 60-42 45-61 25-52-21-76-26-11 20-31 50-16 31-20 30-57 14-87 40-119 39-57 45-15 10-42 55-62 70-36 55-42 55-26 45-10 40-52 15-51-21-41-40-45-56-51-91-25-35-41-61-9-45 26-40v-41l-20-40-31-25-25-21-31-40-25-61-25-65-40-36-36-36-61-40-41-36-46-15-87-46-81-56-87-61-56-26-66-101 11-55 26-66 26-30 6-40v-35l-46-5-16 35-5 30-41 5-41-36-46-10-15-36-5-50-20-20-41-16-15-40-15-36-21-20-15-35-25-41 5-20-30-5-31-10-26 40v45l15 40 30 56 35 46 41 50 30 51 25 70-21 46-71-6-62-36-20-30-20-51-20-55-31-10-91-87-66-66-41-55-56-11-51-10-36-36-31-25 1-45-26-6-15-30h-31l26-50 16-56 27-75 47-75 62-75 16-55 5-66-25-10-46-20-25-56-25-81-40-131-35-55-36-51-56-86-50-46-82-40-144-12-143-11-77-1-20-20-21-25-36 5-26 25-25 35 20 20 36 25-37 25h-77l-133 14-103 4-97-11-11 35 31 31 36 15 36 10 20 31 5 20-53 95-31 30-66 10-62-31-30-66-51-45-51-36-35-56-20-65-46-31-5-5-30-51-56-101-46-30-102-41-128-16-154 14-205 3-26-30-9-51 56-50-14-70-5-36-30-65-20-76 16-105 41-15 36 5 36-30 37-50-21-15-92-46-45-51-5-35 57-35-5-20-21-15-15-41-65-92-11 77-47 50-21 35 5 45 10 40 56 41-1 40-10 30-26 61-11 35-5 25 4 45-6 111 36 51 15 50-47 65-36-5-62 29-26 71-62 19-51-5-41 40-6 40-5 30-82-31-31-10h-56l-31-6-127-81-56-51-61-106-66-71-61-86-25-36 6-45-5-40-15-46v-40l-10-25-15-30-15-21-10-30-41-30-31-21-10-5-25-5-5-10-31-51-15-15-21-5h-10l-51 35-16 20-77 59-47 20-41 25-21 20-31 30-21 25-31 25-36 25-31 30-26 30-26 24-20 20-21 25h-46l-31-10-15-56-5-35 1-25-5-40v-21l21-80 1-30-5-35-15-51-20-50 10-15 46-10 27-70-67 24-83 60-87 35-165 8-20 15-31 15-41 35h-41l-46-46-5-20-41-15 5 30 10 20 5 30-31 10-46-5-31-1h-26l-30 5-26 5-97-16-41-5-52-6-30-20-20-46-51-30-41-21-41-35-36 20-62-11-112 9-31-5-31 10-31 9-36 20-26 5-46 10-26 10-20 15-47 9-45-50-5-20 5-16 10-30 21-35v-10l-10-25-15-25-5-25 6-31v-45l-5-38-20 3-11 10-20 20v20l-11 35-5 35-1 25-25 15-6 25-31 20-31 15-36 20-51 14-6 46-5 50 14 60v21l16 10 25-10 21-20 16-10 25-20 21-15 26-10 15 5 5 36 10 40 10 20 10 15 15 26 15 15 21 15 46 31 15 20 30 81 62-65 98-40 36-4 31-40 11-25 5-46v-40h26l36 26 10 30 10 15 36 21h61l10 25 10 26 5 35 15 40 5 35 46 36 61 11h51l36-15 47-30 26-15 26-30 41-50 26 11 4 35 52-20 26-15 26-45 31-4 25 5 46 30 56 16 52-10 67-19 30-10 42-10 20-5 36-20 21-35 36-45 16 5 5 6 10 15-16 40 5 40 15 35 20 41 15 35-6 86 25 101 36 20 36 15 102 52 4 65 72-25 42-24 15-15 52-106 37-70 36-45 47-55 41-25 36-19 26-25 57-20-5-66 31 1 46 15 36 10 46 26-1 45-16 56v60l10 25 15 46 20 45 25 35 10 56 20 60 15 66 20 86-57 24-52 20-35 10-47 40-36 45-21 50-11 45-6 65 21-4 26-20 26-51 26-35 103-59 36-10 36-40 52-15 46 16 61 11 46 35 66 16 21 15 36 10 20 16 71 61 77 55 112 112 102 66 40 16h52l103-34 92-45h46l72 11 103 1 179-9 98 6 98-24 30-10 16 15-6 50 10 46-6 40-26 55 108-14 46 35 25 31 25 55 36 31 82 51 56 36 61 81 75 126 41 30 77 21 62-4 51-5 36-15 57-85 16-65 21-50 11-30 10-36 26-15 47-90 5-45 11-55 6-35 31-51 26-9 25 30 41 36 45 55 61 71 15 31-42 100-17 181-1 116 31 10 25 40 15 51 15 116 45 111 9 60v51l-6 80-37 90-26 96-16 65-16 55 4 96 15 65 30 66 67 46 81 46 97 36 103-4 92-5 93 6 71 21 123 66 25 36 15 35-31 50 10 30-16 66-57 34h-36l-36 5-51-1-61-25-32 50-46 40-1 55 93-19 72-30h46l98 1 77-40 72-39 46-5 46 11 26 15 30 35 21 36 25 45 71 41 61 46 51 25 5 26-5 30 46 40 87 36 97 21 66 21 36 45 10 51 4 55 15 31 20 50 10 45-26 30-25 5-21-25-15-25-10-46-20-45-25-11-36 5-31-15-36 5-15 25 4 25 26 25 56 16-10 35 25 30 4 66 15 45-10 50-52 20-36 50-41 35 4 15v10l21 11 36 10 51-15 36-40 37-50 41-40 46 6 15 25 5 55-6 56 5 70-11 76-47 29-61 25-72 5-42 29-10 35 15 41-16 25-31 5-30 20-26 40-37 35-31 55-11 75-6 45-56 10-21 45-31 35-36 30h-51l-47 24v41l-21 80 4 40 21 31 15 40 4 45-10 41-21 40-11 30-6 60 5 40 26 26 41-15 5-30-5-30-4-36v-45l10-20 6-15 20-25 6-10 21-45 5-20-5-15-5-16-10-15-10-20v-40l11-35 56-20 52-5 41-14 56-15 73-70 31-25 16-30-6-10-35-36-5-20 15-15 47-9 36-15 10-40-4-36-5-40 20-15 26 10 10 16 46 15 26-5 11-70v-40l11-41 31-25 30 16h16l36-10 31-25 46-15 82 6 26-15 5-30 1-35 10-40 16-66 42-35 66-19 46 5 41 6 62 20 66 16 72 36 77 5 56 11 41-20 31-20 32-75 27-191 11-10 15-10 92 11h72l41 6 20 10 10 50 5 56 4 80 10 71 15 45 5 10 15 31-5 15-11 40-26 15-10 5-21 15-5 40 15 30 30 36 21 35 30 30 10 46-11 40-15 35-47 15-30-5-26-26-41-5-21 20-5 40v45l-11 40-31 30-36 15-41 5-36-26-25-30-36-15-10 10-6 5 10 25-5 45-16 40-31 25-31-5-25 10-6 35 10 15v35l-5 36-21 45 20 35 25-5 27-45 5-50 21-60 42-40 51-5 61 6 103-20 26-30 6-75 41-40 52-25 51-9 41-25 37-30 66-10 21-5 56 31v30l-1 45 5 26 52-5 25-15 11-5 51-4 46 51 25 35 51 20 16-10 46-4h41l31 10 35 11 57-20 46-10 52 1 66 15 36-15 6-30-5-15-57 15-31-11-112-16-82-5-41-6h-52l-35-20-26-16-35-35-51-36-42 15-30-10 16-81-10-25-61-36-31-30-71-31-25-66 36-24 46-25 37-80 5-46-14-90 56 25 46 11 51-5 21 15-1 51 20 30 57 26 46 25 25 35 36-4 21-55 11-66 5-55h-46l-26 14-30 15-42 10-10-20 1-30 20-25 21-35-20-16-46 15-37 10-25-10-15-31-25-45-26-16-21 46-31-11-30-20-21 5-26 30-61 14-36-15-20-20-16-10-10-26-10-35-9-76v-65l-4-96v-20l6-90 17-181 21-15 41 15 25 81 66 41 31-30h46l10 30 62 6 10 35 15 35 56 1 52-20 56 1 31-25v-36l27-55-21-10-10-5-31-5-61 4-62 5-72-16-30-20v-56l62 1 72 5 46 1h31l71 26 66 36 118 91 163 127 214 72 164 42 46 5 31 5 10 51v15l-21 40-16 35v40l-16 40-21 5-30-5-26-15h-31l-36 9-31 25-51 15-16 20 21 15h25l31 31 20 15 41-10 98-34 62-20 25 6 36 10 5 10 10 15 21 36 25 40 41 26 30 20 20 45 15 61 46 10 57 6 46-30-20-35-31-16-25-25-21-25-15-26-20-50-15-46-15-30-51-21-25-5-72-10-46-26v-40l26-30 21 5h41l30 16 36 15 21-15-10-20-16-10-30-16-26-10-25-15 5-35 11-30h87l36 11 35 10h62l31 11 41 25 10 5 61 26 87 31 71 31 57 10 46 5 20 31-11 50-36 40-26 35-21 40-20-30-26 15-5 25-11 40-31 35-15 25 4 30 31 6h36l31 5 15 20-6 41-41 65-37 60-31 35-10 30 5 15 36-5 51-9 57-25 31-15 20-35 6-40 6-66 10-35 21-10v-20l-25-15-16-30-4-46 21-50 36-15 36-5 35 36 41 51 30 25 52 10 10 26-21 25-26 5-31 19 10 31 25 40 5 25-31 71 10 40 31 5 51-20 21 1 20 30 25 25 41 26 31 5 31-20-10-50-36-21-30-20-26-35-25-51-5-25 26-15 31-10 15-30 16-30-15-20-26-26-30-25-25-35-5-26 5-40-4-50-21-20-36-6-56-5-72 4-30-35-25-46 10-40 62-30 41-9 57-5 51-15 46-24 67-40 42-45 5-5 62-50 98-14 71-5 103 31 127 82 31 50 14 76 10 30 45 156 25 126 29 162 50 161 39 151 35 167 14 70 15 91 30 111 44 167 35 121 30 116 10 25 50 101 45 151 110 258 40 131 70 152 51 106 30 50 30 91 40 96 40 131 50 111 15 51 35 116 40 71 45 101 25 116 29 161 29 156 25 156-216 9 52-55v-30l-5-26-46 5-31 15-15-25-5-31-4-50 5-40v-40l1-41 20 21 25 30 26 10 21-15-10-25-20-55-21-41-4-55 20-5 47-10-15-60-46-56-51-41-66-51-30-60-20-76-15-71-4-40-15-75-19-111-10-76-15-81-15-45-45-96-25-50-30-66-10-15-30-66-40-111-20-61-26-50-20 10h-26l-10-16-20-55-31 10-10 35-37 45-36 5-30-21-6 35-5 31v30l-6 45 5 55-6 71-11 65-11 71-16 45 5 35 15 15 10 31v10l-5 15-16 20-16 55v45l-16 86-31 55-31 30-36 15-1 20 10 25 41 30-26 66-1 45 36 5 21 21-11 30-31 30 15 65 4 61 20 65 10 101-32 45-36 30-21 45 5 51 10 25 5 45 9 40 15 66 28 61-100 3-159 5-25-81-5-20 11-35 5-56-46-45-20-16-41-20-20-25-25-36h-62l-20-31-5-20-20-20-36-31v-40l-20-25-46-6-20-15-16-20-40-36-21 5-20 5-6 10-5 10-5 25 15 26 31 20 15 5 20 10 31 21 30 25-5 15v15l5 30 36 26 30 10 10 20 5 16v80l15 25 20 16 41 10 10 30-1 51v75l-775 24-826 25-238 7-454 12-187 6-588 14-364 10-515 13-132 2-448 13-8 1-36-1-59 1-200 4-464 10-1939 29-652 9-9 80-1269 15-885 10-1038 10-277 3-1616 17-1933 26-585 7-1210 11h-78l-1241 6-681 2-893 14-713 10-175 4-148 4-57 3-103 5-323 13-77 4h-41l-420-1-16 1-46-2-287 3-144 2-92-2-272-1h-220l-82-1-1308-12-328-3-293-3-1143-7-441-3-1498 16-354 4-318 4-929 9-185-4-502-11-638 10-367 6-41-1-795-16-989-23-893-23-1851-31-72-1-215-2-1631-30-374-8-1445-100-10-1-1535-105-362-24-1661-50-226-7-322-19-72-4-46-1-1405-81-1861-111-403-25-241-15-180-12-1060-111-886-108-786-35 261-253-55-3-703-31-840-43-52-2-271-15-544-32-114 235-559-22-98-4-200-10-41-2-974-33-764-33-66-11-498-10-1820-59-1013-38-1340-53-629-28-1386-61-321-14-2081-99-180-75-1768-59-160-14-917-49-286-20-205-35-243-17 56-62 55-52 64-39 44-39 33-36 59-23 52-7 59-10 24-4 47-17 37-17 34-28 33-32 32-14 52-16 18 1 64-31 110 14 126-60 116-40 147-61 72-65 273-55h13l36 5 41 10 46 11 47 13 9 2 67 13 46 9 41 2 46-8 63-10 77-4 56 6 9 1 36 1 31-5h26l66-14 61-19 42-20 60-34 33-36 44-34 44-37 51-18 70-24 62-10 120-44 139-50 154-38 8-2 205-49 208-52 59-15 162-43 144-43 8-3 184-52 79-19 53-14 52-4 77-10 107 5 98 5 82 1 41-3 31-2 36-17 18-19 27-37 25-35 18-49 2-9-7-69-8-93 1-70v-3l-17-40-1-18 2-8 73-21 81-54 39-43 18-29 21-25 19-33 27-32 16-20 19-14 12-34 5-12 6-30 5-30-3-28-1-23v-40l2-33 18-18 16-15 60-46 38-17 30-9 26-3 21-3 16-20 5-25v-25l5-30 24-18 21-14 25 7 43 6 70 7 33-4 39-6 53-11 51-1 41 8 14 7v12l13 28 38 17 65 27 54 6 24-37 2-1 5-2 43-54 123-30 42 6h60l41-5 70-13 95-46 169-51 72-16 47-11 36-8 25-6 29-9 18-15 21-19h1l103-19 78-71 13-6 35-23 21-19 21-17 16-15 21-25 15-25v-30l-10-16-10-30v-35l11-25 21-23 20-37 26-30 26-35 19-39 8-73-21-62 25-90 37-52-14-21-25-21-25-24-12-25-15-32-4-30-12-32 3-33v-12l2-15 10-16 18-28 11-4 20-9 27 2 33-14 19-22 12-4 26 3 87-26 44-42 22-20 25-41 6-31 9-20 6-25 18-18 22-19 26-3h21l51 1 36-4 42-17 25 2h26l15 10 20 10 25 6 21-7 31-11 33-11 13-17 32-40 15-8 28-14 50-46 62-50 82-9 24 4 17-4 15-10 17-33 9-41 7-38 13-30 22-18 31-8 37-8 25 7h26l21-7 23-33-2-41-6-85-4-62-7-43-4-28 13-35 14-18 24-9 23-21 5-25-12-29-14-26-13-26-8-31 8-35 1-50 1-56-16-66-7-41 2-30 11-17 18-27 33-17 51-27 119-62 86-45 32-23 36 1 26 1 46-14 22-9 30-19 26-17 46-17 21-28 23-19 48-22 42-14 43-15 24-13 39-13 27-18 31-25 36-30 54-43 59-41 52-25 27-13 38-19 23-29 21-18 26-19 18-14 39-21 42-28 35-17 46-34 37-23 30-18 73-49 25-11 21-8 39-10 42-17 32 2 29 2 18-10 20-12 12-11 21-17 22-14 27-2 35-4 31-18 22-12 36-35 15-23 21-14 26-13 27-3 24-2 17-1h9l17-2 25-19 26-20 24-18 23-17 65-17 71-19 63-33 45-24 6-3 47-17 42-14 46-14 27-9 65-14 88-22 50-13 52-13 74-8 111-32 107-32 182-53 40-21 36-19 21-24 3-32 3-25 10-18 11-6 21-11 31-8h9l17 2 31-8 28-18 37-23 26-28 8-20 23-34 32-25 113-91 74-60 1797-1459 1145-933 45-3h31l14 11 6 4 10 11 6 14 10 21 6 5 10 3 14-3 7-4 15-8 16 5 13 14-5 14-11 40 2 13 3 18 4 13 9 5 7 3 10 19v25l-11 16 5 15 26 1 19-10 17-26 11-10 25-4 19 14 9 23v15l-5 15-19 8-38 26-26 10-25 16-14 13-13 22-14 22-8 4-14 3-12 3-13 2-5 2-9 5v16l8 22 6 30-16 23-4 6-27 2-15 1-25-7-11-3-25-1-26 5-22 10-9 5-32 18-10 7-20 9-27 13-40 10-37 14-31 26-20 25-14 36-3 49 20 66 26 51 20 30 19 21h22l29 2 36 20 17 11 10 7 9 15 6 11 10 30 15 16h26l26-5 35 5 14 9 10 4 36 20 36 21 8 5 17 11 31 10 25 16 11 14 1 19-2 12-7 31-4 19-6 50 5 23 13 45 25 36 31 25 12 16 4 7 13 18 6 30-11 14-15 11-20 20-5 20-2 25-20 83-11 40-6 41-5 40-5 22 19 58 5 18v20l4 18 7 27 14 26 5 30 9 18 22 27 13 14 18 23 6 10 6 18 18 18 5 3 23 16 22 16 24 34 8 10 7 10 30 31 15 30 15 24 10 17 13 13 21 18 23 16 14 8 41 1 26-9 25 1 26 20 10 20 11 17 9 14 14 24 26 17 21 20 9 15 5 31-9 36-2 33 10 20 15 20 31 6 31 10 7 10 2 7v25l-4 54 4 45 5 20 10 13 9 9 26 6 16 3 9 2 12 3 15 5 26 11 15 6 19 11 11 8 6 5 29 28 26 18 52 11 44-12 33-18 7-3 34-17 46-4 36-5 31 10 51 11 56 26 23 15 8 5 25 21 24 15 16 5 30 5 23-4 28 1 7 3 14 7 10 15 15 30 16 13 9 8 9 9 12 11 18 29 9 16 20 50 20 101 10 51v25l5 20 11 11 20 1h21l26 1h30l15 3 16 4 10 4 19 13 31 35 24 38 12 20 45 49 35 32 21 19 45 45 36 25 26 16 31 17 4 3 26 36 14 27 22 28 29 6 1027-26 54-41 9-8 25-20 37-30 41-30 46-20 41-14 62-30 57-20 56-34 31-20 27-33 21-40 15-42 6-48 17-40 29-32 12-8 13 8 23 23 30 25 35 7 12-4 20-7 31-9 19-18 28-22 31-15 25 1 21-10 21-25 26-25 19-15 12-9 46-36 34-14 21-10 25-4 21-5 20 5 16 3 23 3h43l31-9 31-6 34-33 20-16 13-15 31-51 31-70 11-30 21-45 16-40 21-37 10-36 11-37 16-28 19-24 17-18 36-20 11-4 15-3 25-6 16-3 47-15 31-14 31-56 31-65 12-24 15-5 20 10 208 251 182 217 568 524 43 40 132 122 78-24 7-4 55-31 40-24 16-11 92-60 20-11 65-36 70-41 83-40 89-41 134-44 98-29 100-39 155-43 98-24 116-18 103-18 62-7 61-7 115-21 8-2 88-14 155-43 49-14 121-35 61-19 31 6 25 16 20 30v20l11 24 7 7 4 3 15 1 61 5 32-4 49-8 26-8 68-24 86-29 42-16 124-59 88-39 113-69 62-50 52-49 42-40 16-13 26-21 28-22 23-18 57-34 51-36 41-20 26-25 11-21-24-42-149-201-27-30-39-45-31-46-5-35 16-44 27-41 124-185-10-41-5-30v-28l1-6 27-45 5-10 47-70 39 29 41 26h56l47 11 40 30 67 61 76 61 51 60 40 56 25 36 15 20 16 10 16 5 4 2 21 3 5 1 30 1 31 10 26 15 36 51 30 66 40 101 72-19 88-29 20-9 76-29 103-39 53-27 45-22 130-67 4-2 187-103 128-64 160-89 139-89 78-50 52-35 38-26 41-20 47-24 23-14 20-11 39-25 78-54 83-64 67-50 53-35 98-49 57-24 82-24 88-15 113-29 22-5 29-5 36-5 26 11 24 14 21 32 15 35 25 70 18 79-1 76-5 45-3 22-3 23 5 31 15 25 11 20 4 5 15 21 20 25 25 16 26 40 35 17h31l21-5 46-20 36-10 55-15 43-17 36-31 21-17 21-18 52-39 85-76 88-64 117-62 134-64 64-29 44-20 20-9 33-19 12-11 8-10 17-25-1-35 16-30 47-35 36-14 31-15 72-19 128-39 98-35 52-24 52-33 4-3 23-21 34-33 49-62 46-76 67-127-50-31-60-33-112 123-235-94 189-102-114-228 268-142 117-59 69-34 124-79 119-94 102-89 63-65 42-62 30-43-379-237-108-103-260-354h1l39-11 11-3 27-10 18-5 27-12 56-35 42-35 18-20 15-21 17-21 17-27 31-45 21-30 14-22 15-25 21-14 26-10 31-15 21-25 10-25 1-25-20-36-16-15-20-30-19-25-10-16 5-24 6-14 9-17 22-45 26-70 49-68 29-51 47-51 68-55 36-24 31-4h51l14-10 6-20-5-25-15-15-29-20-15-36-4-10-3-15-5-41 3-20 6-24 15-35 39-52 50-48 43-41 27-31 24-37 21-50 33-41 25-29 25-14 26-10 12-9 14-8 21-15 20-15 17-25 4-20-10-28 1-28 3-26 13-26 22-35 15-25 20-33 10-25 6-10 10-15 17-32 16-25 26-35 7-7 53-51 39-31 26-14 31-9 5-1h15l26 1 15-5 11-8 7-7 11-7 8-8 21-25 26-35 22-20 26-20 25-15 4-4 12-15 37-50 47-75 31-30 41-40 37-29 7-6 23-15 27-19 15-24 31-50 31-40 37-34 16-20 9-8 18-17 40-35 30-22 41-25 57-45 15-10 47-45 15-16 21-24 22-21 12-15 19-21 12-13 36-40 37-30 41-34 33-28 19-17 43-41 47-39 41-35 16-14 35-25 11-26 10-19 6-36 11-40 11-24 15-21 15-15 22-19 8-15 12-21 26-40 26-30 11-19 10-16 22-33 19-42 16-40 21-65 42-126 16-45 10-24 14-33 3-10 8-15 21-46 11-24 8-18 13-27 23-48 24-37 37-40 21-28 5-5 52-51 42-50 15-30 11-25 5-24-20-17-6-1-20-8-21-10-12-9-7-8-4-4-12-20-12-19-2-7-5-46-1-11v-27l-4-41v-26l3-14 7-10 12-8 6-3 22-9 14-6 29-13 15-20 11-26 10-35 16-30 16-25 25-25 15-14 9-11 6-25 2-8v-32l-1-12v-19l11-18 5-6 11-31-10-20-11-15-10-25 6-15v-25l-10-26-4-30 10-25 16-20 56-29 42-10 31-20 25-20 11-14 20-51 21-30 16-20 26-21 27-13 27-10 8-5 17-10 20-14 14-11 21-20 39-53 36-50 21-40 14-22 3-4 17-16 26-20 15-10 21-20 10-15 9-12 7-8 26-25 10-5 8-2 14-5 12-4 36-5 16-5 15-15 11-25 10-10 13-8 9-5h21l31-10 6-2 19-7 21-10 20-16 5-30 16-30 21-20 31-5 25-9 32-15 36-19 46-25 21-25 11-46-10-39-10-56-24-56-21-46-5-6-19-24-21-21-10-9-6-8-10-17-26-31-20-35v-27l3-19 4-14 9-21 15-19 14-16 26-30 21-30 19-21 14-13 19-17 47-38 48-30 4-4 27-26 36-35 36-69 6-16 16-35 10-30 6-7 20-23 18-17 8-6 10-5 21-7h18l12 2 15 3 21 6 17 3 14 2 31 5 36-4 15-5 21-12 15-10 8-7 13-16 21-25 5-32-5-28-14-28-11-18-9-23 5-39 6-31 26-70 21-40 5-9 17-35 8-13 8-12 9-23 7-17 7-11 9-14 16-29 10-16 21-25 8-12 18-23 23-38 7-10 12-17 21-25 26-24 21-25 6-15 5-12 4-8 6-20 10-15 16-20v-35l6-25 11-20-5-26-5-15-4-26 10-29 16-30 5-40 1-30-11-46-15-35-20-30-4-5-17-21-11-15-2-5v-26l6-30 5-30 1-25v-20l1-55 3-19 5-16 2-14 6-17 16-25 21-24 15-15 11-14 5-6 16-30 11-26 4-5 16-19 16-21 27-4 25-5h31l22-5 24-13 10-17 5-18-4-26-20-51-15-20-15-26-10-20v-15l10-20 16-24 5-18-1-8-8-25-10-25-5-60 12-71 11-25 7-19 12-22 6-4 14-10 11-10 12-19 1-20-10-26-5-25v-8l3-8 20-36 16-15 19-28 10-30 6-20 4-8 12-22 15-35 18-26 19-14 21-1h6l16 3 8 4 87 42 100 53 90 51 136 75 33 17 68 32 65 25 33 11 59 20 73 27 44 19 43 19 5 3 44 30 21 22 15 23 30 51 52 74 19 29 60 107 65 116 120 233 167 421 528 186 195 70 284 100 147 52 104 37 108 45 52 5 11 2 19 4 42-14 4-3 15-11 20-15 23-16 7-5 18-11 14-5 11-2 36-9h31l16-3 18-3 7-4 5-10v-15l-10-35-1-8-3-17 6-35 6-7 14-13 15-12 16-11 21-15 21-16 36-35 47-55 16-20 15-14 21-21 26-9 30-5 16-5 16-10 9-14 2-31v-6l9-54 11-24 7-11 3-6 10-14 38-20 10-7 11-7 16-10 13-11 22-23 21-26 5-10 3-7 19-38 16-25 26-34 23-27 21-20 4-4 15-24 11-35v-11l-4-21-10-34-4-26-1-36 11-40 17-65 21-55 31-65 4-9 27-51 43-78 58-100 89-155 48-90 3-5 23-35 17-29 9-16 9-21 19-57 16-46 10-51 7-60 5-30 6-34 10-36 11-30 25-35 27-56 69-140 32-75 36-59 27-45 10-15 13-15 7-7 11-8 29-15 22-4h8l18-1h16l15 11 9 12 6 9 15 10 17 8 27-3 15-6 26-19 34-19 16-65 11-25 17-37 10-43 6-47 11-40v-40l-10-39-10-17-10-18-5-40-9-28 1-35 10-45 6-40 11-49 1-8 8-29 12-48 20-67 13-35 14-40 49-93 65-83 50-82 22-44 6-14 15-32 16-40 11-53 5-32-5-25-10-34-4-27v-25l6-10 10-13 15-15 67-25h52l36 5 20 6 26-5 16-20 16-35 6-65v-36l1-30 5-35 3-8 11-22 11-17 7-8 20-26 31-19 24-10 18-9 21-20 10-25 6-25 5-16 6-19 15-30 15-21 6-9 16-25v-29l-5-8-8-14-1-6v-13l12-31 25-24 401 351 586 516 128 113 31-71 27-95 26-53 16-30 43-75 13-24 34-61 42-75 50-78 49-67 11-19 31-60 50-114 56-116 27-91 33-89 8-16 28-50 32-60 41-59 36-60 54-70 12-14 28-26 24-18 24-16 31-20 36-15 26-14 24-27 21-24 22-29 21-40 9-15 15-27 21-35 31-34 42-35 60-27 32-18 31-10h26l20 5 15 16 5 13-7 50-4 41-8 70-11 65-6 30v11l3 10 17 6 21-11 24-24 21-34 15-15 21-19 29-27 23-5 4-1 14-9 15-10 16-11 7-8 6-5 17-16 8-9 9-11 7-9 24-10 22-5 12-6 18-8 21-11 30-34 53-81 43-74 26-60 21-35 20-46 16-30 27-38 15-20 26-10 16-10 4-2 10-6 21-13 21-25 27-43 16-30 19-37 6-7 17-16 10-5 9-2 11 8 14 17v25l1 26 14 10h31l15-5h10l11 7 6 6 10 15 20 26 5 20 5 25 10 15 20 6 16-4 10-11 21-25 31-45 31-60 38-75 41-65 90-119 57-60 100-129-168-158 99-110 62-75 64-84 29-26 37-30 41-28 31-21 36-40 23-25 10-14 32-40 44-61 45-68 38-57 5-5 52-55 30-33 6-5 21-17 41-30 31-10h11l20-5 30-6 13-4 49-20 9-4 23-15 35-20 26-25 37-35 31-29 26-36 26-39 28-50 14-31 12-35 4-9 21-40 27-45 41-40 55-46 62-40 49-58 21-25 9-16 2-9 1-10-11-15-6-4-12-3-20-10-11-5-35-31-56-36-12-13-14-17-11-11-10-13-11-31 6-30v-25l-5-20-15-11-19-5-6-5-15-11-10-10-10-25 10-25 16-30 47-60 73-90 21-28 47-66 23-40 13-26 15-40 7-19 4-32 2-9v-19l1-25-10-35-18-18-30-20-32-16-27-13-16-10-4-21 16-35 23-26 20-25 25-33 3-4 24-33 21-45 11-30 10-25 4-3 17-12 31-19 6-5 14-14 17-21 15-26 5-9 10-16 12-19 9-14 31-39 21-25 42-45 37-44 25-36 12-15 19-28 37-52 36-73 9-18 19-43 8-17 6-23 5-18 5-17 6-35 2-11 6-10 31-25 21-14 3-7 7-13v-10l-15-21-36-15-4-1-65-19-48-11-31-6-15-11-9-18 8-19 28-48 43-66 9-14 13-20 40-65 16-30 5-35-5-37-4-18-15-31-14-24-6-11-46-46-20-36-10-40 6-41 3-6 16-27 31-55 22-24 4-10 3-12v-25l-2-17-5-12-7-24-3-12-4-11-3-20 6-35 10-20 16-20 5-11 7-18 5-30 1-33v-78l-10-25-4-26 5-29 3-13 2-9 685 538 168 141 161 135 421 363 841 683 428 343 30 27 317 254 362 293 774 638 300 246 33-11 19-21 10-43 4-22 7-43 5-27 8-26 16-65 16-35 21-40 27-45 26-30 17-38 15-42 5-55 16-50 12-54 11-57 21-79 31-85 3-6 24-74 31-60 26-40 9-10 29-36 18-20 16-24 13-26 6-19 3-16 5-45-5-30-4-50 3-16 2-10 11-25 11-14 20-26 18-21 6-9 27-39 21-51 11-50 11-65 16-46 26-50 21-60 22-44 36-55 27-55 15-31 3-5 8-19 57-55 65-60z"/>
<path d="m16998-7188l45 91 15 46 15 70-26 20-40-131-45-46-46-25-36-21-5-35 26 5 97 26z"/>
<path d="m30219-6054l-11 12-83 100-53 105-36 80-21 66-37 65-62 60-42 100-72 75-73 105-21 50-31 61-32 85-47 120-37 91-21 55-31 90-26 55-22 66-15 50-6 35-31 75-26 35-57 70-62 60-26 35-62 15-41 30-46-15-62-21-20-30-5-26-46-20-5-35 47-30 36-10 41 20 35 6 41 10 57 6 46-10 31-45 37-50 15-45-10-31 57-70 1-35-52-5-46 50-36 40-31 4-41-25-46-5-52 24-20 30-21-5-10-20v-30l16-15 36-15 21-30-5-30v-36l5-35 16-20 31-20 51 6 67-5 62-9 25-20 21-56 6-50h41l21-4 41-55 21-41 26-75 16-35 31-10 26-40v-15l-25-20-16-16 21-55 37-65 26-65 21-45 5-36 11-25 5-20-5-25-10-15-15-25v-26l21-4v-15l-26-26 6-15 36 5 20 16 21-15v-25l41-5 57-10 46-20 5-35-15-20h-46l21-15 5-26 57-14 41-30 21-25-5-50-5-26-20-10-6-10 3-11 189-28 10-1 82-10z"/>
<path d="m26672-5318l21-20 15-20 26-16 25 1 21 9 15 5 16-10 4-11-14-28-15-20v-25l14-22 14-16 25-25 31-53 816-130 1345-188 26 13 21 10-1 35-62 40-61-6-41 15-109 140 4 36 26 55-82-11-67-5-51-1-41-25-16 85 15 71-6 55-27 151 25 56 31 5h46l15 41-11 80-52 45-25-10-51-6-36 5-26 5-21 25-10 25-1 40 15 36 15 45 10 51 20 50-5 45-6 45-26 35-21 20v56l-52 65-31 20-36 55h-26l-36 4-57 35-20-25 11-35 26-25 36-65 1-51 15-25 26-65 31-15 31-30 42-30 5-30-15-20-62-26-20 10-88 35v10l-52 90-73 191-47 75-47 85 15 66 66 10 62-14 62 5 40 21-25 19-21 20-42 61-10 45-42 50-31 20-26 30-10 30-6 30-10 20-15-5v-25l10-35 11-10 5-36-5-20-30-20h-31l-26-1-41 35-16 35-5 21 15 10 26 25-1 25v66l5 30-11 25-21 10h-15l-51 20-26 40-32 45-36 15-10 30-6 30 10 65-10 25-16 46-6 60 5 45 10 25 5 21 15 30v40l-26 40-11 20v56l-21 40-67 19-26-10 1-15-5-20 5-25v-25l-5-36-15-30-20-15-31 15-21 50-21 40-16 40-21 80-5 46-26 35-11 40-16 35-21 75-10 20-26 40-37 40-92 55-32 90-21 86-73 120-31 55 10 36 51 25 71 31 56 15 41 46 25 61-31 45-21 25-21 30-41 25-46 4-26-5-30-20-21-6h-30l-16 25-6 35-20 46-21 20-46-1-46-15-62 40-27 75-31 95-47 90-52 76-47 44-15 36 20 30 25 30 10 26-20 20-16 20-26 25-10 30-11 30-36-6-31-10-35 5-21 15-11 20-20 30-26 45-26 30-11 30-5 50 10 31 25 35 25 10 52 1 56 10 20 21 47 5 30-20 26 5 46 6 67-5 82-9v55l-1 40-26 50-36 15-25-5-5-20-10-30-16-31-41-10-30 5-47 14-46 15-21 40 10 31 25 50 21 35 20 51 4 40h-36l-41-5-40-6-31 5-16-10-25-30-36-36-30-45-51-41-25-30-10-16-47 5-41 20-56 30-21 20-37 95-10 20-21 45-37 70-10 20-21 35-52 81-32 80 5 70 46 16 67-30 61 11 5 25-21 45 36 15 46 1 31 20 15 30 36 26 41-10 92-45v71l-31 20-47 35-62 39-35-10-36-30-41 4-21 35-31 71-36 25-26-41-4-75 5-51-35-20-46-11-62-10-87-6-88 80-31 45-57 25-41 25-31 70-37 20-35-5-21 56-11 24-16 55-31 35-26 25-21 55 21 31 41-10 46 15 4 41-15 35-26 55-21 45-1 80 82 21 41 36 35 50 61 21 41 20 10 46-26 35-36 30-41 15-41-1-31-20-61-31-41-10h-31l5-31 11-30 6-40v-25l-46 5-72 14-68 70-52 85-21 45-15 20-21 30-36 10-41-5-26 30-5 40 4 55-6 61-25 30-52 50-47 45-36 60-26-10-15-36-41-10-16 70-26 45-5 46 25 5 31 15-16 35-36 45-47 50-10 35-1 66 25 60-31 66-37 90-31 60-11 20-5 40-6 46 15 20 31 5 20 25-15 35-21 56 4 50-32 141-26 75-37 75v66l20 20 35 66v55l-6 55 10 41 30 50 21 46 20 55-1 35-26 10-15-10-35-41-21-10-20-5-16 55 15 61 4 50-15 45-42 101 9 75-5 61-16 30 4 70 10 81 40 116 30 50-52 75-46 30-52 85-47 40-66-10-47-11-35-20-25-91 1-105-5-31-5-55-19-91-66-151-35-71-81-101-51-61-56-61-60-91v-86l32-50 5-45-30-55 5-31 52-14 31-5 77 1 26-30v-31l41-14 36-15 10-25-56-41-61-31-5-50-4-66-10-10-26 20-36 45 9 56-1 100-30 10-31-20-46-16-20-15-25-86-30-60-31-36-30-25 10-35 42-55 5-15-20-31 21-45 41-50 57-15 35 11 57 5 57-24 10-36-31-15-36 10-51 4-30-30-57-31 6-45 31-35 21-15 46-4 16-26 10-40 31-9h26l10-20 11-25h36l25-5-5-30 21-30h26l26-20-16-20-40-16h-42l-35-20-5-31 41-24 47-20-5-25-87-21-10-51-31 5-16 15-10 55-27 101-52 70-47 60-36 65-31 50-36 10-5-40 21-76 11-55 6-70 11-76 57-105 67-75 52-40 37-95 41-60 41 5 46 31 62-20-15-45-46-21-76-46-10-30-15-66-10-30 51-4 21-25 97-10 16-35 36-10 36 36 51 30 41-9 26-25-21-16-61-40-61-46-71-41-15-35 25-25 42-20 15-40 21-40 62-15 46 6 46 20 51-15-9-70-46-21h-57l1-35 41-30 52-45 26-55-15-46-41 5-31 30-37 60-41 55-83 50-46 30-67 29-42 45 5 26 5 40-16 35h-15l-20-61 1-110 1-116 84-181 78-95 67-75 62-14 61 30 35 51 57-10 41-30 31 11 41 30 61 21 31-30v-45l-51-26-41-10-76-41-51-46-15-40 36-25 57-5 41 6 66 5 51 6 114-25 56-24v-36h-51l-51-16-41-5-21 20-41 30-30-30-5-31 26-20 62-60 66-14 16-70-25-51 32-55 47-85v-51h-41l-41 25-42 40-21 35-41 50-41 35-11 40-6 55-41 20-51 20-6 25 5 35-16 20-67 55-93 70-41 10-31 4-36 25-20-5 5-45 21-60 22-91-20-60 6-101 26-55 21-60 78-105 21-61 21-75 25-58 27 33 20 41 31-5-10-51-15-45-5-45 11-25 30 20 5 25 26 26 41-10 15-30 57 5 108-24 35 15 21 41h61l98-19 77-15 113 1 39-35-23-35-67-11-51-5-41-16-26 5-15 35-26 10-57-10-71-26-77-16-66-15-87-21-62-31-15 15v30l-42 5-46-5-26 35-20 10-15-46 21-65 26-45 42-85 15-35 46 45 36-40 26-5 87 87 51 20 41-30 51 11 42-35-16-31-46-20-46-15-61-21-25-76 16-55-31-5-36 15-57 55-30-6-10-35-15-56-20-35 36-20 56-45 63-70 16-60v-75l31-5 10 25 20 51-10 40 35 45 20 71h36l72 6 61 40 46 46 51 5 10-35-20-50-25-20-51-11v-55h57l46 1 25-10-25-26-20-35 20-20 62-35 77-14 57-5 5-40 31-15 62-20v-40l-51 5-57 14-128 55-93 29-72 35-26 40-31 40-10-25-20-46-5-45 26-35 31-15-36-35-61-16-41-56 6-35 21-20 5-30v-55l62 5 61 21 41 25 16-25-10-45-20-25-26-26 6-30 41-30 25 5 139 2 72-25 46 5 67 31 19 65 5 51 62 10 46 21 25-35-35-86 26-35 41 15 51 26 46 5 6-60 37-60 16-65-31 4-31 25-16 40-36 25-57-5-76-26-52 5-5-25 11-46-36-5-31 20h-30l-41-21-62 5-25-46 26-45 5-40-9-70 16-46 66-14 46 20 41 16 52-5 5-35-41-26-46-20-36-10-30-41v-35l31-25h52l36 1 15 30h41l10-25 6-30 36-45 15 30-6 45-15 46 15 25 36 5 31-50 36-15 21-45 16-50 25 10 46 81 66 21 62 15 9 46v45h36l26-50h46l37-35-16-30-71-26-46-20-46-26-77-50-66-61-35-31-77-10-47 19h-56l-46-5-26 45-21 60h-31l-4-81 15-35 31-35 68-70 36-85h46v40l20 61 52-20 5-50 16-45 31-20 36-5 26-30 16-40 30-10 16 25-1 46 20 45 16 10 30-10 26 16 30 40 36 31 41 15 31-25-10-25-25-36-46-35-26-25-40-56-10-35 26-20 46-45-10-36h-31l-45-30-122-122-57-6-41 10-72 10-20-21-5 11-6 45-21 40-26 5-30-36-5-45 6-40 15-30 42-30 51-45 37-25 36-60 26-10 41 20 25-15 6-30 15-20 21 5 15 16 36 20 26-15 20 15 20 6 31 5 5 20-16 25h-30l-47 10-31 30v15l31 30 15 35 30 21 16-10 21-50 36-35 26-10 26-5 5 20 4 40 5 36 15 25 15 35 5 31-10 40-11 40 20 25 26 5 15-20 21-20v-30l-4-55-5-40 41-10 41-5 26 5 5 25 5 36 15 25h36l15-15 6-35-5-45-15-36-20-60 10-40 26-5 20 35 46 51 35 51 31 25 41-25 6-50-30-46-16-30 21-5 41-5 11-45-10-50-20-31h-41l-42 20-61 25-36-6-5-40 11-40v-30l-15-31-10-40 26-5 15 25 15 31 25 20 46 21 21-46-45-80 11-56 20-10 41 16 36-10 5-25-20-15-46-1-56-25 15-25 21-10 5-25 16-46 41-9 5-30 21-46 21 16 5 25-1 50 10 15 31 26 15 40 4 71v50l15 10 31-30 6-60 21-25h25l31 15 46 11 62 15 31-30-21-25-61-46-41-35-20-61 47-40 21-10 56-29 57-20v-35l-25-16h-67l-72 24-57 25-62 25-25-25-10-36 32-105 31-30 6-76 36 11 20 20 46 15 56-4 21-20-41-21-51-35-46-31-5-20 16-25-31-15-71-11-32 55-46 5-61-11-10-35 46-15 36-19 31-46 51 11 62-20 32-60-11-10h-20l-67-1-51-20-77 29-83 65-35-60-41-51-61-1 4 51 26 45-16 5-26 35-82 25-113 14-61-15-47 4-20-45 16-40 98-20 51 1 31-35-56-41 57-50 25-10 63-55 78-150 56-5 5 30 25 41 67 15 82-39 52-80 42-35 82 31 46 20 71 11 82 5 67-50 37-90-4-55-20-61-31-50-40-91z"/>
<path d="m29462-5303l-5 10-67 30-21 40-20 40-6 35 20 46 5 50-26 75-32 51-26 45-46 25-46 9-57 10-56 5-41 14-1 41-5 40-21 40-26 10-26 20-51 14h-21l-57 40-46 10-25 5-41-6 15-25 47-45 62-80 36-45 47-50 21-30 26-50 36-50 26-30 42-45 31-30 36-60 16-45 21-35 25-20 31-15 62-35 62-40 21-30 10-20 16-55 6-40 10-40 16-21 10-4 26 5 36 10 30-15 31-10 16 21-16 55-52 45-31 65-11 40-16 25z"/>
<path d="m23383-5007l52-1 7 63v46l-6 45-16 40-25 20-11 5-10 5h-36l-10-36 11-40 46-45 6-60-8-42z"/>
<path d="m23173-4999l60-1 19 29 10 40-15 5-21 10-10 10-5-5-31-16-5-45-2-27z"/>
<path d="m23573-5009h5l62 8-8 12v66l-11 20-20 5-36-41 1-60 7-10z"/>
<path d="m28850-5116l36-10 36-15 26 1 26 5 15 5 10 20-21 40-41 65-16 41-26 14-31 20-21 10-30-5-26-30-25-46-25-45 5-51 26-35 41 1 41 15z"/>
<path d="m28541-4987l11 5h25l5 60 10 41 15 10 21-20 31-10 25 5 16 5 35 6 21 40 4 50-26 46-25-1-31-10-36 10-21 40-26 20-30-10-16-36-10-20-25-20-10-46-5-45-15-30-10-15-10-21v-25l31-20 21-10 25 1z"/>
<path d="m24408-4530l51-4 15 25-20 25-31 5-21-6-5-15v-20l11-10z"/>
<path d="m24498-4338l36 20v51l-26 5-51-21-56-10-26-51-9-80v-21l46-24h26l15 30v30l10 41 35 30z"/>
<path d="m28115-3778l-15 5-15-40v-50l-5-31 1-30v-20l15-25 26-20 41-20 21-25 5-35 6-30 16-35 20-35 21-35 26-20 31-40 21-35 11-26 5-30 10-25 26-45 37-45 20-15 16-10 31-10 35 31 47-5h36l20 11 5 15 5 20-11 45-46 55-57 70-78 65-67 70-52 40-78 90-36 55-31 70-53 80-10 15z"/>
<path d="m23666-3589v-20l6-36v-55l-5-30-5-10v-15l-10-5-31-6-5-5-30-35 10-30 16-15 16-35 30 25 41 46 51 35-21 25-10 15 4 35 5 51 15 50 10 35-16 36-26 35-10 35v20l15 30 30 10 16-9 20-10 21 20 10 20-11 40h-61l-31-21-36-20-20-25-20-51-5-15v-40l6-30v-10l31-35z"/>
<path d="m28039-3844l15-5 5 26 5 55 10 45-16 10-15 10h-16l-30-20-21-30-10-16-10-35 1-30 15-20h26l31 5 10 5z"/>
<path d="m28037-3657l-36 60-63 115-32 90-36 86-21 85-27 65-26 66-16 45-41 55-42 55-21 40-26 45-15 40-27 80-31 86-27 85-31 96-21 60-21 40-16 30-16 15-5 25-21 45-11 55-10 31-16 35-31-1 1-60-25-15v-20l-11-10-10-6-36 5-5-20 42-55 5-15 21-15 26-5 25-25 26-40 1-60 41-50 43-151 10-30 6-10-6-10-15-15 16-41 26-50 11-45 5-45 1-30v-56l31-5 51-9 41-20 16-5 31-25 5-45 6-50 16-31 16-45v-25l-10-30-5-20-10-21 26-24 41-30 21-81 1-60-10-30-21-1-25-10-10-25 5-20 15-15 31-20 16-25 10-10 16-20 21-20 20-10 21-5h41l10 16 20 25 10 10 16 10 15 5 10 16z"/>
<path d="m24537-3427l-10-35 31-45 15-15 16-25 25 20-5 56-16 55 5 25 10 35 15 36 20 45 5 30-31 25-31-20-15-30-5-46 1-40-30-71z"/>
<path d="m25901-3467l6-15 10-10 21-15h20l15 31 21 35-11 30-26 25-20 10-16-10-20-21-5-35 5-25z"/>
<path d="m25518-3007l-21 10-26 5-25 15-16 10-25-5-6 20-20-36-5-35v-25l11-25 31-15 36 20 20 6 10-16 11-20 21-20 30 6 11 5 15 20 20 15 5 31-16 30-30-1-31 5z"/>
<path d="m27506-2816l-15 20-11 15-5 30-20-5-16-10-35-31 10-25 11-50 36-35 5-20-4-35v-66l21-10 25 6 10 15 16 25-1 66-11 40v35l-16 35z"/>
<path d="m24901-2312l21-15h10l10-5 16 5 10 31-6 30-26 15-25 10-10-10v-16l-5-20v-15l5-10z"/>
<path d="m24909-2080l-10 30-16 15-15 10-10-20-46-21-21-5-10-40 26-30 31 10 36 5 5-20 15-5 21 5 5 25-11 41z"/>
<path d="m27391-2006l-5 30v30l-31 35-21 25-11 80-37 126-37 90-52 126-22 90-26 80-6 121-1 45-10 51-26-1-20-30-15-25-26-15-36 4-62 25-31 20-25 10-31-5-31-16-20-15-36-10-46-1-41 5h-46l-21 5-10-26-5-15 16-20 15-25 6-25 15-25 6-15 25-25 26-30 1-55-5-26 36-20 51 16 31 20 15 26 10 35-1 50-5 25 5 31 41 20 77 6 41-20 46-20 47-55 16-50 5-25 6-41-36-30-46 15-36-16-10-30-36-15h-31l-25 4-21-25 6-45v-30l-15-36-10-50 31-10 41-10 16-10 36-35 26-15 31-4 56-5 16-5 15-20v-25l-5-30-5-20 21 5 21-20 36-20 21-30 25-10 21-20 16-25 10-25 21-15h36l25 5 10 11z"/>
<path d="m21172-1153l-51-15-46-21-26-25-5-25v-10l36-25 11-20-5-20-41-16-15-40-5-50 1-46 15-20 41 21 51 81 35 55 51 56 30 35 16 16-37 55-56 14z"/>
<path d="m26686-1106h30l21 6 15 10 26 5 10 5 15 15 10 26 21 15 20 5 31-10 16-10 10-10h15l36-15 16 1 20 15 5 15-10 25-6 45 10 41 20 35 15 20v20l-15 15-36 10-21 10-15-5h-16l-25-25-15-21-26-15-25-10-36-1-41 5h-47l-41 10-30-1-21-5-20-10 15-35 16-30 11-25 15-25v-21h-15l-26-5-25-5-10-15v-20l10-20 36-5 21-5 36-5z"/>
<path d="m26689 178l-20-1-5-35 6-25 10-5 10-25 16-35 11-35 15-25-10-26 11-60-5-40 1-41 10-20 11-40 10-20-5-30-5-20-10-15-15-11h-57l-46-5-41 9-30-15-31-5h-26l-41 14-16 26-10 45-11 50-21 25-36 10-25-21-36-5-21 5h-30l5-30 21-20 21-40 5-15-10-16-26 10-15 10-36 5-21-5-5-31 1-35 10-35 5-10 21 25 46-9 31 10h46l36-20 5-15v-15l-36-10-56 5-41-16-31-15-15-20-5-26 1-30 5-40 6-30 20-25 11-25 5-10 15 20 20 30 46 46 15 25 21 26 20 25 20 20 26 10 20 1 26-5 21-5 15 5h56l36-9 11 5-1 15 10 35 31 10 21-20 41-19 51-15 26-25 6-20-5-35-5-36v-35l11-25 5-5 10-15 21-25 10-10 6-15 15-20 31-25 11-15 5-10 41 5 36 1 25-10 26-15 31-20 11-20v-25l-5-26-5-15 11-35v-20l10-10 46 15 31 1 31-5 20 5 10 25v36l-6 35-5 50-16 25-31 40-31 85-47 96-27 55-26 55-10 35-16 30-26 60-31 56-27 85-31 80-27 70-41 66-21 40-31 30-21 15-21 30-31 30-26 15z"/>
<path d="m26713-144v45l-1 15 5 45-21 10-25 20-21 30-16 10-15 5h-10l-31-35-10-21-10-40-25 5h-16l-41-11-15-35 11-40 36-20 26-20 15-20 6-35 5-10 10-30 1-20 31-5 51-5h31l20 6 36 10v35l-26 30-1 25-5 25 5 31z"/>
<path d="m21194-95l18 9 37 21 26 34 20 27 20 50 35 56 17 25 34 51 10 20 30 55 25 36 21 40 5 20-16 15-5 5-16-16-25-24-12-16-23-30-36-25-36-5-25-36-46-5-36 15-41-11-21-5-40-31-36-5h-41l-16-10 11-26 10-24 13-37 8-24 11-30-5-45-25-31-15-30 15-30 52-20 51 11 47 26z"/>
<path d="m26423 191l-36 14-26-10-31-5h-20l-16-5 6-10v-21l41-19 46-10 36-25 21-10 26-20h41l20 6 10 35v70l-11 20-20 5-21-15-5-15-10-15-31 10-20 20z"/>
<path d="m26212 254v21l-6 30h-26l-25-26-25-30-10-15 10-25 16-20h41l15 5 5 15v20l5 25z"/>
<path d="m26442 271l16-10 15-5 11 6 20 15 5 20-5 20-31 30-11 35-26 15h-51l-41-11-21-5-25-25v-51l31-9 41-10h67l5-15z"/>
<path d="m26300 1262l-36 20-41-1-5-40 21-35 16-20 5-25 5-35 22-76 36-40v-65l32-91 5-30 16-50 11-30 21-30 10-35-41-26-30-10-16-15 6-15 25-15 67 10 41-9 26-10 11-51-26-30-20-20-10-15 26-20h46l26-5 25-15 26-25 16-25 31-25 31 6-1 50-26 65-6 35 21 31 4 65-26 35-5 15-10 10-11 10-10 10-16 10-10 15-15 10-26 35-26 40-42 70-32 96-26 65-26 55-26 60-37 86-26 30z"/>
<path d="m26106 651l25-10v61l-16 35-31 5-5-31 1-20 15-30 11-10z"/>
<path d="m25430 1104l-1 15-25 15-31-5-21 5-31 5-20-1-11 25-5 31-10 10-16 5-15-6-20-20-16-25-15-20-41 9h-36l-10-10v-45l26-40 21-31 37-60 5-5 31-14 31-10h20l21 10-16 30 5 30-6 25-5 31 36 15 36-20 15 5 46 16 16 5 5 25z"/>
<path d="m26096 1099l11-30 30 20 15 41 10 40 5 40-15 20-26 10-31-15-5-10-10-36 6-35 10-35v-10z"/>
<path d="m25634 1141l36 5 26-5 20 16 5 10v20l-21 30-51 5-41-16-21 20-31 30-25-5-26-20-10-26-5-20-5-15 1-35v-10h15l31 10h51l51 6z"/>
<path d="m25620 1614l-6 35-5 35-16 30-10 25-21 25-26 61-6 40-5 15 5 10v10l-25-30-46-11-16-25-5-20 37-45 41-30 41-25 6-45 5-51-4-30-10-85 6-31 15-50 6-60 11-50 10-20 21-25 31-5 20 15v45l-21 25-26 45-11 41 5 70-1 76v35z"/>
<path d="m24766 1914l36-9 36-61 21-85 17-100 15-56 6-60 36-45 27-50 20-15 21-25 21-30 10-15 5-5h21l15 35 30 61 25 61v75l-32 40h-35l-36 5-21 14 5 31 10 20 31 5 15 25 4 51 15 35 11 15-1 20 5 16v20l5 15v10l-26 20-31 60-32 90-16 71-20 35-41-11-57-15-97 19-57 15-36-20-15-41 26-35 26-40 21-60 6-40 11-46z"/>
<path d="m25727 2178l-51-10-4-45 20-15 52-15 46-20 21-20 15-40 21-35 16-25 51-30 31-25 6-55 11-50 21-51 52-65 57-50 41-19 41-20-10-61-25-40-5-40 16-15 30 10 21 20 20 5 57 11h25l10 15-31 30-36 15-6 81-62 70-72 49-52 45-47 60-31 65-21 41-15 30-47 24-26 20-10 61-42 45-46 19-42 30z"/>
<path d="m25840 1661l36-10 10 10 20 36 10 35v35l-36 20-26-5-10-36-15-30 6-35 5-20z"/>
<path d="m25198 1706l11-5h10l15 11v30l-21 45-21 55-26 50-21 10-15-15-10-30-10-26 21-25 31-30 10-40 11-10 15-20z"/>
<path d="m25670 1745l21-20 20-20h41l5 21v55l5 30-11 35-31-5-10-15h-25l-42-1-5-10-10-25 11-15 31-30z"/>
<path d="m24600 2039l6-20 5-30 5-15 11-15 25 5 16 15-1 30-6 81-21 60-10 25-21 35-31 5-25-25-10-21 26-35 10-25 5-15 11-30 5-25z"/>
<path d="m24967 2278l16-20 31-35 10 5 15 21v45l-21 30-5 60 35 46 45 106 5 45-5 25-42 25-72 10-66 14-36 25-16 40-11 76-11 65-27 90-15 20-10 21-6 45 30 60 20 31 16 15 20-10 21-15 5-25 6-25v-30l16-20 20-5 15 10 21 25-6 46-16 25-36 45-16 60 10 40 41 31 15 20v30l-47 55-37 85 5 31v55l-16 25-5 20 36 26 20 25 10 30-6 25-10 25-46 5-31 5h-21l-5-15 21-36-5-30-20-50-25-56-20-40-10-35-20-61-25-15-11 15v55l-1 76-16 120-11 50-11 41-31 9-4-45 5-75-9-51-20-40 57-151 6-50 5-40 1-30 37-101-5-35-36-76-14-55-26-31-36 10-41-10h-25l-5-26 10-30 1-40-5-20-15-36v-20l21-45 25-10 42-9 114-221 11-45 16-55 16-46 21-25 31-35 36-35 46-14 41-5 41-10z"/>
<path d="m25630 2741l-26 10-36-5-15-25 6-41 5-30v-30l-25-10-41-11-15-20 5-25 31-30 21-70-4-41-11-25 1-20h36l15-20 11-25 10-35 11-20 5-20 21-5 25 25-6 56-26 85 25 46 20 80-1 56-15 55-27 95z"/>
<path d="m25163 2260l35 45 36 21 51 20 20 20-21 25 5 41v50l-21 30-36 15-102-102 42-40-36-55-5-20 1-31 31-19z"/>
<path d="m24587 2336l11-10 31-15 20-10 16 5 4 25-10 20-1 56v35l5 20v15l-21 15-25-35-15-41v-40l-5-20-10-20z"/>
<path d="m25570 3088l-35-20-47 24-15 15-41-5h-46l-57 35-52 29-56-5-25-51-5-20 10-30 6-35 5-25 16-15 36-15 36 5 20 16 36-10 10-5 46 10 46 1 36-10 6-20v-20l5-31 36-14 31 5 10 10 26 10 20-5 11-5 10 11 5 15-52 24v46l-1 65-31 20z"/>
<path d="m20374 3154l-11 5v60h-26l-41-20-51-6-46-15-31-21-25-30 10-25 16-15h46l52 1 51-15 36-10h26l20 21-6 50-20 20z"/>
<path d="m25208 3428l-26 9-31 30-21 96-20-5-36-21h-57l-30 10 31-45 26-56 16-40v-55l-10-20 5-15 42-20 20 10 15 20 26 26 41-10 16-60 5-20 51-10 31-5 77-25-10 36-16 40-16 45-51 10-26 40-52 35z"/>
<path d="m25455 3404h-21l-20-10-10-25v-20l16-46 21-35 10-10 26-5 4 26v50l-21 50-5 25z"/>
<path d="m25372 3479l-16 55-52 86-52 54-36 40-37 66-26 35-31 30-25 4-11-5 22-80 5-55 1-56v-40l26 30 25 26 21-20-10-30 51-30 37-40 31-40 10-25 6-31 25-24 21 15 15 35z"/>
<path d="m25014 3944l-52 55-36 35-37 50-26 61-47 55-46 40-77 49-77 10-42 14h-20l-21-10-20-10 21-45 52-35 25-20 16-60 6-30 10-46 42-19 56 5 51 5 36-24 31-25 31-30 37-50 15-25 36-15h31l10 25-5 40z"/>
<path d="m24219 4467v35l-57 5-46 4-61-25-26-11-20-10-5-20v-30l47-55h51l25 21v20l36 30 36 21 20 15z"/>
<path d="m24361 9018l-15 10-21-5-20-16 11-30v-25l5-20 5-15-4-20v-25l10-20h57l20 10 31 21 10-5 26 5 15 10 15 20-16 25h-20l-26 5h-25l-31 10-6 20v20l-21 25z"/>
<path d="m24535 9049l26 21 15 30 15 25 15 46 15 30 10 35 5 41 15 65 15 41-1 35-25 10-26 10-31 4-26 20 5 26 20 20 26 25 5 35-16 25-36-15-41-20-20-11-10-20-5-5-10-45-10-20-15-41-15-25-10-30-5-46 6-30 20-5 10 25 10 31 10 25 21 10 20-5v-25l-10-30-14-61-10-60 10-25 21-20 16-20v-35l5-41z"/>
<path d="m24319 9194l10-25 36-10 16-5 15-10 21-40-11 50-21 40 10 20-10 20-21 10-20-5-15-5-10-40z"/>
<path d="m24360 10306l-11 36-16 20-10 25-11 45-15 30-41-20-26-11-10-25 16-30-20-25-15-56 21-40h35l42-9 20-10 36-30 31-20 31 10 5 35-16 15-25 15-6 15-15 30z"/>
<path d="m24360 10558l-13-30 6-15 15-25 21-10 21-35 26-30 20-20 36-5 62 11 61-10 41-10 16-25 16-45 10-25 11-20h36l20 10-26 91-11 25-31 60 9 50 21 45-115 4-252 9z"/>
</g>
<clipPath id="state_clip_path">
<use xlink:href="#state_outline"/>
</clipPath>
</defs>
<use xlink:href="#state_outline" transform="translate(1615 46.592)" height="32467" width="74862" stroke="#003D7F" stroke-width="5" y="0" x="0" fill="#003D7F"/>
</svg>