<?xml version="1.0" encoding="utf-8"?>
<!-- Generator: Adobe Illustrator 21.1.0, SVG Export Plug-In . SVG Version: 6.00 Build 0)  -->
<svg version="1.1" baseProfile="basic" id="Layer_1"
	 xmlns="http://www.w3.org/2000/svg" xmlns:xlink="http://www.w3.org/1999/xlink" x="0px" y="0px" viewBox="0 0 1260 585"
	 xml:space="preserve">
<style type="text/css">
	.st0{fill:#003D7F;stroke:#003D7F;stroke-width:5;}
	.st1{stroke:#003D7F;stroke-width:2;}
	.st2{stroke:#FFFFFF;stroke-width:2;}
</style>
<g >
	<g id="state_outline">
		<path class="st0" d="M888.3,45.8l0.5,0.1l0.5,0.1l0.3,0.1l1.5,0.3l0.8,0.1l0.7-0.2l0.5-0.2l0.3-0.3l0.4-0.3l0.4-0.2h0.3l0.5,0.3
			l0.3,0.3l0.2,0.2l0.2,0.2l0.4,0.4l0.4,0.4l1,0.6l1.4,0.6l1,0.4l0.3,0.1l1.6,0.4l1.9,0.4l1.7,0.3l1.5-0.1l0.5-0.2l0.4-0.2l0.6-0.3
			l0.1-0.1l0.5-0.1l0.6-0.2l0.7,0.3l0.4,0.4l0.3,0.6l0.1,0.3l-0.1,0.5l0.1,0.5l0.2,0.8l0.3,0.5l0.4,0.6l0.3,0.5l0.2,0.3l0.2,0.4
			l0.1,0.1l0.3,0.4l0.5,0.7l0.1,0.2l0.2,0.3l0.1,0.2l0.1,0.2l0.1,0.2l0.3,0.3l0.3,0.2l0.1,0l0.6,0.1h0.1l0.1,0l0.3,0l0.2,0.1
			l0.4,0.2l0.3,0.2l0.8,0.4l0.7,0.3l0.4,0.2l0.7,0.3l0.3,0.1l0.2,0.1l0.5,0.2l0.7,0.4l0.7,0.5l0.2,0.3l0.5,0.6l0.7,0.7l0.3,0.3
			l0.3,0.2l0.4,0.3l0.5,0.3l0.6,0.6l0,0.7v0.6l-0.2,0.4l-0.2,0.4l-0.4,0.4l-0.7,0.7l-0.2,0.3l-0.2,0.3l-0.2,0.3l-0.1,0.7l0,0.6v0.5
			l-0.1,0.5l0,0.1l-0.3,0.5l-0.4,0.4l-0.6,0.3l-0.7,0.4l-0.4,0.2l-0.3,0.1l-0.5,0.2l-0.4,0.2l-0.7,0.3l-0.5,0.4l-0.3,0.3l-0.1,0.1
			l-0.2,0.4l-0.2,0.2l-0.2,0.4l-0.2,0.9l-0.3,1.3l-0.2,1.1l-0.2,1l-0.2,0.9l0,0.8l0,0.5l0.1,0.5l0.2,0.7l0.3,0.5l0.1,0.2l0.3,0.5
			l1,0.8l0.2,0.1l0.4,0.2l0.3,0.1l0.3,0.1l0.4,0.1l0.3,0.1l0.2,0.1l0.3,0.2l0.5,0.2l0.1,0.1l0.3,0.1l0.4,0.2l0.5,0.6l0.9,1.3l0.7,1
			l0.5,0.9l0.2,0.5l0.1,0.2l0.3,0.9l0.3,0.5l0.6,0.8l0.2,0.3l0.2,0.2l0.6,0.2l0.8,0h0.8l1.3,0.2l1.6,0.2l1,0.1l0.3,0l2,0.5l1.6,0.3
			l1.9,0.1l2,0.1l1.1,0h0.4l1.1,0.1l0.4,0.1l0.3,0l0.6,0.1l0.1,0l0.9,0.3l1.3,0.5l0.7,0.2l0.2,0.1L948,96l0.3,0.1l0.4,0.3l0.7,0.6
			l0.1,0.1l0.7,0.7l0.6,0.5l0.6,0.5l0.1,0.1l0.5,0.4l0.4,0.1l0.6,0.2l0.5,0.2l0.7,0.3l0.4,0.2l0.2,0.1l0.4,0.3l0.4,0.4l0.3,0.5
			l0.1,0.6l0,0.4l-0.1,0.5l-0.2,0.5l-0.2,0.6l-0.1,0.2l0,0.3l-0.1,0.2l-0.1,0.9l0,0.8l0.2,0.9l0.5,0.9l0.7,0.5l0.8,0.7l1.1,0.6
			l0.2,0.1l0.3,0.1l0.5,0.1h0.6l0.7,0.1l0.6,0.2l0.3,0.2l0.6,0.3l0.8,0.3l0.4,0.1l0.3,0.1h0.3l0.4,0h2.1l1.1,0.1h0.3l0.7,0.1l0.1,0
			l0.9,0.5l0.2,0.2l0.2,0.3l0.6,0.7l0.1,0.1l0.5,0.6l0.2,0.4l0.1,0.3l0.1,0.4l0,0.1l0.3,0.5l0.2,0.3l0.2,0.3l0.2,0.2l0.3,0.4
			l0.3,0.5l0.1,0.1l0.3,0.4l0.5,0.8l0.9,1.3l0.9,0.7l0.6,0.8l0.4,0.5l0.1,0.2l0.5,0.6l0.6,0.4l0.6,0.3l0.7,0.2l0.5,0.2l0.7,0.5
			l0.7,0.5l0.3,0.4l0.4,0.6l0.3,0.3l0.5,0.7l0.6,0.6l0.8,0.7l0.4,0.5l0.5,0.8l0.1,0.3l0.2,0.7l0.2,0.5l0.2,0.7l0.3,0.5l0.2,0.5
			l0.1,0.7l-0.1,0.4v0.3l-0.2,0.6l-0.1,0.2l-0.2,0.3l-0.3,0.2l-0.2,0.1l-0.2,0.1l-0.2,0.2l-0.1,0.3l0.1,0.6l0.2,0.9l0.2,0.9l0.2,1.7
			l0.1,1.4l-0.1,1.8l-0.1,1.8v0.4l-0.1,2.8v0.8l0,1l0.1,2.5l0.1,1.8l0.1,2.1l-0.3,1.3l-0.3,1l-0.4,0.6l-0.6,0.5l-0.4,0.3l-0.6,0.2
			l-0.6-0.1l-0.7-0.1l-0.6-0.1h-0.3l-0.5,0.1l-0.4,0.2l-0.4,0.3l-1,0.7l-1.9,0.3l-0.9-0.3l-1-0.9l-0.7-0.5l-0.4,0.6l0.2,0.7l0.2,0.7
			l0.6,0.6v0.8l-0.3,0.4l-0.3,0.6l-0.1,0.8l-0.2,0.2l-0.4,0.7l-0.1,0.2h-0.3l-0.6,0.4l-0.9,0.3l-0.9-0.3l-1.1-1.1l0.1-1.2l-0.1-0.8
			l-0.3-0.7l-0.5-0.3l-0.7,0l0.7,1l-0.4,1.4l-1.8,0.4l0.1,0.4l0.8,0.3l0.6,0.4l0.7,0.9l0.7,0.4l0.7,0.8l0.4,0.7l0.1,0.8l1.1,0.4
			l0.6,0.4l0.6,0.5v0.3l0.3,0.8l0.2,0.5l0.2,0.6l-0.1,0.4l-0.2,0.3h-0.6l-0.8-0.1l-0.7,0.1l-0.4,0.1l-0.3-0.2l-0.3-0.1l-0.2-0.4
			l-0.1-0.3h-0.6l-0.4,0.2l-0.4,0.4l-0.3,1.3l0.1,0.9l-0.4,0.2l-1.6,0.7l-1.6,0.6l-1.1,0.3l-0.5-0.5l-0.1-0.8l-0.4-0.5l-0.5-0.8
			l-0.4-0.5l-0.2-0.6l0.6-0.7l0.3-0.4l0.6-0.1l0.6,0.1l0.4-0.2l0-0.8l0.6-0.3v-0.7l-0.3-0.6l-0.4-0.3l-1.3,0l-0.9,0.1l-1.2,0.3
			l-0.8-0.7l-1.1-0.3v0.3l0.2,0.5l0.6,0.5l0.5,0.5l0.1,0.6l-0.1,1l-0.6,0.6H958l-0.7,0.1l-0.8,1l-0.5,0.9l0.9,1.7l-0.4,1.5l-0.3,0.3
			l-0.4-0.2l-0.6-0.3l-0.2,0.8l0.6,0.8l0.5,0.3l0.2,0.1l0.3,0.7v1.2l-1.1,1.4h-0.6l-1.2-0.4l-0.4-0.1l-0.3,0.4l1.3,0.9l0.2,0.1
			l0.2,0.2l0.1,0.9l0.5,1.3l0.3,0.9l-0.4,0.8l-0.5,0.4l-1,1l-0.6,0.8l-0.2,0.7l-0.1,0.3l-0.8-0.1l-0.7-0.7l-0.7-0.6l-1.2-1.1
			l-0.7-0.8l-0.4-0.1v0.7l0.5,1.1l0.2,0.4l0.2,0.6l0.8,0.5l0.4,0.6l0.4,0.8l0.9,1.3l0.2,0.7l-0.1,0.3l-0.7,1.2l-0.7,1.3l-0.5,0.8
			l-0.6,1l-0.5,0.8l-0.3,0.7l-0.3,0.9l-0.3,0.8l-0.1,0.5l-0.2,0.3l-0.1,0.8l-0.2,1l-0.3,1.2v1.3l0,0.9l-0.1,1.5l0,1.5l0.1,1.2
			l0.2,1.3l0.3,1.2l0.6,1.8l-0.1,0.4l-0.1,0.7l-0.4,0.3l-0.7-1.1l-0.9-0.7l-0.5-1l-0.2-0.4l-0.5-0.6l-0.2-0.9l-1.3-0.3l-0.1-1.1
			l-0.3-0.1l-0.5-0.5l-0.7-0.6l-0.9-0.5l-1.2-0.6l-0.3,0.2l0.2,0.7l0.2,0.5l0.4,0.6l0.9,0.2l0.5,0.2v0.5l0.3,0.8l-0.1,0.8l0.6,0.9
			l0.2,0.4l0.2,0.5l0.6,0l0.6,0.6l0.4,1.2l2.6,1.7h0.8l0.2,1l1.4,1.2l0.4,0.5l0.4,0.3l0.3,0.4l0.4,0.6l0.3,0.4l0.4,0.9l0.2,0.7
			l-0.3,0.5l-0.5,0.3h-0.7l-0.5-1.4h-0.3l-0.3,0.8l-0.4,0.7l-1.3,0.3l-1.2,0.2l-1.1-1l-0.5-0.2l-0.5,0.3l-1,0.8l-1-0.2l-0.8-0.3
			l-0.8,0.2l-0.1,0.5l0.3,0.4l0.5,0.3h0.5l0.7,0.4l0.8,0.1l1.2-0.6l0.5,0.3l1,0.9h0.5l0.6,0.1l1.9-0.7l1.9,0.1l1.8,0.1l0.7,0.9
			l0.6,0.3l0.9,0.4l1.7,0.2l1.9-0.2l1.4-0.4l0.9-0.5l1.1-0.5l0.9-0.3l1.1-0.3l1-0.1l1.4-0.1l1.3-0.2l0.8-0.3l0.7-0.5l0.7-0.8
			l0.7-0.8l0.4-0.8l0.6-0.8l0.8-0.4l0.7-0.2l1.1-0.2l1.5-0.1l1.6,0h1.8l0.5-0.1l0.8-0.4l0.5-0.3l1-0.8l0.3-0.4l0.3-0.6l0.3-0.8
			l0.7-1.2l0.8-0.9l0.5-0.3l0.7-0.3l0.8,0.1l0.6,0.3l0.7,0.8l1.2,1.4l0.9,0.9l0.5,0.6l0.3,0.5l0,0.7l-0.2,0.5l0,0.7v0.7l0.1,0.8
			l0,0.9v1l0,1v0.5l0.1,0.8l-0.1,0.8l-0.3,0.7l-0.6,0.7l-0.3,0.6l-0.4-0.4l-0.6,0.3l-0.4,0.3l-0.6,0.1l-1-0.6l-1.3-0.4l-0.5,0.3
			l-0.2,0.4l-0.8,0.1v0.7l-0.1,1l-0.5,1.2l0.2,0.3l0.8-0.7l0.3-1.2l0.4-0.2l1.2,0.9l1.1,0.3l0.8-0.4l0.5,0.1l0.6,0.5l0.1,0.4
			l0.3,0.5l0.7,0.7l0.3,0.3l0.8,0.7l1,1.3l0.8,1.4l0.8,0.5l1,0.2l0.7,0.2l0.7,0.5l0.7,0.5l0.7,0.7l0.9,1.5l0.4,1.2l0.1,1.1l0.1,1
			l-0.2,0.8l-0.4,0.9l-0.4-1.2l-0.7-2.4l-0.7,0.3v0.8l0.2,1.6l0.4,1.2l0.6,1.3l0.4,0.8l-0.4,1.3l-0.2-0.1l-0.9-0.9l-0.6-0.1
			l-0.5,0.2l-0.3,0.6l-0.6,0.5l-1.1,0.1l-0.7,0.3l0.1,0.4l0.6,0.1l0.7,0.2l0.4,0.3l0.9-0.4l0.2-0.6l0.4,0.1l0.4,0.3l0.2,0.5l0.3-0.1
			l1.5-0.1l0.8-0.8l0.8-0.2l0.2,0.2l1.2,0.7l0.8,0.2l1.1,0.2l1,0.3l0.3,0.2l0.2,0.4l0.2,0.7l-0.3,0.7l-0.3,0.3l-0.2,0.7l-0.2,1
			l0.2,0.3h0.7l0.7-0.7l0.3-1l0.4-1.2l1,0.8l0.9,0.9l1.2,1.1l0.7,0.6l0.7,0.3l0.7,0.1l0.6-0.1l0.5,0.1l0.5,0.3l0.4,0.3l0.9,0.3
			l1.5,0.6l1.3,0l1.1-0.3l1-0.3l1.3-0.4l1.3-0.2l1.6-0.1l2.2,0.2l-0.4,0.7l-0.1,0.7v1l0.8-0.1l0.4,0.3l0.3,0.4l-0.2,0.5l0.2,0.3
			l1,0.6l0.2,0.6l0.2,0.6l0.2,0.9l1.2,0.1l1.7-0.1l0.4,0.5l0.5,0.8l0.1,0.9l0.6,1l-0.3,1l-1.3,0.1l-1.3,0.2h-1.1l-0.7,0.5l0.1,0.5
			l0.7,0.2l1.2,0.1l0.7,0.6l-0.4,1.6l0.1,0.8l0.1,0.8l0.5,0.8l1,0.3l1,0.2l0.7,0.4l0.7,0.5l0.9,0.4l0.7-0.3l-0.4-0.4l-0.6-0.5
			l-1.7-1.1l-1.2-1.2l-0.3-1.6l0.3-0.8l1.7-0.6l0.9-0.9l0.3-1.2l-0.1-1.8l-0.5-0.7l-0.7-0.9l-0.4-0.8l0.2-1h0.6l1.2,1.4l0.7,0.4
			l0.9,0.6l0.8-0.3v-0.6l-0.5-0.3l-0.9-0.2l-0.6-0.2l-0.2-0.8l-0.2-0.6h-0.4l-0.5-0.3l0.3-0.5l0.2-0.5l0.3-0.5l0-0.7l0.1-0.5h0.4
			l1.3,0.1l0.8,1.1l2.6,1.4l1.2,2l1,0.6l1,0.8l0.5,2.2l0.5,0.2l0.2-0.8l-0.1-3.1l-0.7-1l-0.2-0.5v-1.2l0.4-0.3l0.2,0.2l0.6,0.1
			l1.6,0.2l0.7,0.3h0.7l0.1,0.3l-0.3,0.5l0.2,0.4l0.2,0.5l0.4,0.8l0.5,0.5l0.2,1l0.2,0.4v0.5l-2,1.3l-0.2,0.6l1.3-0.3l0.6,0.4l1,0.9
			l1.2,0.7l1,0.4l0.9,0.7l1.3,0.8l1.6,0.7l1.5,0.9l1.4,0.9l0.4,0.3l0.1,0.5l0,0.8l0.4,1.2l0.4,0.8l0.5,0.7l0.7,0.9l0.2,0.4l-0.2,0.7
			l-1.2-0.8l-0.8,0.3l-0.3,1l-0.8-2.2l-0.2-1l-0.3-0.8l-0.7-0.4l-0.3,0.6l-0.1,1.2l-0.2,0.8l-0.8,0.3l-0.4,0.3l0.8,0.5l0.9,0.6
			l0.5,0.5l-0.1,0.4l-0.6,0.6l-0.5,0.6l-0.2,0.8l0.5,0.4l0.9-0.3l0.4-0.3l0.3,0.2l0.2,0.9l-0.6,1l-0.9,0.5l-0.8,0.2l-0.8,0.4
			l-0.6,0.7l-0.4,0.7l0.6,0.4l1.1-0.5l1.2-0.8l0.8-0.8l0.3,0.4l-0.2,0.7l0.1,0.5l0.5,0.8l0.4,0.7l0.7,0.4l0.3-0.5l-0.1-0.5l-0.1-0.8
			l-0.3-0.5l0.1-0.8l0.5-0.1l0.9-0.7l-1.2-0.6l-0.2-0.7l-0.3-0.9l0.3-0.5l0.6,0.3l0.7,0.4l1.6-0.8l0.2,0.2l0.6,0.3l0.8,0.3l1.5,0.5
			l1.6,0.4l0.8,0.1l0.5,0.3l0.3,0.3l0.3,0.4l0.4,0.6l0.2,0.8l0.1,0.5l-0.4,0.6l-0.7,0.1l-0.8-0.9l-0.9,0.4l-1,0.4l-1.1,1.1l-1-0.1
			l-0.2,0.4l1,0.4l-0.1,0.8l-1.2,0.3l0.3,0.9l1,0.2l0.7-0.6l0.3-0.8l0.3-0.2l1-0.7l1.3-0.3l0.2,0.8l0.1,1.1l0.7,0.5l-0.6,0.8
			l-1.1-0.2l-0.5,1.6l-0.2,0.5l-0.5,0.3l-0.4,0.2l0.3,0.7l0.4,0.7l0.1,0.3l-0.2,1.2l0.1,0.9l0.7,0.1l0.6-1.3l0-1.2l-0.1-1.1l0.2-0.6
			l0.8-0.4l1.5-0.9l0.6-0.9l-0.1-0.8l-1.2-1.1l-0.2-0.7l1.3,0.1l1-0.3l0.8,0l0.3,0.6l0.1,0.5l-0.2,0.9l-0.4,0.7l-0.5,0.4l0.3,0.3
			l0.5-0.2l0.6-0.4l0.7,0.3l-0.2-0.6l0.2-0.6l1,0.5l0.3,0.7l0.5,0.7l0.5,0.4l0.8,0.4l0.8,0.3l0.9,0.3l1.2,0.3l0.3,0.4v0.5l-0.2,0.2
			l-0.2,0.3l-0.7,0.3l-0.5,0.2l-0.1,0.5l0.2,0.5l0.4,0.2l0.7-0.2l0.7-0.2l0.2,0.4l-0.1,0.4l-0.1,0.8l-0.2,1.3l0.4,0.5h0.6l0.5-0.6
			l0.5-1.1l0-0.8l-0.3-0.6l-0.2-0.4l-0.3-0.7l0-0.8l0.2-1.1l0.6,0.2l1.9,0.5l1,0.4l-0.5,0.5l-0.3,0.8l0.1,0.6l0.5,0.3l0.5-0.4
			l0.4-0.8l0.3-0.4l1.7,0.9l0.7,0.4l-0.2,0.8l0.5-0.2l0.5-0.3l0.3,0.2l1.8,1.1l2,1.2l1.7,1l1.5,0.7l1,0.5l1.1,0.8l0.2,0.2l0.2,0.4
			l0.2,0.4l-0.1,0.3l-0.1,0.4l-0.1,0.3l-0.6-0.2l-1.3-0.9l-1.1-0.3l0.4,0.6l0.6,0.3l0.2,0.3l0.4,0.3l-0.3,0.6l-0.5-0.1l-0.2-0.6
			l-0.4-0.2l-0.3,0.2l-0.8-0.2l-0.2-0.4l-0.3-0.6h-0.2l-0.8,0.4l-0.1-1l0.2-0.5l-0.3-0.4l-1.1-0.5l-1.2-0.3l-1.1,0l-0.7,0.3l0.6,0.4
			l1.2,0.6l0.2,0.5l-0.2,0.5l-0.2,0.5l0.5,0.3l1,0.2l0.5,0.4l0.7,0.5l0.1,0.6l-0.4,0.8l0.2,0.6l0.7,0.3l0.6-0.2l0.3-0.8l0.3-0.6h0.4
			l0.2,0.4l0.1,0.6l-0.5,0.5l-0.4,0.7l-0.1,0.6l0.8,0l1-0.2l0.6-0.6l0.2-0.8l-0.1-1.2l0.7-0.6l1.2-0.6l0.3,0.2l0.3,0.6l-0.2,0.2v1.1
			l0.2,0.5h0.5l0.3-0.3l0-0.9l-0.3-0.4l0.3-1l1,1.3l-0.2,0.5l-0.2,0.6l-0.1,1l-0.7,2.2l-0.4,2.5l0,1.8l-0.6,2.5l-0.8-1.2l-0.6,0.3
			l-0.1,0.5l0.2,0.9l-0.3,1.2l-0.8,0.6l-0.9,0.4l-0.9-0.2l0.2-0.9l0.4-0.4l0.7-0.4l0.4-0.6l-0.3-0.7l-0.2-0.5l0.1-0.7l0.4-0.8l0-0.6
			l-0.4-0.8l-0.7-0.9l-0.7-0.5l-0.8-0.2l-0.4,0.3l0.2,0.8l0.2,0.3l0.6,0.7l-0.4,0.7l0.1,0.6l0.1,0.5l0.2,0.8l-0.3,1.3l-0.6,0.5
			l-0.4-0.1l-0.3-0.8l0.1-1.3l-0.2-0.6l-0.8,0.1l-0.4,0.1l-0.1-0.5v-0.5l-0.3-0.3l-0.5,0.1l-0.6-0.2l-0.3-0.3l0.1-0.9l0.4-0.8
			l-0.7-0.3l-0.2,0.2l-0.3,0.5l-0.3-0.2l-0.5-0.2l-0.6,0.3l-0.7,0.1l-0.3-0.5l-0.1-0.8l-0.5,0l-0.5,0.8l-0.2,0.4l-0.7-0.2l-0.8-0.6
			l-0.4-1l-0.2-0.5l-0.7-0.3l-0.4-0.3l-0.7-0.4l-0.8,0.2l-0.7-0.7l-0.2-0.8l-1.8,0.5l-1.4,0.3l-2-0.1l-1.1-0.2l-0.5-0.7l-1.1-0.2
			l-0.3,0.6l-0.1,0.8l0.2,0.4l2.1,0.4l2.9,0.5l2.5,0.8l1.1,0.4l0.1,1.1l-0.5,0.3l-0.9,0.1l-0.9,0.1l-0.1,0.7l0.5,0.7h0.9l0.9-0.2
			l1.1-0.7l1-0.2l0.7,0.4l0.1,0.4l-0.1,0.5l0.2,0.4h0.3l0.6-0.8l0.4,0.3l0.3,0.8l0.3,0.6l0.4-0.3l0.2-0.9l0.1-0.8l0.3-0.5l0.7,0.3
			l0.5,0.4l0.6,0.6l0.1,0.6l-0.4,0.4l-0.3,0.4l0.7,0.6h0.7l0.2,0.5v0.2l-0.3,0.1l-0.6,0.1l-0.3,0.7l0.1,0.6l0.4,0.4l0.8,0.3l0.9-1
			l0.7,0.4l0,0.4l-0.1,0.5v0.8l-0.2,1.4l-0.3,0.2l-0.5,0.1l-0.3-0.6l-0.6-0.1l-1.1,0.2l-0.7-0.1l-0.7-0.3l-0.7-0.3l-0.7-0.5
			l-0.2,0.2l-0.4,0.5l-0.4,0.8l0.4,0.4h0.7l0.7-0.3l0.6,0.2l0.1,0.4l0.2,0.4l0,0.4l0.7,0.1l1-0.3l0.8,0l0.2,0.3l0.3,0.3l0.5,0.7
			l0.4-0.3l0.1-0.5l0.3-0.8l0.6,0.1l0.3,0.4l0.7,0.2l0.8-0.2l0.7,0.2l0.1,0.2l0.2,0.8l0.4,0.6v0.5h-0.7l-0.7-0.4l-0.5-0.3l-0.3,0.3
			l-0.3,0.3l-0.5-0.2l-0.4,0.5l-0.1,0.5l0.6,1v0.9l-0.6,0.1l-0.2-0.3l-0.2-0.5l-0.6-0.6l-0.5,0.2l-0.3,0.8l0.2,0.8l0.7,0.4l0.7,0.4
			l0.2,0.3l-0.3,0.5v0.6l0.4,0.4l0.7,0.6l0.7,0.8l-0.3,1.1l-0.7-0.2l-0.7-0.4l-0.7-1.1l-0.6-0.5l-0.8-0.7l-0.5-0.9l-0.2-0.8
			l-0.2-0.8l-0.2-1.2l-0.7-0.6l-0.5,0.3l0.1,1.1l0.1,0.8v0.4l-0.4,0.4l0.1,0.6l0.2,0.5l0.4,0.6l-0.1,0.5l-0.6,0.4l-0.6,0.9l0.2,0.5
			l0.7-0.2l0.5-0.4l0.3,0l1.1-0.2l0.8,0.8l-0.3,0.3l-0.7,0.2l-0.6,0.2l-0.3,0.3v0.7l0.7,0l1,0.6l0.8,0.1l-0.1,0.3l-0.2,0.5l0.4,0.3
			l0.3-0.5l0.6-0.3l0.4,0.6l0.2,0.7l0.2,0.8l0.2,0.4l0.4,0.7l0.4,0.8l0.2,0.7l-0.6,1.2l-0.5-0.6l-0.3-0.5l-0.1,0.4v0.8l0.1,0.6
			l-0.4,0.7h-0.4l-0.5-0.8l-0.1-1.2l-0.2-0.7l-0.3-0.3l-0.1,0.8l-0.1,0.8l-0.3-0.1l-1.5-0.3l-0.7,0.2l-0.4-0.4v-0.8l0.3-1.1l0.1-1.2
			l-0.2-0.4h-0.5l-0.2,0.7l-0.1,0.8l-0.3,1l-0.4,0.5l-0.2,0.2l-0.7,0.3l0,0.7l0.4,0.5l0.7,0.3l1,0.4l1,0.4l1.3,0.4l1,1.2v0.7
			l-0.5,0.4l-0.9-0.7l-0.6-0.4l-0.8,0.3l-0.7,0.1l-0.2-0.8l-0.6,0.1l-0.7-0.3l-0.7-0.1l-0.1,0.9l0.3,0.3l0.7,0.8l0.7,0.5l0.7-0.1
			l0.7,0.2l0.7,0.7l0.2,0.7l-0.6,0l-0.7-0.1l-1.2,0.3l-0.9-0.3l-0.5,0.3l0.1,0.3l0.4,0.3l1.2,0.2l0.6,0.2l0.6,0.4l0.4,0.1l0.1-0.1
			l0.3-0.2l0.5,0.1l0.1,0.2v0.9l0.2,0.3v0.7l-0.3,0.2l-0.6-0.1h-0.2l-0.5,0l-0.6,0.2l-0.3,0.7l0.4,0.3l0.7,0.1l0.4,0.2l0.4-0.1
			l0.7-0.2h0.3l0.7,0.6l0.4-0.2l0.7-0.5l0.6-0.7h0.3l0,0.7v0.3l-0.1,0.8l-0.1,0.3l-0.4,1l-0.5,0.6l-0.7,0.6l-0.7,0h-0.6l-0.2-0.5
			l0.2-0.3l0.3-0.6l-0.1-0.1l-0.5-0.3h-0.6l-0.3,0.1l-0.3,0.3l-0.4,0.1l-0.4,0l-0.3-0.1h-0.9l-0.3,0.5v0.3l0.2,0.2l0.3,0.2l0.4,0.4
			l0.1,0.4v0.5l-1.3,0.8l-0.6-0.7l-0.8-0.9l-0.6-0.4l-0.8-0.6l-0.7-1l-0.9-0.4h-0.8l-0.9,0.5l-0.6-0.2l-0.8-1l-0.7-0.7l-0.7-0.2
			h-0.5l-0.7-0.2l-0.5-0.4l-0.4-0.6l1.3-1l0.7-0.6l0.4,0.4l0.7,0.1l0.7-0.4l-0.1-0.7l-0.4-0.8l-0.7-0.3l-1,0.1l-0.6-0.2l0-0.6
			l0.2-0.9l-0.2-0.9l-0.3,0.1l-0.3,0.7l-0.2,0.5l-0.3,0.3l-0.5,0.6l0.2,0.7l-0.1,0.6l-0.5,0.5l-0.4,0.8l-0.5,0.6l-1.5-0.4v-1.1
			l0.2-0.5l-0.7-0.2l-1.1-0.4v-1.2l1.3-1l0.8-0.6l0.3-0.5l0.1-1.1l-0.1-0.3l-0.8,0l-0.3-0.2l0.3-0.8l0.1-0.8l-0.7-0.4l-0.2-0.6
			l0.6-0.3l1.3-0.6l1.2-0.5l0.8-0.8l0.9-1.3l0.9-0.8l0.6-1.3l-0.3-0.4l-0.2,0.2l-0.6,0.3l-0.3-0.2l-1-0.5l-0.2,0.3l-0.1,0.8
			l-0.7,1.4l-1.3,0.4l-1.3,0.1l-0.2,0.3l0,0.9l-0.5,1.3l-0.8,0.3l-0.3-0.3l-0.1-0.3l-0.2-0.3l-0.1-0.6l-0.2-0.9l-0.6,0.3l-0.7-0.1
			l-0.4-0.6l-0.7-0.6l-0.7-0.4l-0.3-0.5l0-1.9l0.4-1.6l-1.1-0.4l-0.9,0.3l-0.6-0.4l-0.4-0.5l-0.3,0.2v0.3l0.3,0.7l0.5,0.6l0.3,0.3
			l-0.1,0.6l-0.2,0.6l-0.5,1l0.2,0.6h0.6l0.4,0.2l0.2,0.5l0.4,1.2l0.6,0.4l0.8-0.2l0.8,0.3l0.2,0.7l0.3,0.8l0.5,0.6l0.4,0.6
			l-0.3,0.3l-0.2-0.1l-0.7-0.3l-0.3,0.4l0.3,0.7l0.5,0.3l0.2,0.4l0.7,0.6l0.2,0.9l-0.9,0.3l-0.5,0.5v0.8l0,1.2l-0.3,0.8l-0.7,0.1
			l-0.3-0.5l-0.3-0.1l-0.2,0.8v0.4l-0.3,0.3l0.2,0.8l0.2,0.2l0.3,0.2l0.5,0l0.5,0.1v0.2l0,0.4l-0.4,0.5l-0.3,0.2l-0.7,0.6l-1.3-0.1
			l-1-0.6l-0.5-0.9l-1.7-1.8l-0.8-1.2l0-1.8l-0.1-0.8l-0.1-0.9l0-0.8l-0.3-1l0.2-0.7l-0.2-0.9l-0.2-0.8l-0.3-0.7l-0.3,0.3l-0.5-0.1
			l-0.7-0.6l-0.5-0.6l-0.4-0.7l-0.3-0.9l-0.5-0.9l-0.4-0.3l-0.4-0.5l-0.3-0.5v-0.7l-0.2-0.6l-0.1-0.8l-0.4-1.8l-0.7-0.6l-0.3-0.9
			l1.2-1.3l0.7-1l-0.1-0.4l-0.6-0.2l-0.7,0.6h-0.2l-0.2,0.3l-0.3,0.2l-0.3,0.9l-0.6,0.2l-0.5-0.5l-0.4-0.2l-0.3,0.8l-0.9-0.3
			l-0.6-0.5l-0.6-0.3l-0.2-0.4l-0.7-0.7l1.2-0.1l1.4-0.4l-0.3-0.3l-0.5,0.1l-0.8,0.1l-1-0.1l-1.1-0.2l-0.4-0.8l-0.3-0.4l0.2-0.3
			l0.4-0.5l0.3-0.4l0.7-0.8l0.2-0.8l-0.3-0.8l-0.5-0.3l-0.7,0.3l-1.3,0l-0.1-0.8l-0.5-0.1l-0.2,0.3l-0.1,0.3l0.1,0.4l0.1,0.8
			l-0.4,0.6l-0.2,0.6l-0.4,1l-0.5-0.5l-0.6-1.4l-0.7-0.5l-1-0.5l-0.7-0.8l-0.2-0.9l0.5-0.4l0.6-0.3l0.5-0.7l0.5-1.1l-0.2-1l-0.2,0.2
			l-0.5,0.3l-1,1l-0.9-0.1l-0.4,0.3h0.4l0.2,0.4l-0.6,0.5l-0.7,0.9l-1,0.1l-1-0.2l-0.8-0.7l-0.6-0.7l-0.6-0.5l-0.2-0.3l-0.3-0.2
			l-0.4-0.3l-0.5-0.2l-0.6,0.3v-0.4l-0.1-0.9l-0.2-0.8l-0.5-0.7l-0.5-0.1l-0.6-0.4l-0.2-1.4l0.3-0.6l0.2-0.2l-0.2-0.3l-0.8-0.4
			l0.7-1.5l0.7-0.8l0.8-0.3l1.3-0.5l0.6-0.7l0.2-1l-0.1-1.1l-0.3-0.6l-0.5,0.3l-0.3,1.1l-0.3,0.9l-0.5,0.8h-0.5l-1.2-0.4l-0.7,0.3
			l0,1.5l-0.6,0.8l-0.8-0.3l-1-0.1l-0.3-0.8l-0.1-1.3l-0.1-0.8l-0.2-0.8l-0.2-0.6l-0.4-0.8l-0.5-0.7l-0.5-0.7l-0.7-0.6l-1-0.9
			l-0.7-0.5l-0.8-0.8l-0.9,0.3l-0.7-0.2l-0.4-0.8l-0.3-0.6l-0.7-0.4l-1,0.2l-0.6,0.2h-0.4l-0.3-0.3l-0.1-0.4l-0.2-0.8l-0.4-0.4
			l-0.5-0.3l-0.5-0.4l-0.2-0.3l-0.1-0.3v-0.5l0.2-0.3l0.3-0.5l-0.1-0.6l-0.1-0.5l-0.3-0.3l-0.2-0.3v-0.3l0.1-0.7l0.3-0.2l0.4,0.1
			l0.2-0.3l0-0.5l-0.3-0.3l-0.7-0.3l-0.3-0.3l-0.7,0.5l-0.2,0.3l-0.2,0.4l-0.1,0.3l-0.6,0.1l-0.5-0.8l-0.1-0.4l-0.3-0.6l-0.4-0.2
			h-0.6l-1,0.1l-0.6-0.3l-0.3-0.9l-0.5-0.8l-0.2-1V290l0.1-0.9l-0.3-0.3l-0.3-0.7l-0.2-1v-0.6l-0.2-0.9l-0.5-1.3l-0.3-1.3l0.2-1.1
			l-0.4-0.9l-0.5-1.4l-0.4-1l-0.2-0.5l-0.5-0.6l-0.6-0.4l-0.3-0.3l-0.4-0.4l-0.9-0.5l-0.2-0.1l-1.3-0.3l-0.5-0.4l-0.6-0.4l-1.1-0.1
			l-1-0.1l-1-0.2l-0.8-0.4l-0.5-0.8l-0.2-0.6l-0.1-0.5l-0.2-0.8l-0.2-0.6l-0.7-0.2l-0.9,0.1l-0.7,0.2l-0.7,0.3l-0.3,0.3l-0.1,0.7
			l-0.3,0.6l-0.4,0.3h-0.5l-1.2,0.2l-0.5-0.8l-0.7-0.3l-0.7-0.4l-0.5-0.7l-0.3-0.8v-0.4l0.1-0.3l-0.1-0.5l0-1.2l0-1.1l-0.1-1
			l0.1-0.8l-0.1-0.9l-0.2-0.9l-0.7-0.7l-1.7-0.8l-0.2,0.1l-0.2,0.1l-0.8,1.7l-0.4,0.1l-0.8-1.8l-0.2-0.6l-0.6-0.5l-0.8-0.2l-0.6,0.6
			l-0.8,0.9l-0.2,0.8l-1.2,0.6l-0.7-0.2l-0.3-0.5l-0.1-0.8l0.1-0.6l0.2-0.4l-0.1-0.3l-0.2-0.5l-0.4-0.1l-0.6,0.7l-0.5,0.3h-0.5
			l-0.7,0l-0.5-0.3l-0.3-0.5l-1.1-0.1l-1.4,0.6l-0.8,0.1l-1.1-0.3l-0.3-0.4l-1.5-0.9l-0.7-0.7l-1.3-0.4l0.5,1.2l1.5,1.6l2,1.7v1
			l0.5,0.3l0.5-0.7l0.9-0.4l0.9-0.8l0.9-0.4l1,0.9l0.5,0.2l0.7,0.6l0.1,0.8l0.4,0.8v0.8l0.2,0.8l0.6,1l1.5,0.5l0.2-0.1l0.8-0.5
			l0-1.6l0.2-0.5l0.3-0.7l0.7-0.5l0.7-0.1l0.5,0.3l-0.2,0.9l-0.2,0.6l0.2,0.5l0.2,0.9l0.6,0.7l1.2-0.1l0.9-0.4l1-1.3l-0.1-1.5
			l0.7,0.3l0.2,0.4l0.2,0.6l0.1,0.7l-0.3,1.1l-0.3,1.4l-0.3,1.9l0.2,0.9l0.3,1.3l0.7,0.5l1.3,0.7l0.4,0.4l0.5,0.7l0.7,0.7l1.1,0.3
			l1.4-0.3l1.9-1.3v-0.8l-0.1-0.6l0.2-0.3l0.4-0.4l0.5,0.2l0.1,0.8l0.2,0.5l0.1,0.8l0.2,0.6l0.2,0.3l1,0.6l1.3,0.5l2.5,0.8l1.4,0.4
			l1.4,0.7l0.4,0.4l0.3,0.8l0.1,0.3l0.1,1l0.2,0.8l0.2,1.2l0.6,1.1l0.3,0.8l0.3,0.9l0.2,0.7l-0.1,0.7l-0.4,0.3h-0.3l-0.1,0.3
			l0.1,0.5l0.1,0.6l0.1,0.3v0.3l0.4,0.3l0.7,1.1l0.1,0.5l-0.1,0.2l-0.5-0.1l-0.3,0.4v0.3l0.1,0.5l-0.8,1.2l-0.3,0.3v0.2l0.4,0.6
			l0.5,0.4l0.5,0.8l0.6,0.3l0.4,0.3l0.5-0.2l1.3-0.1l0.7,0.1l1-0.1l0.9,0.4l0.1,0.6l-0.2,0.5l-0.3,0.8l-0.5,0.6l-0.2,0.5l0.1,0.6
			l0.3,0.3l0.6,0.3l0.7,0.3l0.6,0.4l0.6,0.9l0.4,0.6l0.4,0.8l0.8,0.8l1,1l0.7,0.9l0.9,0.1l0.9-0.1l0.6,0.3l1.1,0.4l0.2,0.4l0.3,0.3
			l0.1,0.4h-0.8l-0.2,0.3l0.1,0.3l0.3,0.7l0.2,0.1l0.5,0.1l0.7,0.6l0.3,0.4l0.5,0.3l0.6,0.1l0.8-0.2h0.3l0.1,0.3l-0.1,0.3l-0.1,0.3
			l0.1,0.6l0.3,0.8l0.4,1l0.7,0.9l-0.1,0.9l0.4,1.1l0.7,0.6l0.7,0.7l0.4,0.4l0.3,0.7l0.4,0.8l0.2,1.4l0.5,0.7l0.9,1.1l0.4,0.7
			l0.7,1.4l0.8,1.3l0.7,0.8l0.7,1.4l1.3,1l1,1.2l1.7,0.1l1.3-0.2l0.7,0.1l0.6,0.5l0.6,0.4l0.7,0.2l0.1,0.3l-0.1,0.7l-0.4,1v0.6
			l0.1,0.9l0.7,1l1.5,0.7l1.7,0.2l2.1,0l1.3,0.3l0.8,0.4l0.3,0.3l0.2,0.4l-0.4,0.5l0.9,1.5l-0.1,0.4l-0.5,0.7l0.6,0.3h0.5v-0.3
			l0.8,0.1l1.3,0.9l0.2,0.5l0.4,0.8l0.2,1l-0.1,0.7l-0.4,0.3l-0.3,0.3l-0.1,0.7l0.8,0.4l0.5-0.6l0.5-0.2l0.3,0.7l-0.1,0.7l0.2,1.4
			l0.4,0.6l0.5,0.8l0.5,0.3l0.4,0.5l-0.1,0.5l-0.6,0l-0.7-0.3l-0.3-0.3l-0.4-0.2l-0.9-0.3l-0.4-0.1l-0.3-0.3l-0.3-0.3l-0.3-0.7
			l-0.2-0.4l-0.7-0.4l-0.4,0.3l0.2,0.4l0.1,0.3l-0.2,0.5l-0.4,0.1l-0.2,0.6l0.4,0.2l0.3-0.1l1,0.1l0.8,0.3l0.8,0.4l0.7,0.5l0.8,0.2
			l0.4,0.3l0.3,0.2l0.5,0.4l0.3,0.5l-0.4,0.1h-0.6l-0.4-0.1l-0.4-0.1l-0.4,0.1h-0.3l-0.6,0.6l0.9,0.4h0.9l1.3,0.9l1.1,0.9l0.5,1.3
			l0.6,0.2l0.7,0.5l0.4,0.5l0.6,0.9l1.1,1l0.8,0.9l0.8,0.4h0.9l0.8,0.1l1.3,0.1l0.7-0.1l0.4,0.3l0.9-0.7l1.1-0.1l1.3,0.1l3.5,0.1
			l0.6,0.3l0.5-0.2l0.7,0.2l0.5-0.4l0.5-0.5l0.8,0.3l0.4,0.8l-0.2,0.3l-0.5,0.5l0.1,0.7l-0.2,0.5l0.3,0.4h0.4l0.4,0.2l0.1,0.3
			l-0.2,0.6l-0.3,0.5l0.2,0.3l0.6,0.1l1.1,0.5l0.7,0.4l1.6,0.3l0.6,0.4l0.9,0.4l0.7,0.5h0.9l0.7-0.3l0.8,0.1h1.4l2.2,0.1l0.7,0.3
			l0.8,0.9l0.8,0.5h0.5l0.7-0.5l1,0.1l0.8,0.4l1,0.1l0.7,0.2v0.8l-0.8,0.3l-0.4,0.8l-0.1,1.2l-0.6,0.4l-1,0.1l-0.5-0.4l-0.7-0.6
			l-0.7-0.5l-0.5,0.3l0.1,0.4l0.3,0.3l0.7,0.6l-0.1,0.5l0.1,0.8l-0.1,0.8l-0.3,0.7l-0.4,0.2l-0.4-0.4l0.1-1v-0.9l-0.9-0.4l-0.3,0.7
			l-0.7,0.2l-0.9,0.1l-0.7-0.3l-0.9,0.6h-0.4l0-0.8l-0.1-0.2l-0.2-0.3l-0.4-0.1l-0.3,0.3l-0.2,0.3l-0.7,0.2l-0.4,0.1l-1.1-0.5
			l-0.4,0.7l-0.2,0.3l-0.5-0.6l-0.7-0.4l-0.7,0.1l-0.8,2.5l-0.3,1.3l-0.4,0.4l-0.2-0.3l-0.1-0.6l-0.3-0.3l-0.9-0.5l-0.9,0.4
			l-0.6,0.8l-0.6,0.2l-0.7-0.7l-0.2-0.5l-0.9-0.9l-0.7-0.4l-0.6-0.4l-0.7-0.9l-0.6-0.3l-0.7,0l-1.1,0.4l-0.5,0.1l-0.7,0.2l-0.6-0.4
			l-0.2-0.8l-0.2-0.3l-0.7-0.2l-0.4-0.5l-0.4-1h-0.2l-0.2,0.1l-0.1,0.3v0.6l-0.3,0.4l-0.7,0.2l0.1,0.5l0.2,0.3l0.4,0.3l0.7,0.1
			l0.4,0.3l0.7,0.4l0.1,0.5l-0.2,0.8l0.2,0.1l1.1-0.6l0.4,0.1l0.5,0.3l0.5,0.2l0.5-0.4l0.3,0.3l0.2,0.6l0.9,0.7l1.5,0.4l0.2,1.3
			l0.2,0.3h1.2l0.5,0.2l0.6,0.6l0.6-0.1l0.4-0.3l0.7-0.3l0.7,1l1.3,0l1.3-0.8l0.5-1l1.1-0.1l0.5-0.5l-0.2-0.8l-0.2-0.7l0.2-0.1
			l0.8,0.4l0.7,0.2h0.5l0.7-0.1l0.9,0.8l0.7-0.3l0.7,0.2l0.3,0.3l0,0.6l0.2,1.4l0.5,0.7l0.7,0.4l1.3-0.3l0.7-0.2l0.8,0.3l0.6,0.7
			l0.5,0.4l0.4,1.2l-0.8,0.6l-0.9,0.1l-0.9-0.2l-0.8-0.3l-0.4,0.6l0.3,0.4l1.6,0.5l1,0l1-0.3l0.8,0.4h0.7l0.3-0.3l0.4-0.5l0.8-0.4
			l0.4,0.3l0.3,0.8l0.3,0.4l0.5,0.3h0.7l0.9,0.2l0.1,0.4l-0.2,0.5l-0.6,0.2l-0.5,0.3l-0.1,0.3l0.4,0.9h-0.7l-0.4-0.2l-0.8-0.2
			l-0.6,0.4l-0.9-0.2l-0.4-0.4l-0.7-0.3l-0.3,0.3l0.2,0.5l0.6,0.5l0.6,0.6l0.3,0.5l-0.3,0.4l0.1,0.9l0.5,0.3l0.4-0.6l0.3-0.9
			l0.9-0.6l1.3-0.2l0.6,0.5l0.1,0.7l-0.1,0.9l1,0.2l0.3-0.7l-0.1-0.9l-0.4-0.9l-0.1-1.2h0.5l0.5,0.3l0.7,0.7l0.2,0.6l-0.6,1.7
			l0.2,0.4h0.4l0.4-0.3l0.7,0.3l0.3-0.9l-0.1-0.9l-0.4-1.2l0.1-0.9l0.7,0.3l0.2,0.5l0.4,1.2l0.5,1.5l-0.1,1.3l-0.5,0.8l-0.2,1.1
			l0.1,1l0.2,1.5l0.6,2l0.2,1.3l0,2.5l-0.4,1.3l-0.4,1l-0.4-0.6l-0.4-1l-0.7-0.6l-0.8-0.2l-0.6,0.3l-0.6,0.1l-0.9-0.2l-0.1,0.5
			l0.5,0.4l0.6,0.1l0.7,0.4l0.7,0.2l0.6,0.3l0.7,1l0.2,0.8l-0.3,0.9l-0.4,0.8l-0.4-0.2l-0.2-0.6l-0.2-0.8l-0.4-0.4l-0.5-0.3
			l-0.6,0.5l-0.4,0.3l-0.5-0.4l-0.4,0l-0.7-0.5l-0.5,0.1l0.1,0.5l0.6,0.7l0.8,0.6l1.2,0.6l1.1,0.8l-0.3,0.7l-0.4,1.3l-0.2,1.4
			l0.2,1.3l0.3,1.1l0.1,0.8l0,0.7l-0.3,1.3l-0.8,1.3l-0.8-0.4l-0.2-0.7l1.1-0.6l0.3-0.7l-0.1-0.9l-0.6,0.2l-0.2-1l-0.4-0.7l-0.7,0.7
			l-0.7-0.7l-0.2-0.4l-0.3-0.3l-0.4-0.2l-0.7,0.3l-0.5-0.5l-0.5-0.7l0.1-0.6l0.1-0.7l0.7-0.8l0.8-0.9v-0.4l-0.8,0.3l-1.5,1.2h-0.7
			l-0.6-0.8l-0.8-0.8l-1-1.7l-0.1-0.7l0.3-0.8l0.4-1.7l0.6-0.7l-0.2-0.9l0.6-0.8l-0.2-0.5l-0.7-0.1l-0.6-0.3l-0.7-2l0.8-0.6l0.3-1.2
			l-0.3-0.4l-0.6,0.1l-0.9,0.6l-0.1-0.7l-0.5-0.6l-0.3,0.1l-0.6,0.1l-0.6-0.4l-0.1-1.7l0.2-0.8l-0.6-0.3l-0.7,1l-0.3,1.4l1.1,1.7
			l1,0.3l0.8,0.4l0.2,0.5l-0.3,0.3l-0.3,0.6l-0.2,1l0.3,0.4l0.7,0.4l0.6,0.9l0.1,1.3l-0.2,1.3l-0.8,0.8l-1.3,0.4l-0.4-0.2l-0.7-0.5
			l0.1-1l0.2-0.6l-0.7-0.2l-0.5,0.4l-0.5,0.3l-0.6-0.3l-0.7-0.3l-0.3-0.6l-0.8-0.8l-0.1-1.5l-0.7-0.9l0-0.9l0.1-1.1l0.8-1.3
			l-0.3-0.7l-0.8-0.4l-0.4-0.2l-0.3-0.9l-0.3-1.2l-0.5-0.3l-0.6,0.2l-0.1,0.4v0.6l0.2,0.9l0.5,1l-0.2,0.5l-0.8,0.1l-1.2-0.2
			l-0.8,0.1l-0.5,0.2l-0.2-0.6l-0.1-0.7l-0.3-1.2l-0.1-0.7l0.3-0.7l0.2-0.6l-0.1-0.5l-0.4-0.4l-0.5-0.6l-0.7-0.5l-0.3,0.3l-0.2,0.8
			l0.2,0.5l0.2,0.4l0.1,0.6l0.1,0.9l-0.1,0.9l-0.5,1.2l-1.2,0.8l-0.8,0.4l0.1,0.6h0.5l0.7-0.1l0.7-0.7l0.6,0.1l0.3,0.7l0.1,0.6
			l0.7,0.2l1.3,0.2l0.3,0.4l0.7-0.3h0.7l0.5,0.8l-0.1,0.8l-0.4,0.3v0.6l0.5,0.1l0.7,0.2v0.6l-0.1,0.9v0.7l1,1.6l0,0.6l-0.4,0.1
			l-0.6-0.3l-0.6-0.5l-0.7-0.3l-0.7-0.7l-0.6-0.5h-0.7l-0.7,0.3l-0.9-0.1l-0.5-0.3l-0.1-0.8l-0.4-0.5l-0.3-0.4l-0.4-0.6l-0.7-0.4
			l-0.5,0.3l-0.6-0.1l-0.2-0.4l-0.6-0.7l-0.3-0.1l-0.3,0.3l-0.4,0.3l-0.2-0.4l-0.1-0.8l-0.1-0.7l-0.2-0.3l-0.3-0.5l-0.2-0.1
			l-0.3,0.3l0.1,0.5l0.1,0.7v0.5l-0.4,0.3l-0.2,0.4l0.3,0.4l0.4,0.2l1,0.4l0.7,0.2l0.3,0.5l0.7,0.2l0.5-0.1l0.7-0.1l0.2,0.6
			l-0.2,0.4l-0.2,0.7l-0.5,1.1l-0.6,1.1l-0.7,0.3l-0.3-0.4l-0.3-0.4l-0.3,0.3l-0.1,0.6l-0.1,0.5l-0.1,0.8l0.6,0.3l0.6,0.1l0.4-0.7
			l0.6-0.3h0.7v0.4l0.7,0.4l0.8,0.1l0.6,0l0.3-0.7l0.1-0.7l0.6-0.3l0.4,0.4l0.1,0.3v0.7l0.2,0.7l0.8,0.4l0.8,0.2l0.6,0.4l0.2,0.4
			l0.1,0.6l0.3,0.5h0.6l0.7-0.1l1.1,0.2l0.3,0.5l-0.1,0.6l-0.3,0.3l-0.2-0.2l-0.6-0.4l-0.2,0.3l-0.1,0.4l0.1,0.3l0.4,0.4l0.2,0.9
			l-0.2,0.4l-0.9,0.3l-1-0.1l-0.5-0.1l-0.5-0.8h-0.6l-0.4,0.3l-0.5,0.2l-0.1-0.4v-0.4l-1-0.5l-1,0.4l-0.4,0.4l0.1,0.7l-0.9,0.2
			l-0.7-0.3l-0.2-0.5l-0.2-1.1l-0.4-0.5l-0.6-0.3l-0.7,0.1l-0.3,0.3l0.4,0.4l0.4,0.5l0.3,0.7v0.8l0,0.9l0.2,0.8l0.5,0.3l1.3-0.1
			l0.9-0.3l1.4-0.7h0.7l0.1,0.4l0.2,0.5v0.8l-0.3,0.3l-0.6,0.3l-0.6,0.2l-0.9-0.2l-0.7-0.4l-0.7,0.3l-0.3,0.9l0.2,0.4l0.7,0.3
			l0.9,0.5v0.6l0.3,0.9l0.7-0.2l0.2-0.6l-0.1-0.7l-0.2-0.9l0.6-0.2l0.7-0.3l0.4-0.6l0.3-0.7l0.6-0.2l0.7,0l1.1,0.2l0.7,0l0.4-0.5
			l0.3-0.7l0.7-0.5l0.6,0.4l0.7,0.3l0.6,0.6v0.4l-0.2,0.3l-0.6-0.2l-0.7,0.2l0.1,0.7l0.2,0.6l0.8,0.4l0.7-0.3l0.8-0.6l0.6,0.3v0.3
			l-0.6,0.8l-0.2,0.8l0.2,0.5l0.5,0.3l0.2,0.6l-0.3,0.2h-0.4l-0.2,0.5l-0.2,0.8l-0.5,0.3l-0.7-0.2l-0.9-0.3l-0.5,0.2v0.4l0.2,0.5
			l0.3,0.2l0.5,0.2l0.7,0.1l1,0.4l-0.1,0.3l-1.2,0.2l-1.1,0.2l-2.2-0.2l-0.8-1h-0.5l0.3,1.9l-1.3,0.7l-1.7,0.6l-1.9,0.4l-1.8-0.3
			l-0.4,0.2l0.3-0.8l0.3-0.5l0.6-0.1l-0.1-0.5l-0.9,0l-1.3,0.3l-0.6,1.3l-1,0.9l-1.1,0.4l-0.3-0.3l-0.2-0.8l-0.4-1.4l-0.2-1.5
			l-0.4-0.4l-0.8-0.8l-0.3-0.3l-0.4-0.3l-0.8-0.3h-0.7l-0.3-0.3l0.7-3l-0.5-0.8l-0.2,1l-0.1,0.9l-0.5,0.6l-0.7,0.3l-1.5-1.5
			l-0.8-0.2l-0.4-1.4l1.3-0.3l0.8-0.3l0.2-0.5l-1.6-0.2l-0.8,0.2l-0.5-0.9l-0.6-0.6l-0.2,0.4l0.1,0.7l-0.4,0.4l-0.5-0.5l-0.7-0.8
			l-1.2-1.5l-0.1-1.1l-0.3-1l-0.6,0.4l-0.7-0.8l-1.1-1l-0.8-1.3l-0.4-0.9l-1.1-1l-1.1-1.4l-0.6-0.9l-0.5-0.9l-0.7-0.6l-0.8-0.9
			l-0.8-1.1l-0.2-0.9l-0.2-1V401l-0.6-0.8l-0.4,0.6l-1,0.2l-0.9-0.5l-1.1-0.7l-0.7-0.8l0-0.8l-0.2-0.8l-0.5,0.1l-0.7-0.5l-0.2-1
			l-0.4-0.7l-0.7-0.3l-0.7-0.3l-0.6-0.5l-0.5-0.8l-0.3-1l-0.2-1.2l-0.3-0.8l-0.4-0.9l-0.4-0.6l-0.7-1.1l-0.8-1.1l-0.7-0.7l-0.8-0.7
			l-0.4-0.5l-0.7-0.6l-0.7-0.4l-0.8-0.7l-0.7-0.7l-0.7-0.5l-0.1-2.3l-0.3-0.6l-0.5-1l-0.2-0.9l-0.7,0.4l-0.3,0.5l0.2,0.8l-0.3,0.7
			l-0.4,0.1l-0.6-0.9l-0.4-1.2l-0.2-0.8l-0.2-0.7l-0.3-0.6l-0.5-0.5l-1.2-0.3l-1,0.2l-1,0.3l-0.4,0.4l-0.2,0.6l-0.4,0.3l-0.6,0.3
			l-0.2,0.2l-0.4,0.5l-0.5,1.5l-0.3,0.5l-0.5-0.3l-0.6-0.2l-0.2-0.3l-0.4-0.3l0.1-0.5l0.6-0.6l0.5-0.5l0.2-0.2l0.6-0.8l0.7-1.1
			l0.1-0.8l0.1-0.8l-0.2-1l-0.2-1.2l-0.5-1.1l-0.2-0.5l-0.6-0.4l-0.7,0l-0.8,0.2h-0.6l-0.6,0.3l-0.6,0.2l-0.5,0.4l0.1,0.9l0.2,1.1
			l0.2,0.6l0.3,0.4l0.1,0.4v0.4l-0.3,0.6l-0.4,0.1l-0.3,0.1l-0.7-0.1l-0.5-0.5l-0.4-0.8l-0.1-0.6v-0.2l0-0.7v-0.3l-0.7-0.3l-0.7-0.2
			l-0.6,0.3l-0.8,0.5l-0.7,0.2l-2.3,0.9l-0.7,0.6l-0.4,0.7l-0.2,1.6l-0.3,0.8l-0.7,0.3l-0.4-0.3l-0.6-0.1l-0.4-0.3l1.1-1l0.3-1.1
			l-0.1-1.9l-0.4-1.4l-0.7-1.6l-0.4-0.4l-0.5-0.1h-0.3l-1,0.1l-0.7,0.2l-0.2,0.1l-0.4,0.2l-0.6,0.2l-0.2,0.3l-0.2,0.3l-0.2,0.3
			l0.1,0.7l0.5,0.2l0.1,0.3l-0.2,0.3l-0.2,0.3l-0.3-0.1l-1.2,0l-1.1-0.5l-0.3-0.4l-0.1-0.6l0.4-0.2h0.4l0.3-0.4l0.1-0.6l0.1-0.5
			l-0.1-0.5l-0.2-0.3l-0.5-0.2l-0.3,0.1l-0.3,0.1l-0.2-0.1l-0.5,0l-0.1,0.3v0.9l-0.2,0.3h-0.2l-0.3,0.3l-0.2,0.4l0.1,0.6l0.1,0.4
			v0.3l0.1,0.3l0.2,0.3l0.2,0.4l0.3,0.4l0.5,0.4l0.7,0.3l0.7,0.1l0.7,0.1l0.5,0.3l0.3,0.2l0.3,0.4l0.6,0.4l0.2,0.1l0.3-0.3l0.4-0.2
			l0.3-0.4l0.3-0.7l0.2-0.6l-0.1-0.7l-0.1-0.3l-0.3-0.9l-0.1-0.4h0.9l0.5-0.1l0.3,0.2l0.2,0.3l0.2,0.8v0.3l0.2,0.7v0.7l-0.2,0.3
			l-0.2,0.3l-0.3,0.3l-0.6,0.4l-0.1,0.5l-0.3,0.7l-0.3,0.3l0.1,0.5l0.1,0.2l0.1,0.6l0.1,0.3l0.3,0.3l0.6,0.2l0.4,0.3l0.5,0.2
			l0.7,0.7l0.7,0.5l0.5,0.4l0.7,0.1l0.3-0.3l0.4-0.5l0.1-0.5l0.2-0.7l0.3-0.8l0.2-0.8l0.2-0.7l0.4-0.9l0.4-0.5l0.3-0.3l0.7-0.4
			l0.8,0l0.1,0.3l0.2,0.4l0.1,0.3l0.2,0.3l0.2,0.4l0.1,0.4l0.5,0.7l0.4,0.2l1.1,0.3l1,0.2l0.9-0.3l0.4-0.5l0.4-0.3l0.3-0.6l0.1-0.3
			l-0.1-0.7l0.2-0.3v-1.2l-0.1-0.6l-0.1-0.6v-0.6l0.2-0.3l0.2-0.2h0.3l0.7-0.1l0.3,0.3l0.1,0.3l0,0.7l-0.1,0.5l0.1,1.1l-0.2,0.8
			l-0.2,0.6l-0.3,0.8l-0.1,0.3l-0.4,0.4l-0.4,0.6l-0.1,0.1l-0.5,0.6l-0.3,0.5l-0.3,0.6l0.2,0.4l0.2,0.7l0.4,0.7l0.3-0.1l1,0.2
			l0.6,0.2l1,0.4h0.7l0.3-0.3l0.3-0.4l0.3-0.8l0.3-0.4l0.6-0.5l0.4-0.3l0.2-0.3l0.2-0.4l0.1-0.4l0.1-0.3l0.3-0.6l0.6-0.3h0.6
			l0.8-0.1l0.3,0.5l0.1,0.4l0.1,0.7l0.2,1.4l0.7,0.7l0.2,0.2l0.2,0.9l-0.1,0.5l-0.2,0.4l0.1,0.4l-0.3,0.4v0.5l0.2,0.8l0,0.8l0.1,0.4
			l0.8,0.6l1.4,0.5l1.4,0.7l1.3,0.4l0.8,0.4l0.4,0.6l0.2,0.4l0.1,0.5l0.2,0.8l0.2,0.8l0.2,0.4l0.3,0.4l0.3,0.4l0.5,0.6l0.2,0.4
			l0.2,0.8l0.3,1.1l0.2,0.7l0.7,0.8l1.1,1l1.6,1.4l1.2,1.1l0.7,0.6l2.1,2.6l1.7,3.2l0.5,0.7l1.1,2l1.3,0.2l0.5,0.3l0.1,0.8l0.3,1.2
			l0.4,1.2l0.7,1l1.1,1l0.5,0.9l0.5,1.3l0.7,1.2l0.7,1.4l0.8,0.8l0.3,0.1l0.2,0.2v0.4l-1.1,1.1l0.8,0l1-0.4l0.5,0.3l0.7,0.9l0.8,0.8
			l1.6,0.9l0.8,0.3l0.2,0.4v0.4l-0.4,0.5l-0.1,0.5l1.4,0.1l1.1,0.3l1.1,0.4l0.8,0.2l0.7,0.2l0,0.6l1.1,1.2l0.9,0.9l0.9,0.6l0.6,0.8
			l0.6,0.3l0.9,0.4l1.7,0.8l1.2,0.9l0.9,0.9l1.3,0.8l0.1,0.1l1.8,0.9l1.5-0.4l1.8-0.3l1.7-0.4l1.1-0.3l0.6-0.3l0.7,0.2l0.2,0.3
			l0.3,0.3l0.2,0.7l-0.4,0.3l-0.5,0.1l-0.6-0.2l-0.7-0.2l-1.2,0.2l-0.3,0.5l0,0.6l0.3,0.3l0.8,0.3l0.8-0.2l0.9-0.3h0.7l0.2,0.3
			l0.4,0.5l0.2,0.4l0.7,0l0.2-0.3l-0.2-0.6l-0.2-0.7l0.3-0.6h0.4l0.5,0.3l0.3,0.4l0.4,0.7l0.2,0.9l0,1.1l-0.1,1.2l-0.1,1.2l-0.6,0.3
			l-0.2-0.6l-0.3-0.6l-1-1l-0.7-0.3l-0.7-0.3l-0.2,0.3l-0.5,0.2l-0.9-0.1l-0.6,0.1l-1.2,0.5l-0.5,0.3l-0.5,0.3l0.3,0.4h0.5l0.7-0.3
			l0.7-0.2l1.1-0.2l0.7,0.1l0.7,0.3l0.7,0.4l0.4,0.9l0,0.9l-0.6,1.2l-0.7,0.6l-0.5-0.3l-0.4-0.3l-0.6-0.9l-0.4,0.3l-0.1,0.6l0.2,0.6
			l0.4,0.6v0.3l-0.2,0.4l0.2,0.5l-0.1,1l-0.6,0.1l-0.7-0.1l-1.2-0.4l-0.3,0.5v0.9l1.5,0.5l1,0.3l0.6-0.2l0.6-0.9l0.3-0.9l0.6-0.8
			l0.2,0.1l0.2,0.5l0.4,0.3l0.6-0.5l-0.1-0.8l-0.1-0.7l0.3-0.5l0.4-0.8l-0.2-0.4l0.8-0.8l0.2,0.6l0,0.9l0.8,0.2l1.2-0.2l0.9,0.4
			l0.2,0.4l-0.1,0.4l-0.3,0.7l-0.5,0.8l-0.2,1.1l0.3,0.3l0.5-0.1l0.4-0.6l0.7-0.2h0.7l0.5-0.3l-0.1-0.3l-0.6-0.1l-0.3-0.8l0.7-0.6
			h0.8l1-0.5l-0.2-0.4l-0.2-0.3l-0.3-0.2l-1-0.1l-0.7,0.1l0.1-0.9l0.8-0.3l0.7-0.1l0.5-0.1l1.3,0.6l0.7,0.1l0.1,0.4l-0.2,0.3
			l-0.3,0.7l0.2,0.8l0.2,0.9l0.3,0.9l0.8,0.8l0.5,0.5l0.3,0.9l0.5,0.3l1,0.9l-0.1-1.2l-0.1-0.4l0.3-0.6l0.4,0.1l0.9,0.5l0.1,0.4
			l0.5,0.6l0.9,0.4l0.1,0.3l-0.5,0.2l-0.3,0.8l0.4,0.2l0.9-0.3l0.7,0.2l0.2,0.8l-0.2,0.3l-0.8,0.4l-1,0.1l-1,0.4l-1.4,0.2l-0.8-0.4
			l-0.2,0.4l-0.3,0.2l-0.9-0.1l-0.3,0.4l-0.3,0.8l-0.7,0.2l-0.2-0.4l-0.1-0.9l-0.2-0.7l-0.6,0.1h-0.6l-0.2-0.3l-0.3-0.5l-0.4-0.4
			l-0.7,0.2l-1.1,0.3l-1,0.1l-0.1,0.3l0,0.7v0.2l-0.1,0.7l-0.1,0.8l0.5,0.1l0.3-0.2l0.4-0.8l0.4,0.2l0.1,0.1v0.3l-0.2,0.8l0.3,0.1
			l0.5-0.4l0.4,0.4l0.4,0.2l0.2-0.5l0.8-0.3l0.2,0.4l0,0.8l0.2,0.8l0.5,0.4h0.5l0.6,0.2l0.2,0.6l-0.2,0.4l-0.3,0.5l-0.5,0.6
			l-0.6,0.3l-0.8,0.5l-0.6,0.6l-0.3,1v0.4l-0.2,1l0.1,1.1l0.2,1l0.5,0.3l0.3-0.3l0.3-0.8l0.2-1.1l0.4-0.8l0.9-0.8l0.8-0.6l0.2-0.8
			l-0.2-1.7h0.6l0.3-0.1h0.2l0.1-0.5l0.1-0.7l0.4-0.4l-0.2-0.8l1.2-0.3l0.2,0.3l0.2,0.5l0.1,0.7l0.3,0.3l0.2,0.4l0.1,0.4l0.3,0.6
			l0.4,0.4l0.3-1.3l-0.3-0.8l-0.3-0.9l1.3-0.6l0.3-0.2l0.6-0.3l0.8-0.8l1.1-0.2l0.6,0.6l0.3,0.5l0.3,1l-0.1,1.4l-0.3,0.9l-0.4,1.4
			l-0.4,1.7l-0.4,1.7l-0.7,2.1l-0.4,1.5v0.3l-0.3,1.6l-0.3,1.1l-0.2,1.1l-0.4,1l-0.7,1.1l-1.8,0.5l-0.2-0.4l0.3-0.7l0.5-0.5l1.3-1.7
			l0.5-1.2l-0.2-1l-0.3-0.3l-0.7,0.4l-0.6,0.8l-0.6,1l-0.7,0.8l-1,0.4l-0.8-0.4l-1.2-0.4l-0.2,0.3l-0.5,0.8l-0.3,0.5l-0.3,0.5
			l-0.9,0.2l-1.4,0.7l-1.9,0.7l-0.9,0.8l-0.2,0.2l-0.7,0.9l-1,1.2l-0.6,0.9l-0.7,0.9l-0.4,0.8l-0.2,0.7l-0.8,0.3l-0.8-0.4l-0.7-0.7
			l-0.7-0.9l-0.8-1.5l-0.4-0.6l-0.7-1l-0.1-0.8l0.4-0.7v-0.7l-0.3-0.7l-0.5-0.4l-0.4-0.4l-0.5-0.7l-0.4-1l-0.4-1.1l-0.7-0.6
			l-0.6-0.6l-1-0.7l-0.7-0.6l-0.7-0.3l-1.4-0.8l-1.3-0.9l-1.4-1l-0.9-0.4l-1.1-1.7l0.2-0.9l0.4-1.1l0.4-0.5l0.1-0.7v-0.6l-0.7-0.1
			l-0.3,0.6l-0.1,0.5l-0.7,0.1l-0.7-0.6l-0.7-0.2l-0.2-0.6l-0.1-0.8l-0.3-0.3l-0.7-0.3l-0.2-0.7l-0.2-0.6l-0.3-0.3l-0.2-0.6
			l-0.4-0.7l0.1-0.3l-0.5-0.1l-0.5-0.2l-0.4,0.7v0.8l0.2,0.7l0.5,0.9l0.6,0.8l0.7,0.8l0.5,0.9l0.4,1.2l-0.3,0.8l-1.2-0.1l-1-0.6
			l-0.3-0.5l-0.3-0.9l-0.3-0.9l-0.5-0.2l-1.5-1.5l-1.1-1.1l-0.7-0.9l-0.9-0.2l-0.8-0.2l-0.6-0.6l-0.5-0.4l0-0.8l-0.4-0.1l-0.2-0.5
			h-0.5l0.4-0.8l0.3-0.9l0.4-1.3l0.8-1.3l1-1.3l0.3-0.9l0.1-1.1l-0.4-0.2l-0.7-0.3l-0.4-0.9l-0.4-1.4l-0.7-2.2l-0.6-0.9l-0.6-0.9
			l-0.9-1.4l-0.8-0.8l-1.3-0.7l-2.3-0.2l-2.3-0.2l-1.3,0l-0.3-0.3l-0.3-0.4l-0.6,0.1l-0.4,0.4l-0.4,0.6l0.3,0.3l0.6,0.4l-0.6,0.4
			h-1.3l-2.2,0.2l-1.7,0.1l-1.6-0.2l-0.2,0.6l0.5,0.5l0.6,0.3l0.6,0.2l0.3,0.5l0.1,0.3l-0.9,1.6l-0.5,0.5l-1.1,0.2l-1-0.5l-0.5-1.1
			l-0.8-0.8l-0.8-0.6l-0.6-0.9l-0.3-1.1l-0.7-0.5l-0.1-0.1l-0.5-0.9l-0.9-1.7l-0.7-0.5l-1.7-0.7l-2.1-0.3l-2.5,0.2l-3.3,0.1
			l-0.4-0.5l-0.1-0.9l0.9-0.8l-0.2-1.2l-0.1-0.6l-0.5-1.1l-0.3-1.3l0.3-1.8l0.7-0.3l0.6,0.1l0.6-0.5l0.6-0.8l-0.3-0.3l-1.5-0.8
			l-0.7-0.9l-0.1-0.6l0.9-0.6l-0.1-0.3l-0.3-0.3l-0.2-0.7l-1.1-1.5l-0.2,1.3l-0.8,0.8l-0.3,0.6l0.1,0.8l0.2,0.7l0.9,0.7l0,0.7
			l-0.2,0.5l-0.4,1l-0.2,0.6l-0.1,0.4l0.1,0.8l-0.1,1.9l0.6,0.9l0.2,0.8l-0.8,1.1l-0.6-0.1l-1,0.5l-0.4,1.2l-1,0.3l-0.8-0.1
			l-0.7,0.7l-0.1,0.7l-0.1,0.5l-1.3-0.5l-0.5-0.2h-0.9l-0.5-0.1l-2.1-1.4l-0.9-0.9l-1-1.8l-1.1-1.2l-1-1.4l-0.4-0.6l0.1-0.8
			l-0.1-0.7l-0.2-0.8v-0.7l-0.2-0.4l-0.2-0.5l-0.2-0.4l-0.2-0.5l-0.7-0.5l-0.5-0.4l-0.2-0.1l-0.4-0.1l-0.1-0.2l-0.5-0.9l-0.2-0.3
			l-0.3-0.1h-0.2l-0.8,0.6l-0.3,0.3l-1.3,1l-0.8,0.3l-0.7,0.4l-0.3,0.3l-0.5,0.5l-0.3,0.4l-0.5,0.4l-0.6,0.4l-0.5,0.5l-0.4,0.5
			l-0.4,0.4l-0.3,0.3l-0.3,0.4h-0.7l-0.5-0.2l-0.2-0.9l-0.1-0.6l0-0.4l-0.1-0.7v-0.4l0.3-1.3l0-0.5l-0.1-0.6l-0.2-0.9l-0.3-0.8
			l0.2-0.3l0.7-0.2l0.4-1.2l-1.1,0.4l-1.3,1l-1.4,0.6l-2.7,0.1l-0.3,0.3l-0.5,0.3l-0.7,0.6h-0.7l-0.7-0.8l-0.1-0.3l-0.7-0.3l0.1,0.5
			l0.2,0.3l0.1,0.5l-0.5,0.2l-0.7-0.1l-0.5,0h-0.4l-0.5,0.1l-0.4,0.1l-1.6-0.3l-0.7-0.1l-0.8-0.1l-0.5-0.3l-0.3-0.8l-0.8-0.5
			l-0.7-0.4l-0.7-0.6l-0.6,0.3l-1-0.2l-1.8,0.2l-0.5-0.1l-0.5,0.2l-0.5,0.2l-0.6,0.3l-0.4,0.1l-0.7,0.2l-0.4,0.2l-0.3,0.3l-0.8,0.2
			l-0.7-0.8l-0.1-0.3l0.1-0.3l0.2-0.5l0.3-0.6V417l-0.2-0.4l-0.2-0.4l-0.1-0.4l0.1-0.5v-0.8l-0.1-0.6l-0.3,0.1l-0.2,0.2l-0.3,0.3
			v0.3l-0.2,0.6l-0.1,0.6l0,0.4l-0.4,0.3l-0.1,0.4l-0.5,0.3l-0.5,0.3l-0.6,0.3l-0.8,0.2l-0.1,0.8l-0.1,0.8l0.2,1v0.4l0.3,0.2
			l0.4-0.2l0.3-0.3l0.3-0.2l0.4-0.3l0.3-0.3l0.4-0.2l0.2,0.1l0.1,0.6l0.2,0.7l0.2,0.3l0.2,0.3l0.2,0.4l0.2,0.3l0.3,0.3l0.7,0.5
			l0.2,0.3l0.5,1.4l1-1.1l1.6-0.7l0.6-0.1l0.5-0.7l0.2-0.4l0.1-0.8v-0.7h0.4l0.6,0.4l0.2,0.5l0.2,0.3l0.6,0.4h1l0.2,0.4l0.2,0.4
			l0.1,0.6l0.2,0.7l0.1,0.6l0.7,0.6l1,0.2h0.8l0.6-0.3l0.8-0.5l0.4-0.3l0.4-0.5l0.7-0.8l0.4,0.2l0.1,0.6l0.8-0.3l0.4-0.3l0.4-0.8
			l0.5-0.1l0.4,0.1l0.7,0.5l0.9,0.3l0.8-0.2l1.1-0.3l0.5-0.2l0.7-0.2l0.3-0.1l0.6-0.3l0.3-0.6l0.6-0.8l0.3,0.1l0.1,0.1l0.2,0.3
			l-0.3,0.7l0.1,0.7l0.2,0.6l0.3,0.7l0.2,0.6l-0.1,1.4l0.4,1.7l0.6,0.3l0.6,0.3l1.7,0.9l0.1,1.1l1.2-0.4l0.7-0.4l0.2-0.3l0.8-1.8
			l0.6-1.2l0.6-0.8l0.8-0.9l0.7-0.4l0.6-0.3l0.4-0.4l0.9-0.3l-0.1-1.1l0.5,0l0.7,0.3l0.6,0.2l0.7,0.4l0,0.8l-0.3,0.9v1l0.2,0.4
			l0.2,0.8l0.3,0.8l0.4,0.6l0.2,0.9l0.3,1l0.2,1.1l0.3,1.4l-0.9,0.4l-0.8,0.3l-0.6,0.2l-0.8,0.7l-0.6,0.8l-0.3,0.8l-0.2,0.8
			l-0.1,1.1l0.3-0.1l0.4-0.3l0.4-0.9l0.4-0.6l1.7-1l0.6-0.2l0.6-0.7l0.8-0.3l0.7,0.3l1,0.2l0.7,0.6l1.1,0.3l0.3,0.3l0.6,0.2l0.3,0.3
			l1.2,1l1.3,0.9l1.8,1.9l1.7,1.1l0.7,0.3h0.8l1.7-0.6l1.5-0.8h0.7l1.2,0.2l1.7,0l2.9-0.2l1.6,0.1l1.6-0.4l0.5-0.2l0.3,0.3l-0.1,0.8
			l0.2,0.8l-0.1,0.7l-0.4,0.9l1.8-0.2l0.7,0.6l0.4,0.5l0.4,0.9l0.6,0.5l1.3,0.9l0.9,0.6l1,1.4l1.2,2.1l0.7,0.5l1.3,0.4l1-0.1
			l0.8-0.1l0.6-0.3l0.9-1.4l0.3-1.1l0.3-0.8l0.2-0.5l0.2-0.6l0.4-0.3l0.8-1.5l0.1-0.8l0.2-0.9l0.1-0.6l0.5-0.9l0.4-0.2l0.4,0.5
			l0.7,0.6l0.7,0.9l1,1.2l0.2,0.5l-0.7,1.7l-0.3,3l0,2l0.5,0.2l0.4,0.7l0.2,0.9l0.2,2l0.7,1.9l0.1,1v0.9l-0.1,1.3l-0.6,1.5l-0.4,1.6
			l-0.3,1.1l-0.3,0.9l0.1,1.6l0.2,1.1l0.5,1.1l1.1,0.8l1.3,0.8l1.6,0.6l1.7-0.1l1.5-0.1l1.5,0.1l1.2,0.4l2,1.1l0.4,0.6l0.2,0.6
			l-0.5,0.8l0.2,0.5l-0.3,1.1l-0.9,0.6h-0.6l-0.6,0.1l-0.8,0l-1-0.4l-0.5,0.8l-0.7,0.7l0,0.9l1.5-0.3l1.2-0.5h0.7l1.6,0l1.3-0.7
			l1.2-0.7l0.7-0.1l0.7,0.2l0.4,0.3l0.5,0.6l0.3,0.6l0.4,0.8l1.2,0.7l1,0.8l0.8,0.4l0.1,0.4l-0.1,0.5l0.7,0.7l1.4,0.6l1.6,0.4
			l1.1,0.4l0.6,0.8l0.2,0.9l0.1,0.9l0.2,0.5l0.3,0.8l0.2,0.8l-0.4,0.5l-0.4,0.1l-0.3-0.4l-0.2-0.4l-0.2-0.8l-0.3-0.8l-0.4-0.2
			l-0.6,0.1l-0.5-0.3l-0.6,0.1l-0.2,0.4l0.1,0.4l0.4,0.4l0.9,0.3l-0.2,0.6l0.4,0.5l0.1,1.1l0.2,0.8l-0.2,0.8l-0.8,0.3l-0.6,0.8
			l-0.7,0.6l0.1,0.3v0.2l0.3,0.2l0.6,0.2l0.8-0.3l0.6-0.7l0.6-0.8l0.7-0.7l0.7,0.1l0.2,0.4l0.1,0.9l-0.1,0.9l0.1,1.2l-0.2,1.3
			l-0.8,0.5l-1,0.4l-1.2,0.1l-0.7,0.5l-0.2,0.6l0.2,0.7l-0.3,0.4l-0.5,0.1l-0.5,0.3l-0.4,0.7l-0.6,0.6l-0.5,0.9l-0.2,1.3l-0.1,0.8
			l-0.9,0.2l-0.3,0.8l-0.5,0.6l-0.6,0.5h-0.8l-0.8,0.4v0.7l-0.3,1.3l0.1,0.7l0.3,0.5l0.2,0.7l0.1,0.8l-0.2,0.7l-0.3,0.7l-0.2,0.5
			l-0.1,1l0.1,0.7l0.4,0.4l0.7-0.3l0.1-0.5l-0.1-0.5l-0.1-0.6v-0.8l0.2-0.3l0.1-0.3l0.3-0.4l0.1-0.2l0.3-0.8l0.1-0.3l-0.1-0.3
			l-0.1-0.3l-0.2-0.3l-0.2-0.3v-0.7l0.2-0.6l0.9-0.3l0.8-0.1l0.7-0.2l0.9-0.3l1.2-1.2l0.5-0.4l0.3-0.5l-0.1-0.2l-0.6-0.6l-0.1-0.3
			l0.2-0.3l0.8-0.2l0.6-0.3l0.2-0.7l-0.1-0.6l-0.1-0.7l0.3-0.3l0.4,0.2l0.2,0.3l0.7,0.3l0.4-0.1l0.2-1.2v-0.7l0.2-0.7l0.5-0.4
			l0.5,0.3h0.3l0.6-0.2l0.5-0.4l0.7-0.3l1.3,0.1l0.4-0.3l0.1-0.5l0-0.6l0.2-0.7l0.3-1.1l0.7-0.6l1.1-0.3l0.7,0.1l0.7,0.1l1,0.3
			l1.1,0.3l1.2,0.6l1.3,0.1l0.9,0.2l0.7-0.3l0.5-0.3l0.5-1.3l0.4-3.2l0.2-0.2l0.2-0.2l1.5,0.2h1.2l0.7,0.1l0.3,0.2l0.2,0.8l0.1,0.9
			l0.1,1.3l0.2,1.2l0.2,0.8l0.1,0.2l0.2,0.5l-0.1,0.3l-0.2,0.7l-0.4,0.3l-0.2,0.1l-0.3,0.3l-0.1,0.7l0.2,0.5l0.5,0.6l0.3,0.6
			l0.5,0.5l0.2,0.8l-0.2,0.7l-0.2,0.6l-0.8,0.3l-0.5-0.1l-0.4-0.4l-0.7-0.1l-0.3,0.3l-0.1,0.7v0.8l-0.2,0.7l-0.5,0.5l-0.6,0.3
			l-0.7,0.1l-0.6-0.4l-0.4-0.5l-0.6-0.3l-0.2,0.2l-0.1,0.1l0.2,0.4l-0.1,0.8l-0.3,0.7l-0.5,0.4l-0.5-0.1l-0.4,0.2l-0.1,0.6l0.2,0.3
			v0.6l-0.1,0.6l-0.3,0.8l0.3,0.6l0.4-0.1l0.4-0.8l0.1-0.8l0.3-1l0.7-0.7l0.8-0.1l1,0.1l1.7-0.3l0.4-0.5l0.1-1.3l0.7-0.7l0.8-0.4
			l0.8-0.2l0.7-0.4l0.6-0.5l1.1-0.2l0.3-0.1l0.9,0.5v0.5l0,0.8l0.1,0.4l0.8-0.1l0.4-0.3l0.2-0.1l0.8-0.1l0.7,0.9l0.4,0.6l0.8,0.3
			l0.3-0.2l0.7-0.1h0.7l0.5,0.2l0.6,0.2l0.9-0.3l0.7-0.2l0.8,0l1.1,0.3l0.6-0.3l0.1-0.5l-0.1-0.3l-0.9,0.3l-0.5-0.2l-1.8-0.3
			l-1.3-0.1l-0.7-0.1h-0.8l-0.6-0.3l-0.4-0.3l-0.6-0.6l-0.8-0.6l-0.7,0.3l-0.5-0.2l0.3-1.4l-0.2-0.4l-1-0.6l-0.5-0.5l-1.2-0.5
			l-0.4-1.1l0.6-0.4l0.7-0.4l0.6-1.3l0.1-0.8l-0.2-1.5l0.9,0.4l0.7,0.2l0.8-0.1l0.3,0.3l0,0.9l0.3,0.5l0.9,0.4l0.7,0.4l0.4,0.6
			l0.6-0.1l0.3-0.9l0.2-1.1l0.1-0.9h-0.7l-0.4,0.2l-0.5,0.3l-0.7,0.2l-0.2-0.3l0-0.5l0.3-0.4l0.3-0.6l-0.3-0.3l-0.7,0.3l-0.6,0.2
			l-0.4-0.2l-0.2-0.5l-0.4-0.8l-0.4-0.3l-0.3,0.8l-0.5-0.2l-0.5-0.3l-0.3,0.1l-0.4,0.5l-1,0.2l-0.6-0.3l-0.3-0.3l-0.3-0.2l-0.2-0.4
			l-0.2-0.6l-0.1-1.3v-1.1l-0.1-1.6v-0.3l0.1-1.5l0.3-3l0.3-0.3l0.7,0.3l0.4,1.4l1.1,0.7l0.5-0.5h0.7l0.2,0.5l1,0.1l0.2,0.6l0.2,0.6
			l0.9,0l0.8-0.3l0.9,0l0.5-0.4v-0.6l0.4-0.9l-0.3-0.2l-0.2-0.1l-0.5-0.1l-1,0.1l-1,0.1l-1.2-0.3l-0.5-0.3V482l1,0l1.2,0.1l0.7,0
			h0.5l1.2,0.4l1.1,0.6l1.9,1.5l2.7,2.1l3.5,1.2l2.7,0.7l0.7,0.1l0.5,0.1l0.2,0.9v0.3l-0.3,0.7l-0.3,0.6v0.7l-0.3,0.7l-0.3,0.1
			l-0.5-0.1l-0.4-0.3h-0.5l-0.6,0.2l-0.5,0.4l-0.8,0.3l-0.3,0.3l0.3,0.3h0.4l0.5,0.5l0.3,0.3l0.7-0.2l1.6-0.6l1-0.3l0.4,0.1l0.6,0.2
			l0.1,0.2l0.2,0.3l0.3,0.6l0.4,0.7l0.7,0.4l0.5,0.3l0.3,0.8l0.2,1l0.7,0.2l0.9,0.1l0.7-0.5l-0.3-0.6l-0.5-0.3l-0.4-0.4l-0.3-0.4
			l-0.2-0.4l-0.3-0.8l-0.2-0.8l-0.2-0.5l-0.8-0.4l-0.4-0.1l-1.2-0.2l-0.7-0.4v-0.7l0.4-0.5l0.3,0.1h0.7l0.5,0.3l0.6,0.3l0.3-0.3
			l-0.2-0.3l-0.3-0.2l-0.5-0.3l-0.4-0.2l-0.4-0.3l0.1-0.6l0.2-0.5h1.4l0.6,0.2l0.6,0.2h1l0.5,0.2l0.7,0.4l0.2,0.1l1,0.4l1.4,0.5
			l1.2,0.5l0.9,0.2l0.7,0.1l0.3,0.5l-0.2,0.8l-0.6,0.7l-0.4,0.6l-0.3,0.7l-0.3-0.5l-0.4,0.3l-0.1,0.4l-0.2,0.7l-0.5,0.6l-0.2,0.4
			l0.1,0.5l0.5,0.1h0.6l0.5,0.1l0.2,0.3l-0.1,0.7l-0.7,1.1l-0.6,1l-0.5,0.6l-0.2,0.5l0.1,0.3l0.6-0.1l0.8-0.2l0.9-0.4l0.5-0.3
			l0.3-0.6l0.1-0.7l0.1-1.1l0.2-0.6l0.3-0.2v-0.3l-0.4-0.3l-0.3-0.5l-0.1-0.8l0.3-0.8l0.6-0.3l0.6-0.1l0.6,0.6l0.7,0.9l0.5,0.4
			l0.8,0.2l0.2,0.4l-0.3,0.4l-0.4,0.1l-0.5,0.3l0.2,0.5l0.4,0.7l0.1,0.4l-0.5,1.2l0.2,0.7l0.5,0.1l0.8-0.3l0.3,0l0.3,0.5l0.4,0.4
			l0.7,0.4l0.5,0.1l0.5-0.3l-0.2-0.8l-0.6-0.4l-0.5-0.3l-0.4-0.6l-0.4-0.9l-0.1-0.4l0.4-0.3l0.5-0.2l0.2-0.5l0.3-0.5l-0.2-0.3
			l-0.4-0.4l-0.5-0.4l-0.4-0.6l-0.1-0.4l0.1-0.7l-0.1-0.8l-0.3-0.3l-0.6-0.1l-0.9-0.1l-1.2,0.1l-0.5-0.6l-0.4-0.8l0.2-0.7l1-0.5
			l0.7-0.2l0.9-0.1l0.8-0.3l0.7-0.4l1.1-0.7l0.7-0.8l0.1-0.1l1-0.8l1.6-0.2l1.2-0.1l1.7,0.5l2.1,1.4l0.5,0.8l0.2,1.3l0.2,0.5
			l0.7,2.6l0.4,2.1l0.5,2.7l0.8,2.7l0.6,2.5l0.6,2.8l0.2,1.2l0.2,1.5l0.5,1.9l0.7,2.8l0.6,2l0.5,2l0.2,0.4l0.8,1.7l0.7,2.5l1.8,4.3
			l0.7,2.2l1.1,2.6l0.8,1.8l0.5,0.8l0.5,1.5l0.7,1.6l0.7,2.2l0.8,1.9l0.2,0.9l0.6,2l0.7,1.2l0.7,1.7l0.4,2l0.5,2.7l0.5,2.6l0.4,2.6
			l-3.5,0.2l0.8-0.9v-0.5l-0.1-0.4l-0.7,0.1l-0.5,0.3l-0.2-0.4l-0.1-0.5l-0.1-0.8l0.1-0.7v-0.7l0-0.7l0.3,0.4l0.4,0.5l0.4,0.2
			l0.3-0.3l-0.2-0.4l-0.3-0.9l-0.3-0.7l-0.1-0.9l0.3-0.1l0.8-0.2l-0.2-1l-0.7-0.9l-0.8-0.7l-1.1-0.9l-0.5-1l-0.3-1.3l-0.2-1.2
			l-0.1-0.7l-0.2-1.3l-0.3-1.9l-0.2-1.3l-0.2-1.4l-0.2-0.8l-0.7-1.6l-0.4-0.8l-0.5-1.1l-0.2-0.3l-0.5-1.1l-0.7-1.9l-0.3-1l-0.4-0.8
			l-0.3,0.2h-0.4l-0.2-0.3l-0.3-0.9l-0.5,0.2l-0.2,0.6l-0.6,0.8l-0.6,0.1l-0.5-0.4l-0.1,0.6l-0.1,0.5v0.5l-0.1,0.8l0.1,0.9l-0.1,1.2
			l-0.2,1.1l-0.2,1.2l-0.3,0.8l0.1,0.6l0.2,0.3l0.2,0.5v0.2l-0.1,0.3l-0.3,0.3l-0.3,0.9v0.8l-0.3,1.4l-0.5,0.9l-0.5,0.5l-0.6,0.3
			l0,0.3l0.2,0.4l0.7,0.5l-0.4,1.1l0,0.8l0.6,0.1l0.3,0.4l-0.2,0.5l-0.5,0.5l0.2,1.1l0.1,1l0.3,1.1l0.2,1.7l-0.5,0.8l-0.6,0.5
			l-0.3,0.8l0.1,0.9l0.2,0.4l0.1,0.8l0.1,0.7l0.2,1.1l0.5,1l-1.6,0.1l-2.6,0.1l-0.4-1.4l-0.1-0.3l0.2-0.6l0.1-0.9l-0.7-0.8l-0.3-0.3
			l-0.7-0.3l-0.3-0.4l-0.4-0.6h-1l-0.3-0.5l-0.1-0.3l-0.3-0.3l-0.6-0.5v-0.7l-0.3-0.4l-0.7-0.1l-0.3-0.3l-0.3-0.3l-0.7-0.6l-0.3,0.1
			l-0.3,0.1l-0.1,0.2l-0.1,0.2l-0.1,0.4l0.2,0.4l0.5,0.3l0.2,0.1l0.3,0.2l0.5,0.4l0.5,0.4l-0.1,0.3v0.3l0.1,0.5l0.6,0.4l0.5,0.2
			l0.2,0.3l0.1,0.3v1.3l0.2,0.4l0.3,0.3l0.7,0.2l0.2,0.5l0,0.9v1.3l-12.6,0.4l-13.4,0.4l-3.9,0.1l-7.4,0.2l-3,0.1l-9.6,0.2l-5.9,0.2
			l-8.4,0.2l-2.1,0l-7.3,0.2l-0.1,0l-0.6,0l-1,0l-3.3,0.1l-7.5,0.2l-31.5,0.5l-10.6,0.2l-0.1,1.3l-20.6,0.3l-14.4,0.2l-16.9,0.2
			l-4.5,0.1l-26.3,0.3l-31.4,0.4l-9.5,0.1l-19.7,0.2h-1.3l-20.2,0.1l-11.1,0l-14.5,0.2l-11.6,0.2l-2.8,0.1l-2.4,0.1l-0.9,0.1
			l-1.7,0.1l-5.3,0.2l-1.3,0.1h-0.7l-6.8,0l-0.3,0l-0.7,0l-4.7,0.1l-2.3,0l-1.5,0l-4.4,0h-3.6l-1.3,0l-21.3-0.2l-5.3-0.1l-4.8-0.1
			l-18.6-0.1l-7.2-0.1l-24.4,0.3l-5.8,0.1l-5.2,0.1l-15.1,0.2l-3-0.1l-8.2-0.2l-10.4,0.2l-6,0.1l-0.7,0l-12.9-0.3l-16.1-0.4
			l-14.5-0.4l-30.1-0.5l-1.2,0l-3.5,0l-26.5-0.5l-6.1-0.1l-23.5-1.7l-0.2,0l-25-1.8l-5.9-0.4l-27-0.8l-3.7-0.1l-5.2-0.3l-1.2-0.1
			l-0.7,0l-22.8-1.4l-30.3-1.9l-6.6-0.4l-3.9-0.3l-2.9-0.2l-17.2-1.9l-14.4-1.8l-12.8-0.6l4.2-4.3l-0.9-0.1l-11.4-0.5l-13.7-0.7
			l-0.8,0l-4.4-0.3l-8.8-0.5l-1.9,4l-9.1-0.4l-1.6-0.1l-3.3-0.2l-0.7,0l-15.8-0.6l-12.4-0.6l-1.1-0.2l-8.1-0.2l-29.6-1l-16.5-0.6
			l-21.8-0.9l-10.2-0.5l-22.5-1l-5.2-0.2l-33.8-1.7l-2.9-1.3l-28.8-1l-2.6-0.2l-14.9-0.8l-4.7-0.3l-3.3-0.6l-4-0.3l0.9-1l0.9-0.9
			l1-0.7l0.7-0.7l0.5-0.6l1-0.4l0.8-0.1l1-0.2l0.4-0.1l0.8-0.3l0.6-0.3l0.6-0.5l0.5-0.5l0.5-0.2l0.8-0.3l0.3,0l1-0.5l1.8,0.2l2-1
			l1.9-0.7l2.4-1l1.2-1.1l4.4-0.9h0.2l0.6,0.1l0.7,0.2l0.7,0.2l0.8,0.2l0.1,0l1.1,0.2l0.7,0.2l0.7,0l0.7-0.1l1-0.2l1.3-0.1l0.9,0.1
			l0.1,0l0.6,0l0.5-0.1h0.4l1.1-0.2l1-0.3l0.7-0.3l1-0.6l0.5-0.6l0.7-0.6l0.7-0.6l0.8-0.3l1.1-0.4l1-0.2l2-0.7l2.3-0.8l2.5-0.6
			l0.1,0l3.3-0.8l3.4-0.9l1-0.3l2.6-0.7l2.3-0.7l0.1-0.1l3-0.9l1.3-0.3l0.9-0.2l0.8-0.1l1.3-0.2l1.7,0.1l1.6,0.1l1.3,0l0.7-0.1
			l0.5,0l0.6-0.3l0.3-0.3l0.4-0.6l0.4-0.6l0.3-0.8l0-0.2l-0.1-1.2l-0.1-1.6l0-1.2v-0.1l-0.3-0.7l0-0.3l0-0.1l1.2-0.4l1.3-0.9
			l0.6-0.7l0.3-0.5l0.3-0.4l0.3-0.6l0.4-0.5l0.3-0.3l0.3-0.2l0.2-0.6l0.1-0.2l0.1-0.5l0.1-0.5l0-0.5l0-0.4v-0.7l0-0.6l0.3-0.3
			l0.3-0.3l1-0.8l0.6-0.3l0.5-0.2l0.4-0.1l0.3-0.1l0.3-0.3l0.1-0.4V494l0.1-0.5l0.4-0.3l0.3-0.2l0.4,0.1l0.7,0.1l1.1,0.1l0.5-0.1
			l0.6-0.1l0.9-0.2l0.8,0l0.7,0.1l0.2,0.1v0.2l0.2,0.5l0.6,0.3l1.1,0.5l0.9,0.1l0.4-0.6l0,0l0.1,0l0.7-0.9l2-0.5l0.7,0.1h1l0.7-0.1
			l1.1-0.2l1.5-0.8l2.7-0.9l1.2-0.3l0.8-0.2l0.6-0.1l0.4-0.1l0.5-0.2l0.3-0.3l0.3-0.3h0l1.7-0.3l1.3-1.2l0.2-0.1l0.6-0.4l0.3-0.3
			l0.3-0.3l0.3-0.3l0.3-0.4l0.2-0.4v-0.5l-0.2-0.3l-0.2-0.5v-0.6l0.2-0.4l0.3-0.4l0.3-0.6l0.4-0.5l0.4-0.6l0.3-0.7l0.1-1.2l-0.3-1
			l0.4-1.5l0.6-0.9l-0.2-0.4l-0.4-0.4l-0.4-0.4l-0.2-0.4l-0.2-0.5l-0.1-0.5l-0.2-0.5l0-0.6v-0.2l0-0.3l0.2-0.3l0.3-0.5l0.2-0.1
			l0.3-0.2l0.4,0l0.5-0.2l0.3-0.4l0.2-0.1l0.4,0.1l1.4-0.4l0.7-0.7l0.4-0.3l0.4-0.7l0.1-0.5l0.1-0.3l0.1-0.4l0.3-0.3l0.4-0.3
			l0.4-0.1h0.3l0.8,0l0.6-0.1l0.7-0.3l0.4,0h0.4l0.2,0.2l0.3,0.2l0.4,0.1l0.3-0.1l0.5-0.2l0.5-0.2l0.2-0.3l0.5-0.7l0.2-0.1l0.5-0.2
			l0.8-0.8l1-0.8l1.3-0.2l0.4,0.1l0.3-0.1l0.2-0.2l0.3-0.6l0.1-0.7l0.1-0.6l0.2-0.5l0.4-0.3l0.5-0.1l0.6-0.1l0.4,0.1h0.4l0.3-0.1
			l0.4-0.6l0-0.7l-0.1-1.4l-0.1-1l-0.1-0.7l-0.1-0.5l0.2-0.6l0.2-0.3l0.4-0.2l0.4-0.4l0.1-0.4l-0.2-0.5l-0.2-0.4l-0.2-0.4l-0.1-0.5
			l0.1-0.6l0-0.8l0-0.9l-0.3-1.1l-0.1-0.7l0-0.5l0.2-0.3l0.3-0.5l0.5-0.3l0.8-0.5l1.9-1l1.4-0.8l0.5-0.4l0.6,0l0.4,0l0.7-0.2
			l0.4-0.2l0.5-0.3l0.4-0.3l0.7-0.3l0.3-0.5l0.4-0.3l0.8-0.4l0.7-0.2l0.7-0.3l0.4-0.2l0.6-0.2l0.4-0.3l0.5-0.4l0.6-0.5l0.9-0.7
			l1-0.7l0.8-0.4l0.4-0.2l0.6-0.3l0.4-0.5l0.3-0.3l0.4-0.3l0.3-0.2l0.6-0.4l0.7-0.5l0.6-0.3l0.7-0.6l0.6-0.4l0.5-0.3l1.2-0.8
			l0.4-0.2l0.3-0.1l0.6-0.2l0.7-0.3l0.5,0l0.5,0l0.3-0.2l0.3-0.2l0.2-0.2l0.3-0.3l0.4-0.2l0.4,0l0.6-0.1l0.5-0.3l0.4-0.2l0.6-0.6
			l0.2-0.4l0.3-0.2l0.4-0.2l0.4-0.1l0.4,0l0.3,0h0.1l0.3,0l0.4-0.3l0.4-0.3l0.4-0.3l0.4-0.3l1.1-0.3l1.2-0.3l1-0.6l0.7-0.4l0.1-0.1
			l0.8-0.3l0.7-0.2l0.7-0.2l0.4-0.2l1.1-0.2l1.4-0.4l0.8-0.2l0.8-0.2l1.2-0.1l1.8-0.5l1.7-0.5l3-0.9l0.7-0.4l0.6-0.3l0.3-0.4l0-0.5
			l0-0.4l0.2-0.3l0.2-0.1l0.3-0.2l0.5-0.1h0.1l0.3,0l0.5-0.1l0.5-0.3l0.6-0.4l0.4-0.5l0.1-0.3l0.4-0.6l0.5-0.4l1.8-1.5l1.2-1
			l29.2-24.6l18.6-15.7l0.7-0.1h0.5l0.2,0.2l0.1,0.1l0.2,0.2l0.1,0.2l0.2,0.4l0.1,0.1l0.2,0.1l0.2-0.1l0.1-0.1l0.2-0.1l0.3,0.1
			l0.2,0.2l-0.1,0.2l-0.2,0.7l0,0.2l0,0.3l0.1,0.2l0.1,0.1l0.1,0.1l0.2,0.3v0.4l-0.2,0.3l0.1,0.3l0.4,0l0.3-0.2l0.3-0.4l0.2-0.2
			l0.4-0.1l0.3,0.2l0.1,0.4v0.3l-0.1,0.3l-0.3,0.1l-0.6,0.4l-0.4,0.2l-0.4,0.3l-0.2,0.2l-0.2,0.4l-0.2,0.4l-0.1,0.1l-0.2,0.1
			l-0.2,0.1l-0.2,0l-0.1,0l-0.1,0.1v0.3l0.1,0.4l0.1,0.5l-0.3,0.4l-0.1,0.1l-0.4,0l-0.2,0l-0.4-0.1l-0.2-0.1l-0.4,0l-0.4,0.1
			l-0.4,0.2l-0.1,0.1l-0.5,0.3l-0.2,0.1l-0.3,0.2l-0.4,0.2l-0.7,0.2l-0.6,0.2l-0.5,0.4l-0.3,0.4l-0.2,0.6l0,0.8l0.3,1.1l0.4,0.9
			l0.3,0.5l0.3,0.4h0.4l0.5,0l0.6,0.3l0.3,0.2l0.2,0.1l0.1,0.3l0.1,0.2l0.2,0.5l0.2,0.3h0.4l0.4-0.1l0.6,0.1l0.2,0.2l0.2,0.1
			l0.6,0.3l0.6,0.4l0.1,0.1l0.3,0.2l0.5,0.2l0.4,0.3l0.2,0.2l0,0.3l0,0.2l-0.1,0.5l-0.1,0.3l-0.1,0.8l0.1,0.4l0.2,0.8l0.4,0.6
			l0.5,0.4l0.2,0.3l0.1,0.1l0.2,0.3l0.1,0.5l-0.2,0.2l-0.2,0.2l-0.3,0.3l-0.1,0.3l0,0.4l-0.3,1.4l-0.2,0.7l-0.1,0.7l-0.1,0.7
			l-0.1,0.4l0.3,1l0.1,0.3v0.3l0.1,0.3l0.1,0.5l0.2,0.4l0.1,0.5l0.1,0.3l0.4,0.5l0.2,0.2l0.3,0.4l0.1,0.2l0.1,0.3l0.3,0.3l0.1,0.1
			l0.4,0.3l0.4,0.3l0.4,0.6l0.1,0.2l0.1,0.2l0.5,0.5l0.2,0.5l0.2,0.4l0.2,0.3l0.2,0.2l0.3,0.3l0.4,0.3l0.2,0.1l0.7,0l0.4-0.2l0.4,0
			l0.4,0.3l0.2,0.3l0.2,0.3l0.1,0.2l0.2,0.4l0.4,0.3l0.3,0.3l0.1,0.3l0.1,0.5l-0.1,0.6l0,0.6l0.2,0.3l0.2,0.3l0.5,0.1l0.5,0.2
			l0.1,0.2l0,0.1v0.4l-0.1,0.9l0.1,0.8l0.1,0.3l0.2,0.2l0.1,0.2l0.4,0.1l0.3,0.1l0.1,0l0.2,0.1l0.2,0.1l0.4,0.2l0.2,0.1l0.3,0.2
			l0.2,0.1l0.1,0.1l0.5,0.5l0.4,0.3l0.8,0.2l0.7-0.2l0.5-0.3l0.1-0.1l0.6-0.3l0.7-0.1l0.6-0.1l0.5,0.2l0.8,0.2l0.9,0.4l0.4,0.3
			l0.1,0.1l0.4,0.4l0.4,0.3l0.3,0.1l0.5,0.1l0.4-0.1l0.5,0l0.1,0.1l0.2,0.1l0.2,0.3l0.2,0.5l0.3,0.2l0.1,0.1l0.1,0.2l0.2,0.2
			l0.3,0.5l0.1,0.3l0.3,0.8l0.3,1.7l0.2,0.9v0.4l0.1,0.3l0.2,0.2l0.3,0h0.3l0.4,0h0.5l0.2,0.1l0.3,0.1l0.2,0.1l0.3,0.2l0.5,0.6
			l0.4,0.6l0.2,0.3l0.7,0.8l0.6,0.5l0.3,0.3l0.7,0.8l0.6,0.4l0.4,0.3l0.5,0.3l0.1,0.1l0.4,0.6l0.2,0.5l0.4,0.5l0.5,0.1l16.7-0.4
			l0.9-0.7l0.1-0.1l0.4-0.3l0.6-0.5l0.7-0.5l0.7-0.3l0.7-0.2l1-0.5l0.9-0.3l0.9-0.6l0.5-0.3l0.4-0.6l0.3-0.7l0.2-0.7l0.1-0.8
			l0.3-0.7l0.5-0.5l0.2-0.1l0.2,0.1l0.4,0.4l0.5,0.4l0.6,0.1l0.2-0.1l0.3-0.1l0.5-0.2l0.3-0.3l0.5-0.4l0.5-0.3l0.4,0l0.3-0.2
			l0.3-0.4l0.4-0.4l0.3-0.3l0.2-0.2l0.7-0.6l0.6-0.2l0.3-0.2l0.4-0.1l0.3-0.1l0.3,0.1l0.3,0.1l0.4,0.1h0.7l0.5-0.2l0.5-0.1l0.6-0.6
			l0.3-0.3l0.2-0.3l0.5-0.9l0.5-1.2l0.2-0.5l0.3-0.8l0.3-0.7l0.3-0.6l0.2-0.6l0.2-0.6l0.3-0.5l0.3-0.4l0.3-0.3l0.6-0.3l0.2-0.1
			l0.2-0.1l0.4-0.1l0.3-0.1l0.8-0.3l0.5-0.2l0.5-0.9l0.5-1.1l0.2-0.4l0.2-0.1l0.3,0.2l3.4,4.2l3,3.7l9.2,8.8l0.7,0.7l2.1,2.1
			l1.3-0.4l0.1-0.1l0.9-0.5l0.7-0.4l0.3-0.2l1.5-1l0.3-0.2l1.1-0.6l1.1-0.7l1.3-0.7l1.4-0.7l2.2-0.7l1.6-0.5l1.6-0.7l2.5-0.7
			l1.6-0.4l1.9-0.3l1.7-0.3l1-0.1l1-0.1l1.9-0.4l0.1,0l1.4-0.2l2.5-0.7l0.8-0.2l2-0.6l1-0.3l0.5,0.1l0.4,0.3l0.3,0.5v0.3l0.2,0.4
			l0.1,0.1l0.1,0.1l0.2,0l1,0.1l0.5-0.1l0.8-0.1l0.4-0.1l1.1-0.4l1.4-0.5l0.7-0.3l2-1l1.4-0.7l1.8-1.2l1-0.8l0.8-0.8l0.7-0.7
			l0.3-0.2l0.4-0.4l0.5-0.4l0.4-0.3l0.9-0.6l0.8-0.6l0.7-0.3l0.4-0.4l0.2-0.4l-0.4-0.7l-2.4-3.4l-0.4-0.5l-0.6-0.8l-0.5-0.8
			l-0.1-0.6l0.3-0.7l0.4-0.7l2-3.1L439,400l-0.1-0.5V399l0-0.1l0.4-0.8l0.1-0.2l0.8-1.2l0.6,0.5l0.7,0.4h0.9l0.8,0.2l0.7,0.5l1.1,1
			l1.2,1l0.8,1l0.7,0.9l0.4,0.6l0.2,0.3l0.3,0.2l0.3,0.1l0.1,0l0.3,0.1l0.1,0l0.5,0l0.5,0.2l0.4,0.3l0.6,0.9l0.5,1.1l0.7,1.7
			l1.2-0.3l1.4-0.5l0.3-0.2l1.2-0.5l1.7-0.7l0.9-0.5l0.7-0.4l2.1-1.1l0.1,0l3-1.7l2.1-1.1l2.6-1.5l2.3-1.5l1.3-0.8l0.8-0.6l0.6-0.4
			l0.7-0.3l0.8-0.4l0.4-0.2l0.3-0.2l0.6-0.4l1.3-0.9l1.3-1.1l1.1-0.8l0.9-0.6l1.6-0.8l0.9-0.4l1.3-0.4l1.4-0.3l1.8-0.5l0.4-0.1
			l0.5-0.1l0.6-0.1l0.4,0.2l0.4,0.2l0.3,0.5l0.2,0.6l0.4,1.2l0.3,1.3l0,1.3l-0.1,0.8l0,0.4l0,0.4l0.1,0.5l0.2,0.4l0.2,0.3l0.1,0.1
			l0.2,0.4l0.3,0.4l0.4,0.3l0.4,0.7l0.6,0.3h0.5l0.3-0.1l0.7-0.3l0.6-0.2l0.9-0.3l0.7-0.3l0.6-0.5l0.3-0.3l0.3-0.3l0.8-0.7l1.4-1.3
			l1.4-1.1l1.9-1l2.2-1.1l1-0.5l0.7-0.3l0.3-0.2l0.5-0.3l0.2-0.2l0.1-0.2l0.3-0.4l0-0.6l0.3-0.5l0.8-0.6l0.6-0.2l0.5-0.3l1.2-0.3
			l2.1-0.7l1.6-0.6l0.8-0.4l0.8-0.6l0.1-0.1l0.4-0.4l0.6-0.6l0.8-1l0.7-1.3l1.1-2.1l-0.8-0.5l-1-0.6l-1.8,2.1l-3.8-1.6l3.1-1.7
			l-1.9-3.8l4.4-2.4l1.9-1l1.1-0.6l2-1.3l1.9-1.6l1.7-1.5l1-1.1l0.7-1l0.5-0.7l-6.2-4l-1.8-1.7l-4.2-6h0l0.6-0.2l0.2-0.1l0.4-0.2
			l0.3-0.1l0.4-0.2l0.9-0.6l0.7-0.6l0.3-0.3l0.2-0.4l0.3-0.4l0.3-0.5l0.5-0.8l0.3-0.5l0.2-0.4l0.2-0.4l0.3-0.2l0.4-0.2l0.5-0.3
			l0.3-0.4l0.2-0.4l0-0.4l-0.3-0.6l-0.3-0.3l-0.3-0.5l-0.3-0.4l-0.2-0.3l0.1-0.4l0.1-0.2l0.1-0.3l0.4-0.8l0.4-1.2l0.8-1.1l0.5-0.9
			l0.8-0.9l1.1-0.9l0.6-0.4l0.5-0.1h0.8l0.2-0.2l0.1-0.3l-0.1-0.4l-0.2-0.3l-0.5-0.3l-0.2-0.6l-0.1-0.2l0-0.3l-0.1-0.7l0-0.3
			l0.1-0.4l0.2-0.6l0.6-0.9l0.8-0.8l0.7-0.7l0.4-0.5l0.4-0.6l0.3-0.8l0.5-0.7l0.4-0.5l0.4-0.2l0.4-0.2l0.2-0.2l0.2-0.1l0.3-0.3
			l0.3-0.3l0.3-0.4l0.1-0.3l-0.2-0.5l0-0.5l0-0.4l0.2-0.4l0.4-0.6l0.2-0.4l0.3-0.6l0.2-0.4l0.1-0.2l0.2-0.3l0.3-0.5l0.3-0.4l0.4-0.6
			l0.1-0.1l0.9-0.9l0.6-0.5l0.4-0.2l0.5-0.2l0.1,0h0.2l0.4,0l0.2-0.1l0.2-0.1l0.1-0.1l0.2-0.1l0.1-0.1l0.3-0.4l0.4-0.6l0.4-0.3
			l0.4-0.3l0.4-0.3l0.1-0.1l0.2-0.3l0.6-0.8l0.8-1.3l0.5-0.5l0.7-0.7l0.6-0.5l0.1-0.1l0.4-0.3l0.4-0.3l0.2-0.4l0.5-0.8l0.5-0.7
			l0.6-0.6l0.3-0.3l0.1-0.1l0.3-0.3l0.7-0.6l0.5-0.4l0.7-0.4l0.9-0.8l0.2-0.2l0.8-0.8l0.2-0.3l0.3-0.4l0.4-0.4l0.2-0.3l0.3-0.4
			l0.2-0.2l0.6-0.7l0.6-0.5l0.7-0.6l0.5-0.5l0.3-0.3l0.7-0.7l0.8-0.7l0.7-0.6l0.3-0.2l0.6-0.4l0.2-0.4l0.2-0.3l0.1-0.6l0.2-0.7
			l0.2-0.4l0.2-0.4l0.2-0.3l0.4-0.3l0.1-0.3l0.2-0.4l0.4-0.7l0.4-0.5l0.2-0.3l0.2-0.3l0.4-0.6l0.3-0.7l0.3-0.7l0.3-1.1l0.7-2.1
			l0.3-0.8l0.2-0.4l0.2-0.6l0-0.2l0.1-0.3l0.3-0.8l0.2-0.4l0.1-0.3l0.2-0.5l0.4-0.8l0.4-0.6l0.6-0.7l0.3-0.5l0.1-0.1l0.8-0.9
			l0.7-0.8l0.2-0.5l0.2-0.4l0.1-0.4l-0.3-0.3l-0.1,0l-0.3-0.1l-0.3-0.2l-0.2-0.2l-0.1-0.1l-0.1-0.1l-0.2-0.3L574,271l0-0.1l-0.1-0.8
			l0-0.2v-0.5l-0.1-0.7v-0.4l0-0.2l0.1-0.2l0.2-0.1l0.1-0.1l0.4-0.2l0.2-0.1l0.5-0.2l0.2-0.3l0.2-0.4l0.2-0.6l0.3-0.5l0.3-0.4
			l0.4-0.4l0.2-0.2l0.1-0.2l0.1-0.4l0-0.1v-0.5l0-0.2v-0.3l0.2-0.3l0.1-0.1l0.2-0.5l-0.2-0.3l-0.2-0.3l-0.2-0.4l0.1-0.3V260
			l-0.2-0.4l-0.1-0.5l0.2-0.4l0.3-0.3l0.9-0.5l0.7-0.2l0.5-0.3l0.4-0.3l0.2-0.2l0.3-0.9l0.3-0.5l0.3-0.3l0.4-0.4l0.4-0.2l0.4-0.2
			l0.1-0.1l0.3-0.2l0.3-0.2l0.2-0.2l0.3-0.3l0.6-0.9l0.6-0.8l0.3-0.7l0.2-0.4l0-0.1l0.3-0.3l0.4-0.3l0.2-0.2l0.3-0.3l0.2-0.3
			l0.1-0.2l0.1-0.1l0.4-0.4l0.2-0.1l0.1,0l0.2-0.1l0.2-0.1l0.6-0.1l0.3-0.1l0.2-0.3l0.2-0.4l0.2-0.2l0.2-0.1l0.1-0.1h0.3l0.5-0.2
			l0.1,0l0.3-0.1l0.3-0.2l0.3-0.3l0.1-0.5l0.3-0.5l0.3-0.3l0.5-0.1l0.4-0.2l0.5-0.3l0.6-0.3l0.7-0.4l0.3-0.4l0.2-0.8l-0.2-0.7
			l-0.2-0.9l-0.4-0.9l-0.3-0.8l-0.1-0.1l-0.3-0.4l-0.3-0.4l-0.2-0.2l-0.1-0.1l-0.2-0.3l-0.4-0.5l-0.3-0.6v-0.5l0-0.3l0.1-0.2
			l0.1-0.4l0.2-0.3l0.2-0.3l0.4-0.5l0.3-0.5l0.3-0.4l0.2-0.2l0.3-0.3l0.8-0.6l0.8-0.5l0.1-0.1l0.4-0.4l0.6-0.6l0.6-1.2l0.1-0.3
			l0.3-0.6l0.2-0.5l0.1-0.1l0.3-0.4l0.3-0.3l0.1-0.1l0.2-0.1l0.3-0.1h0.3l0.2,0l0.2,0.1l0.3,0.1l0.3,0.1l0.2,0l0.5,0.1l0.6-0.1
			l0.2-0.1l0.3-0.2l0.2-0.2l0.1-0.1l0.2-0.3l0.3-0.4l0.1-0.5l-0.1-0.5l-0.2-0.5l-0.2-0.3l-0.1-0.4l0.1-0.7l0.1-0.5l0.4-1.2l0.3-0.7
			l0.1-0.2l0.3-0.6l0.1-0.2l0.1-0.2l0.1-0.4l0.1-0.3l0.1-0.2l0.1-0.2l0.3-0.5l0.2-0.3l0.3-0.4l0.1-0.2l0.3-0.4l0.4-0.6l0.1-0.2
			l0.2-0.3l0.3-0.4l0.4-0.4l0.3-0.4l0.1-0.3l0.1-0.2l0.1-0.1l0.1-0.3l0.2-0.3l0.3-0.3v-0.6l0.1-0.4l0.2-0.3l-0.1-0.4l-0.1-0.3
			l-0.1-0.4l0.2-0.5l0.3-0.5l0.1-0.7l0-0.5l-0.2-0.8l-0.2-0.6l-0.3-0.5l-0.1-0.1l-0.3-0.4l-0.2-0.3l0-0.1v-0.4l0.1-0.5l0.1-0.5
			l0-0.4v-0.3l0-0.9l0-0.3l0.1-0.3l0-0.2l0.1-0.3l0.3-0.4l0.3-0.4l0.2-0.3l0.2-0.2l0.1-0.1l0.3-0.5l0.2-0.4l0.1-0.1l0.3-0.3l0.3-0.4
			l0.4-0.1l0.4-0.1h0.5l0.4-0.1l0.4-0.2l0.2-0.3l0.1-0.3l-0.1-0.4l-0.3-0.9l-0.2-0.3l-0.2-0.4l-0.2-0.3v-0.3l0.2-0.3l0.3-0.4
			l0.1-0.3l0-0.1l-0.1-0.4l-0.2-0.4l-0.1-1l0.2-1.2l0.2-0.4l0.1-0.3l0.2-0.4l0.1-0.1l0.2-0.2l0.2-0.2l0.2-0.3l0-0.3l-0.2-0.4
			l-0.1-0.4v-0.1l0-0.1l0.3-0.6l0.3-0.3l0.3-0.5l0.2-0.5l0.1-0.3l0.1-0.1l0.2-0.4l0.2-0.6l0.3-0.4l0.3-0.2l0.3,0h0.1l0.3,0.1
			l0.1,0.1l1.4,0.7l1.6,0.9l1.5,0.9l2.2,1.3l0.5,0.3l1.1,0.5l1.1,0.4l0.5,0.2l1,0.3l1.2,0.5l0.7,0.3l0.7,0.3l0.1,0.1l0.7,0.5
			l0.3,0.4l0.2,0.4l0.5,0.9l0.8,1.2l0.3,0.5l1,1.8l1.1,2l2,3.9l2.7,7.1l8.6,3.1l3.2,1.2l4.6,1.7l2.4,0.9l1.7,0.6l1.8,0.8l0.8,0.1
			l0.2,0l0.3,0.1l0.7-0.2l0.1-0.1l0.2-0.2l0.3-0.3l0.4-0.3l0.1-0.1l0.3-0.2l0.2-0.1l0.2,0l0.6-0.2h0.5l0.3-0.1l0.3-0.1l0.1-0.1
			l0.1-0.2v-0.3l-0.2-0.6l0-0.1l0-0.3l0.1-0.6l0.1-0.1l0.2-0.2l0.2-0.2l0.3-0.2l0.3-0.3l0.3-0.3l0.6-0.6l0.8-0.9l0.3-0.3l0.2-0.2
			l0.3-0.4l0.4-0.2l0.5-0.1l0.3-0.1l0.3-0.2l0.1-0.2l0-0.5v-0.1l0.1-0.9l0.2-0.4l0.1-0.2l0-0.1l0.2-0.2l0.6-0.3l0.2-0.1l0.2-0.1
			l0.3-0.2l0.2-0.2l0.4-0.4l0.3-0.4l0.1-0.2l0-0.1l0.3-0.6l0.3-0.4l0.4-0.6l0.4-0.5l0.3-0.3l0.1-0.1l0.2-0.4l0.2-0.6v-0.2l-0.1-0.4
			l-0.2-0.6l-0.1-0.4l0-0.6l0.2-0.7l0.3-1.1l0.3-0.9l0.5-1.1l0.1-0.2l0.4-0.9l0.7-1.3l0.9-1.7l1.4-2.6l0.8-1.5l0-0.1l0.4-0.6
			l0.3-0.5l0.1-0.3l0.1-0.4l0.3-1l0.3-0.8l0.2-0.9l0.1-1l0.1-0.5l0.1-0.6l0.2-0.6l0.2-0.5l0.4-0.6l0.4-0.9l1.1-2.4l0.5-1.3l0.6-1
			l0.4-0.8l0.2-0.3l0.2-0.3l0.1-0.1l0.2-0.1l0.5-0.3l0.4-0.1h0.1l0.3,0h0.3l0.2,0.2l0.1,0.2l0.1,0.2l0.2,0.2l0.3,0.1l0.4-0.1
			l0.2-0.1l0.4-0.3l0.6-0.3l0.3-1.1l0.2-0.4l0.3-0.6l0.2-0.7l0.1-0.8l0.2-0.7v-0.7l-0.2-0.7l-0.2-0.3l-0.2-0.3l-0.1-0.7l-0.1-0.5
			l0-0.6l0.2-0.8l0.1-0.7l0.2-0.8l0-0.1l0.1-0.5l0.2-0.8l0.3-1.1l0.2-0.6l0.2-0.7l0.8-1.6l1.1-1.4l0.8-1.4l0.4-0.7l0.1-0.2l0.2-0.5
			l0.3-0.7l0.2-0.9l0.1-0.5l-0.1-0.4l-0.2-0.6l-0.1-0.5v-0.4l0.1-0.2l0.2-0.2l0.2-0.3l1.1-0.4h0.8l0.6,0.1l0.3,0.1l0.4-0.1l0.3-0.3
			l0.3-0.6l0.1-1.1v-0.6l0-0.5l0.1-0.6l0-0.1l0.2-0.4l0.2-0.3l0.1-0.1l0.3-0.4l0.5-0.3l0.4-0.2l0.3-0.2l0.3-0.3l0.2-0.4l0.1-0.4
			l0.1-0.3l0.1-0.3l0.2-0.5l0.2-0.4l0.1-0.2l0.3-0.4v-0.5l-0.1-0.1l-0.1-0.2l0-0.1V136l0.2-0.5l0.4-0.4l6.5,5.9l9.5,8.7l2.1,1.9
			l0.5-1.2l0.4-1.6l0.4-0.9l0.3-0.5l0.7-1.3l0.2-0.4l0.6-1l0.7-1.3l0.8-1.3l0.8-1.1l0.2-0.3l0.5-1l0.8-1.9l0.9-2l0.4-1.5l0.5-1.5
			l0.1-0.3l0.5-0.8l0.5-1l0.7-1l0.6-1l0.9-1.2l0.2-0.2l0.5-0.4l0.4-0.3l0.4-0.3l0.5-0.3l0.6-0.3l0.4-0.2l0.4-0.5l0.3-0.4l0.4-0.5
			l0.3-0.7l0.1-0.3l0.2-0.5l0.3-0.6l0.5-0.6l0.7-0.6l1-0.5l0.5-0.3l0.5-0.2h0.4l0.3,0.1l0.2,0.3l0.1,0.2l-0.1,0.8l-0.1,0.7l-0.1,1.2
			l-0.2,1.1l-0.1,0.5v0.2l0,0.2l0.3,0.1l0.3-0.2l0.4-0.4l0.3-0.6l0.2-0.3l0.3-0.3l0.5-0.5l0.4-0.1l0.1,0l0.2-0.2l0.2-0.2l0.3-0.2
			l0.1-0.1l0.1-0.1l0.3-0.3l0.1-0.2l0.1-0.2l0.1-0.2l0.4-0.2l0.4-0.1l0.2-0.1l0.3-0.1l0.3-0.2l0.5-0.6l0.9-1.4l0.7-1.2l0.4-1
			l0.3-0.6l0.3-0.8l0.3-0.5l0.4-0.6l0.2-0.3l0.4-0.2l0.3-0.2l0.1,0l0.2-0.1l0.3-0.2l0.3-0.4l0.4-0.7l0.3-0.5l0.3-0.6l0.1-0.1
			l0.3-0.3l0.2-0.1l0.1,0l0.2,0.1l0.2,0.3v0.4l0,0.4l0.2,0.2h0.5l0.2-0.1h0.2l0.2,0.1l0.1,0.1l0.2,0.3l0.3,0.4l0.1,0.3l0.1,0.4
			l0.2,0.3l0.3,0.1l0.3-0.1l0.2-0.2l0.3-0.4l0.5-0.8l0.5-1l0.6-1.3l0.7-1.1l1.5-2l0.9-1l1.6-2.2l-2.7-2.7l1.6-1.9l1-1.3l1-1.4
			l0.5-0.4l0.6-0.5l0.7-0.5l0.5-0.4l0.6-0.7l0.4-0.4l0.2-0.2l0.5-0.7l0.7-1l0.7-1.1l0.6-1l0.1-0.1l0.8-0.9l0.5-0.6L780,88l0.3-0.3
			l0.7-0.5l0.5-0.2h0.2L782,87l0.5-0.1l0.2-0.1l0.8-0.3l0.1-0.1l0.4-0.3l0.6-0.3l0.4-0.4l0.6-0.6l0.5-0.5l0.4-0.6l0.4-0.7l0.5-0.8
			l0.2-0.5l0.2-0.6l0.1-0.2l0.3-0.7l0.4-0.8l0.7-0.7l0.9-0.8l1-0.7l0.8-1l0.3-0.4l0.1-0.3l0-0.2l0-0.2l-0.2-0.3l-0.1-0.1l-0.2-0.1
			l-0.3-0.2l-0.2-0.1l-0.6-0.5l-0.9-0.6l-0.2-0.2l-0.2-0.3l-0.2-0.2l-0.2-0.2l-0.2-0.5l0.1-0.5v-0.4l-0.1-0.3l-0.2-0.2l-0.3-0.1
			l-0.1-0.1l-0.2-0.2l-0.2-0.2l-0.2-0.4l0.2-0.4l0.3-0.5l0.8-1l1.2-1.5l0.3-0.5l0.8-1.1l0.4-0.7l0.2-0.4l0.2-0.7l0.1-0.3l0.1-0.5
			l0-0.2v-0.3l0-0.4l-0.2-0.6l-0.3-0.3l-0.5-0.3l-0.5-0.3l-0.4-0.2l-0.3-0.2l-0.1-0.4l0.3-0.6l0.4-0.4l0.3-0.4l0.4-0.6l0-0.1
			l0.4-0.6l0.3-0.8l0.2-0.5l0.2-0.4l0.1-0.1l0.3-0.2l0.5-0.3l0.1-0.1l0.2-0.2l0.3-0.4l0.2-0.4l0.1-0.2l0.2-0.3l0.2-0.3l0.1-0.2
			l0.5-0.7l0.3-0.4l0.7-0.8l0.6-0.7l0.4-0.6l0.2-0.3l0.3-0.5l0.6-0.9l0.6-1.2l0.1-0.3l0.3-0.7l0.1-0.3l0.1-0.4l0.1-0.3l0.1-0.3
			l0.1-0.6l0-0.2l0.1-0.2l0.5-0.4l0.3-0.2l0-0.1l0.1-0.2v-0.2l-0.2-0.4l-0.6-0.3l-0.1,0l-1.1-0.3l-0.8-0.2l-0.5-0.1l-0.2-0.2
			l-0.1-0.3l0.1-0.3l0.5-0.8l0.7-1.1l0.1-0.2l0.2-0.3l0.7-1.1l0.3-0.5l0.1-0.6l-0.1-0.6l-0.1-0.3l-0.2-0.5l-0.2-0.4l-0.1-0.2
			l-0.7-0.8l-0.3-0.6l-0.2-0.7l0.1-0.7l0-0.1l0.3-0.5l0.5-0.9l0.4-0.4l0.1-0.2l0-0.2v-0.4l0-0.3l-0.1-0.2l-0.1-0.4l0-0.2l-0.1-0.2
			l0-0.3l0.1-0.6l0.2-0.3l0.3-0.3l0.1-0.2l0.1-0.3l0.1-0.5l0-0.6v-1.3l-0.2-0.4l-0.1-0.4l0.1-0.5l0-0.2l0-0.2l11.1,9.1l2.7,2.4
			l2.6,2.3l6.8,6.1l13.7,11.5l7,5.8l0.5,0.5l5.2,4.3l5.9,4.9l12.6,10.7l4.9,4.1l0.5-0.2l0.3-0.4l0.2-0.7l0.1-0.4l0.1-0.7l0.1-0.5
			l0.1-0.4l0.3-1.1l0.3-0.6l0.3-0.7l0.4-0.8l0.4-0.5l0.3-0.6l0.2-0.7l0.1-0.9l0.3-0.8l0.2-0.9l0.2-1l0.3-1.3l0.5-1.4l0-0.1l0.4-1.2
			l0.5-1l0.4-0.7l0.1-0.2l0.5-0.6l0.3-0.3l0.3-0.4l0.2-0.4l0.1-0.3l0-0.3l0.1-0.8l-0.1-0.5l-0.1-0.8l0-0.3l0-0.2l0.2-0.4l0.2-0.2
			l0.3-0.4l0.3-0.4l0.1-0.2l0.4-0.7l0.3-0.9l0.2-0.8l0.2-1.1l0.3-0.8l0.4-0.8l0.3-1l0.4-0.7l0.6-0.9l0.4-0.9l0.2-0.5l0-0.1l0.1-0.3
			l0.9-0.9L888.3,45.8z"/>
		<path class="st0" d="M1029.6,260.4l0.7,1.5l0.2,0.8l0.2,1.2l-0.4,0.3l-0.7-2.2l-0.7-0.8l-0.7-0.4l-0.6-0.4l-0.1-0.6l0.4,0.1
			L1029.6,260.4z"/>
		<path class="st0" d="M1244.5,279.5l-0.2,0.2l-1.3,1.7l-0.9,1.8l-0.6,1.3l-0.3,1.1l-0.6,1.1l-1,1l-0.7,1.7l-1.2,1.3l-1.2,1.8
			l-0.3,0.8l-0.5,1l-0.5,1.4l-0.8,2l-0.6,1.5l-0.3,0.9l-0.5,1.5l-0.4,0.9l-0.4,1.1l-0.2,0.8l-0.1,0.6l-0.5,1.3l-0.4,0.6l-0.9,1.2
			l-1,1l-0.4,0.6l-1,0.3l-0.7,0.5l-0.7-0.3l-1-0.4l-0.3-0.5l-0.1-0.4l-0.7-0.3l-0.1-0.6l0.8-0.5l0.6-0.2l0.7,0.3l0.6,0.1l0.7,0.2
			l0.9,0.1l0.7-0.2l0.5-0.8l0.6-0.8l0.2-0.8l-0.2-0.5l0.9-1.2l0-0.6l-0.8-0.1l-0.7,0.8l-0.6,0.7l-0.5,0.1l-0.7-0.4l-0.7-0.1
			l-0.8,0.4l-0.3,0.5l-0.3-0.1l-0.2-0.3v-0.5l0.3-0.3l0.6-0.3l0.3-0.5l-0.1-0.5v-0.6l0.1-0.6l0.3-0.3l0.5-0.3l0.8,0.1l1.1-0.1l1-0.2
			l0.4-0.3l0.3-0.9l0.1-0.8h0.7l0.3-0.1l0.7-0.9l0.3-0.7l0.4-1.3l0.3-0.6l0.5-0.2l0.4-0.7V294l-0.4-0.3l-0.3-0.3l0.3-0.9l0.6-1.1
			l0.4-1.1l0.3-0.8l0.1-0.6l0.2-0.4l0.1-0.3l-0.1-0.4l-0.2-0.3l-0.2-0.4v-0.4l0.3-0.1v-0.3l-0.4-0.4l0.1-0.3l0.6,0.1l0.3,0.3
			l0.3-0.3v-0.4l0.7-0.1l0.9-0.2l0.7-0.3l0.1-0.6l-0.2-0.3h-0.7l0.3-0.3l0.1-0.4l0.9-0.2l0.7-0.5l0.3-0.4l-0.1-0.8l-0.1-0.4
			l-0.3-0.2l-0.1-0.2l0-0.2l3.1-0.5l0.2,0L1244.5,279.5z"/>
		<path class="st0" d="M1186.9,291.8l0.3-0.3l0.2-0.3l0.4-0.3l0.4,0l0.3,0.2l0.2,0.1l0.3-0.2l0.1-0.2l-0.2-0.5l-0.2-0.3v-0.4
			l0.2-0.4l0.2-0.3l0.4-0.4l0.5-0.9l13.3-2.2l21.9-3.2l0.4,0.2l0.3,0.2l0,0.6l-1,0.7l-1-0.1l-0.7,0.3l-1.8,2.4l0.1,0.6l0.4,0.9
			l-1.3-0.2l-1.1-0.1l-0.8,0l-0.7-0.4l-0.3,1.4l0.2,1.2l-0.1,0.9l-0.4,2.5l0.4,0.9l0.5,0.1h0.7l0.2,0.7l-0.2,1.3l-0.8,0.8l-0.4-0.2
			l-0.8-0.1l-0.6,0.1l-0.4,0.1l-0.3,0.4l-0.2,0.4l0,0.7l0.2,0.6l0.2,0.8l0.2,0.9l0.3,0.8l-0.1,0.8l-0.1,0.8l-0.4,0.6l-0.3,0.3v0.9
			l-0.8,1.1l-0.5,0.3l-0.6,0.9h-0.4l-0.6,0.1l-0.9,0.6l-0.3-0.4l0.2-0.6l0.4-0.4l0.6-1.1l0-0.9l0.2-0.4l0.4-1.1l0.5-0.3l0.5-0.5
			l0.7-0.5l0.1-0.5l-0.2-0.3l-1-0.4l-0.3,0.2l-1.4,0.6v0.2l-0.8,1.5l-1.2,3.2l-0.8,1.3l-0.8,1.4l0.2,1.1l1.1,0.2l1-0.2l1,0.1
			l0.7,0.4l-0.4,0.3l-0.3,0.3l-0.7,1l-0.2,0.8l-0.7,0.8l-0.5,0.3l-0.4,0.5l-0.2,0.5l-0.1,0.5l-0.2,0.3l-0.2-0.1v-0.4l0.2-0.6
			l0.2-0.2l0.1-0.6l-0.1-0.3l-0.5-0.3h-0.5l-0.4,0l-0.7,0.6l-0.3,0.6l-0.1,0.4l0.2,0.2l0.4,0.4l0,0.4v1.1l0.1,0.5l-0.2,0.4l-0.3,0.2
			h-0.2l-0.8,0.3l-0.4,0.7l-0.5,0.8l-0.6,0.3l-0.2,0.5l-0.1,0.5l0.2,1.1l-0.2,0.4l-0.3,0.8l-0.1,1l0.1,0.8l0.2,0.4l0.1,0.4l0.2,0.5
			v0.7l-0.4,0.7l-0.2,0.3v0.9l-0.3,0.7l-1.1,0.3l-0.4-0.2l0-0.3l-0.1-0.3l0.1-0.4v-0.4l-0.1-0.6l-0.2-0.5l-0.3-0.3l-0.5,0.3
			l-0.3,0.8l-0.3,0.7l-0.3,0.7l-0.3,1.3l-0.1,0.8l-0.4,0.6l-0.2,0.7l-0.3,0.6l-0.3,1.3l-0.2,0.3l-0.4,0.7l-0.6,0.7l-1.5,0.9
			l-0.5,1.5l-0.3,1.4l-1.2,2l-0.5,0.9l0.2,0.6l0.8,0.4l1.2,0.5l0.9,0.3l0.7,0.8l0.4,1l-0.5,0.8l-0.3,0.4l-0.3,0.5l-0.7,0.4l-0.7,0.1
			l-0.4-0.1l-0.5-0.3l-0.3-0.1h-0.5l-0.3,0.4l-0.1,0.6l-0.3,0.8l-0.3,0.3l-0.7,0l-0.7-0.3l-1,0.7l-0.4,1.3l-0.5,1.6l-0.8,1.5
			l-0.8,1.3l-0.8,0.7l-0.2,0.6l0.3,0.5l0.4,0.5l0.2,0.4l-0.3,0.3l-0.3,0.3l-0.4,0.4l-0.2,0.5l-0.2,0.5l-0.6-0.1l-0.5-0.2l-0.6,0.1
			l-0.3,0.3l-0.2,0.3l-0.3,0.5l-0.4,0.8l-0.4,0.5l-0.2,0.5l-0.1,0.8l0.2,0.5l0.4,0.6l0.4,0.2l0.8,0l0.9,0.2l0.3,0.4l0.8,0.1l0.5-0.3
			l0.4,0.1l0.7,0.1l1.1-0.1l1.3-0.2v0.9l0,0.7l-0.4,0.8l-0.6,0.3l-0.4-0.1l-0.1-0.3l-0.2-0.5l-0.3-0.5l-0.7-0.2l-0.5,0.1l-0.8,0.2
			l-0.7,0.3l-0.3,0.7l0.2,0.5l0.4,0.8l0.3,0.6l0.3,0.9l0.1,0.7h-0.6l-0.7-0.1l-0.7-0.1l-0.5,0.1l-0.3-0.2l-0.4-0.5l-0.6-0.6
			l-0.5-0.8l-0.8-0.7l-0.4-0.5l-0.2-0.3l-0.8,0.1l-0.7,0.3l-0.9,0.5l-0.3,0.3l-0.6,1.6l-0.2,0.3l-0.3,0.8l-0.6,1.2l-0.2,0.3
			l-0.3,0.6l-0.8,1.4l-0.5,1.3l0.1,1.2l0.7,0.3l1.1-0.5l1,0.2l0.1,0.4l-0.3,0.8l0.6,0.3l0.7,0l0.5,0.3l0.2,0.5l0.6,0.4l0.7-0.2
			l1.5-0.8v1.2l-0.5,0.3l-0.8,0.6l-1,0.7l-0.6-0.2l-0.6-0.5l-0.7,0.1l-0.3,0.6l-0.5,1.2l-0.6,0.4l-0.4-0.7l-0.1-1.3l0.1-0.9
			l-0.6-0.3l-0.7-0.2l-1-0.2l-1.4-0.1l-1.4,1.3l-0.5,0.8l-0.9,0.4l-0.7,0.4l-0.5,1.2l-0.6,0.3l-0.6-0.1l-0.3,0.9l-0.2,0.4l-0.3,0.9
			l-0.5,0.6l-0.4,0.4l-0.3,0.9l0.3,0.5l0.7-0.2l0.7,0.3l0.1,0.7l-0.2,0.6l-0.4,0.9l-0.3,0.8l0,1.3l1.3,0.4l0.7,0.6l0.6,0.8l1,0.4
			l0.7,0.3l0.2,0.8l-0.4,0.6l-0.6,0.5l-0.7,0.3l-0.7,0l-0.5-0.3l-1-0.5l-0.7-0.2h-0.5l0.1-0.5l0.2-0.5l0.1-0.7v-0.4l-0.7,0.1
			l-1.2,0.2l-1.1,1.2l-0.8,1.4l-0.3,0.8l-0.2,0.3l-0.3,0.5l-0.6,0.2l-0.7-0.1l-0.4,0.5l-0.1,0.7l0.1,0.9l-0.1,1l-0.4,0.5l-0.8,0.8
			l-0.8,0.8l-0.6,1l-0.4-0.2l-0.2-0.6l-0.7-0.2l-0.3,1.2l-0.4,0.8l-0.1,0.8l0.4,0.1l0.5,0.3l-0.3,0.6l-0.6,0.8l-0.8,0.8l-0.2,0.6
			l0,1.1l0.4,1l-0.5,1.1l-0.6,1.5l-0.5,1l-0.2,0.3l-0.1,0.7l-0.1,0.8l0.2,0.3l0.5,0.1l0.3,0.4l-0.2,0.6l-0.3,0.9l0.1,0.8l-0.5,2.4
			l-0.4,1.3l-0.6,1.3v1.1l0.3,0.3l0.6,1.1v0.9l-0.1,0.9l0.2,0.7l0.5,0.8l0.3,0.8l0.3,0.9l0,0.6l-0.4,0.2l-0.2-0.2l-0.6-0.7l-0.3-0.2
			l-0.3-0.1l-0.3,0.9l0.2,1l0.1,0.8l-0.2,0.8l-0.7,1.7l0.1,1.3l-0.1,1l-0.3,0.5l0.1,1.2l0.2,1.4l0.7,2l0.5,0.8l-0.8,1.3l-0.7,0.5
			l-0.8,1.4l-0.8,0.7l-1.1-0.2l-0.8-0.2l-0.6-0.3l-0.4-1.5l0-1.8l-0.1-0.5l-0.1-0.9l-0.3-1.5l-1.1-2.5l-0.6-1.2l-1.3-1.7l-0.8-1
			l-0.9-1l-1-1.5v-1.4l0.5-0.8l0.1-0.8l-0.5-0.9l0.1-0.5l0.8-0.2l0.5-0.1l1.3,0l0.4-0.5v-0.5l0.7-0.2l0.6-0.3l0.2-0.4l-0.9-0.7
			l-1-0.5l-0.1-0.8l-0.1-1.1l-0.2-0.2l-0.4,0.3l-0.6,0.8l0.1,0.9l0,1.7l-0.5,0.2l-0.5-0.3l-0.7-0.3l-0.3-0.3l-0.4-1.4l-0.5-1
			l-0.5-0.6l-0.5-0.4l0.2-0.6l0.7-0.9l0.1-0.3l-0.3-0.5l0.3-0.8l0.7-0.8l0.9-0.3l0.6,0.2l0.9,0.1l0.9-0.4l0.2-0.6l-0.5-0.3l-0.6,0.2
			l-0.8,0.1l-0.5-0.5l-0.9-0.5l0.1-0.8l0.5-0.6l0.3-0.3l0.7-0.1l0.3-0.4l0.2-0.7l0.5-0.2h0.4l0.2-0.3l0.2-0.4h0.6l0.4-0.1l-0.1-0.5
			l0.3-0.5h0.4l0.4-0.3l-0.3-0.3l-0.7-0.3h-0.7l-0.6-0.3l-0.1-0.5l0.7-0.4l0.8-0.3l-0.1-0.4l-1.4-0.4l-0.2-0.9l-0.5,0.1l-0.3,0.3
			l-0.2,0.9l-0.4,1.7l-0.8,1.2l-0.8,1l-0.6,1.1l-0.5,0.8l-0.6,0.2l-0.1-0.7l0.3-1.3l0.2-0.9l0.1-1.2l0.2-1.3l0.9-1.8l1.1-1.3
			l0.8-0.7l0.6-1.6l0.7-1l0.7,0.1l0.7,0.5l1-0.3l-0.2-0.8l-0.7-0.4l-1.2-0.8l-0.2-0.5l-0.2-1.1l-0.2-0.5l0.8-0.1l0.3-0.4l1.6-0.2
			l0.3-0.6l0.6-0.2l0.6,0.6l0.8,0.5l0.7-0.2l0.4-0.4l-0.3-0.3l-1-0.7l-1-0.8l-1.2-0.7l-0.2-0.6l0.4-0.4l0.7-0.3l0.2-0.7l0.3-0.7
			l1-0.3l0.7,0.1l0.7,0.3l0.8-0.3l-0.1-1.2l-0.7-0.4h-0.9l0-0.6l0.7-0.5l0.8-0.8l0.4-0.9l-0.2-0.8l-0.7,0.1l-0.5,0.5l-0.6,1
			l-0.7,0.9l-1.3,0.8l-0.7,0.5l-1.1,0.5l-0.7,0.8l0.1,0.4l0.1,0.7l-0.3,0.6h-0.2l-0.3-1l0-1.9l0-2l1.4-3l1.3-1.6l1.1-1.3l1-0.2
			l1,0.5l0.6,0.9l0.9-0.2l0.7-0.5l0.5,0.2l0.7,0.5l1,0.4l0.5-0.5v-0.8l-0.8-0.4l-0.7-0.2l-1.2-0.7l-0.8-0.8l-0.2-0.7l0.6-0.4
			l0.9-0.1l0.7,0.1l1.1,0.1l0.8,0.1l1.9-0.4l0.9-0.4v-0.6h-0.8l-0.8-0.3l-0.7-0.1l-0.3,0.3l-0.7,0.5l-0.5-0.5l-0.1-0.5l0.4-0.3l1-1
			l1.1-0.2l0.3-1.2l-0.4-0.9l0.5-0.9l0.8-1.4v-0.9h-0.7l-0.7,0.4l-0.7,0.7l-0.3,0.6l-0.7,0.8l-0.7,0.6l-0.2,0.7l-0.1,0.9l-0.7,0.3
			l-0.8,0.3l-0.1,0.4l0.1,0.6l-0.3,0.3l-1.1,0.9l-1.5,1.2l-0.7,0.2l-0.5,0.1l-0.6,0.4l-0.3-0.1l0.1-0.8l0.3-1l0.4-1.5l-0.3-1
			l0.1-1.7l0.4-0.9l0.3-1l1.3-1.8l0.3-1l0.3-1.3l0.4-1l0.4,0.6l0.3,0.7l0.5-0.1l-0.2-0.9l-0.2-0.8l-0.1-0.8l0.2-0.4l0.5,0.3l0.1,0.4
			l0.4,0.4l0.7-0.2l0.2-0.5l0.9,0.1l1.8-0.4l0.6,0.3l0.3,0.7h1l1.6-0.3l1.3-0.3l1.8,0l0.6-0.6l-0.4-0.6l-1.1-0.2l-0.8-0.1l-0.7-0.3
			l-0.4,0.1l-0.2,0.6l-0.4,0.2l-0.9-0.2l-1.2-0.4l-1.3-0.3l-1.1-0.3l-1.4-0.4l-1-0.5l-0.2,0.3v0.5l-0.7,0.1l-0.7-0.1l-0.4,0.6
			l-0.3,0.2l-0.2-0.8l0.3-1.1l0.4-0.8l0.7-1.4l0.2-0.6l0.7,0.8l0.6-0.7l0.4-0.1l1.4,1.5l0.8,0.3l0.7-0.5l0.8,0.2l0.7-0.6l-0.3-0.5
			l-0.7-0.3l-0.7-0.3l-1-0.4l-0.4-1.3l0.3-0.9l-0.5-0.1l-0.6,0.3l-0.9,0.9l-0.5-0.1l-0.2-0.6l-0.2-0.9l-0.3-0.6l0.6-0.3l0.9-0.8
			l1-1.2l0.3-1V357l0.5-0.1l0.2,0.4l0.3,0.9l-0.2,0.7l0.6,0.8l0.3,1.2h0.6l1.2,0.1l1,0.7l0.7,0.8l0.8,0.1l0.2-0.6l-0.3-0.8l-0.4-0.3
			l-0.8-0.2v-0.9h0.9l0.7,0l0.4-0.2l-0.4-0.4l-0.3-0.6l0.3-0.3l1-0.6l1.3-0.2l0.9-0.1l0.1-0.7l0.5-0.3l1-0.3v-0.7l-0.8,0.1l-0.9,0.2
			l-2.1,0.9l-1.5,0.5l-1.2,0.6l-0.4,0.7l-0.5,0.7l-0.2-0.4l-0.3-0.8l-0.1-0.8l0.4-0.6l0.5-0.3l-0.6-0.6l-1-0.3l-0.7-0.9l0.1-0.6
			l0.3-0.3l0.1-0.5V352l1,0.1l1,0.4l0.7,0.4l0.3-0.4l-0.2-0.8l-0.3-0.4l-0.4-0.4l0.1-0.5l0.7-0.5l0.4,0.1l2.3,0l1.2-0.4l0.7,0.1
			l1.1,0.5l0.3,1.1l0.1,0.9l1,0.2l0.7,0.4l0.4-0.6l-0.6-1.4l0.4-0.6l0.7,0.3l0.8,0.4l0.7,0.1l0.1-1l0.6-1l0.3-1.1l-0.5,0.1l-0.5,0.4
			l-0.3,0.7l-0.6,0.4l-0.9-0.1l-1.2-0.4l-0.8,0.1l-0.1-0.4l0.2-0.8l-0.6-0.1l-0.5,0.3h-0.5l-0.7-0.4l-1,0.1l-0.4-0.8l0.4-0.8
			l0.1-0.7l-0.1-1.2l0.3-0.8l1.1-0.2l0.7,0.3l0.7,0.3l0.8-0.1l0.1-0.6l-0.7-0.4l-0.7-0.3l-0.6-0.2l-0.5-0.7v-0.6l0.5-0.4h0.8l0.6,0
			l0.2,0.5h0.7l0.2-0.4l0.1-0.5l0.6-0.8l0.2,0.5l-0.1,0.8l-0.2,0.8l0.2,0.4l0.6,0.1l0.5-0.8l0.6-0.3l0.3-0.8l0.3-0.8l0.4,0.2
			l0.7,1.4l1.1,0.4l1,0.3l0.1,0.8v0.8h0.6l0.4-0.8h0.7l0.6-0.6l-0.3-0.5l-1.2-0.4l-0.7-0.3l-0.7-0.4l-1.3-0.8l-1.1-1l-0.6-0.5
			l-1.3-0.2l-0.8,0.3h-0.9l-0.7-0.1l-0.4,0.8l-0.3,1h-0.5l-0.1-1.4l0.2-0.6l0.5-0.6l1.1-1.2l0.6-1.4h0.7v0.7l0.3,1l0.8-0.3l0.1-0.8
			l0.3-0.8l0.5-0.3l0.6-0.1l0.4-0.5l0.3-0.7l0.5-0.2l0.3,0.4l0,0.8l0.3,0.8l0.3,0.2l0.5-0.2l0.4,0.3l0.5,0.7l0.6,0.5l0.7,0.3
			l0.5-0.4l-0.2-0.4l-0.4-0.6l-0.7-0.6l-0.4-0.4l-0.7-0.9l-0.2-0.6l0.4-0.3l0.7-0.8l-0.2-0.6h-0.5l-0.7-0.5l-2-2.1l-0.9-0.1
			l-0.7,0.2l-1.2,0.2l-0.3-0.4l-0.1,0.2l-0.1,0.8l-0.3,0.7l-0.4,0.1l-0.5-0.6l-0.1-0.8l0.1-0.7l0.2-0.5l0.7-0.5l0.8-0.8l0.6-0.4
			l0.6-1l0.4-0.2l0.7,0.3l0.4-0.3l0.1-0.5l0.2-0.3l0.3,0.1l0.2,0.3l0.6,0.3l0.4-0.3l0.3,0.3l0.3,0.1l0.5,0.1l0.1,0.3l-0.3,0.4h-0.5
			l-0.8,0.2l-0.5,0.5v0.3l0.5,0.5l0.2,0.6l0.5,0.4l0.3-0.2l0.3-0.8l0.6-0.6l0.4-0.2l0.4-0.1l0.1,0.3l0.1,0.7l0.1,0.6l0.2,0.4
			l0.2,0.6l0.1,0.5l-0.2,0.7l-0.2,0.7l0.3,0.4l0.4,0.1l0.2-0.3l0.3-0.3v-0.5l-0.1-0.9l-0.1-0.7l0.7-0.2l0.7-0.1l0.4,0.1l0.1,0.4
			l0.1,0.6l0.2,0.4h0.6l0.2-0.3l0.1-0.6l-0.1-0.8l-0.2-0.6l-0.3-1l0.2-0.7l0.4-0.1l0.3,0.6l0.7,0.9l0.6,0.9l0.5,0.4l0.7-0.4l0.1-0.8
			l-0.5-0.8l-0.3-0.5l0.3-0.1l0.7-0.1l0.2-0.8l-0.2-0.8l-0.3-0.5h-0.7l-0.7,0.3l-1,0.4l-0.6-0.1l-0.1-0.7l0.2-0.7v-0.5l-0.2-0.5
			l-0.2-0.7l0.4-0.1l0.2,0.4l0.2,0.5l0.4,0.3l0.7,0.4l0.3-0.8l-0.7-1.3l0.2-0.9l0.3-0.2l0.7,0.3l0.6-0.2l0.1-0.4l-0.3-0.3l-0.7,0
			l-0.9-0.4l0.2-0.4l0.3-0.2l0.1-0.4l0.3-0.8l0.7-0.2l0.1-0.5l0.3-0.8l0.3,0.3l0.1,0.4l0,0.8l0.2,0.3l0.5,0.4l0.2,0.7l0.1,1.2v0.8
			l0.2,0.2l0.5-0.5l0.1-1l0.3-0.4h0.4l0.5,0.3l0.7,0.2l1,0.3l0.5-0.5l-0.3-0.4l-1-0.8l-0.7-0.6l-0.3-1l0.8-0.7l0.3-0.2l0.9-0.5
			l0.9-0.3v-0.6l-0.4-0.3h-1.1l-1.2,0.4l-0.9,0.4l-1,0.4l-0.4-0.4l-0.2-0.6l0.5-1.8l0.5-0.5l0.1-1.3l0.6,0.2l0.3,0.3l0.7,0.3
			l0.9-0.1l0.3-0.3l-0.7-0.4l-0.8-0.6l-0.7-0.5l-0.1-0.3l0.3-0.4l-0.5-0.3l-1.2-0.2l-0.5,0.9l-0.7,0.1l-1-0.2l-0.2-0.6l0.7-0.3
			l0.6-0.3l0.5-0.8l0.8,0.2l1-0.3l0.5-1l-0.2-0.2h-0.3l-1.1,0l-0.8-0.3l-1.3,0.5l-1.3,1.1l-0.6-1l-0.7-0.9l-1,0l0.1,0.9l0.4,0.8
			l-0.3,0.1l-0.4,0.6l-1.3,0.4l-1.8,0.2l-1-0.3l-0.8,0.1l-0.3-0.8l0.3-0.7l1.6-0.3l0.8,0l0.5-0.6l-0.9-0.7l0.9-0.8l0.4-0.2l1-0.9
			l1.3-2.5l0.9-0.1l0.1,0.5l0.4,0.7l1.1,0.3l1.3-0.7l0.8-1.3l0.7-0.6l1.3,0.5l0.7,0.3l1.2,0.2l1.3,0.1l1.1-0.8l0.6-1.5l-0.1-0.9
			l-0.3-1l-0.5-0.8L1186.9,291.8z"/>
		<path class="st0" d="M1232.2,292.1l-0.1,0.2l-1.1,0.5l-0.3,0.7l-0.3,0.7l-0.1,0.6l0.3,0.8l0.1,0.8l-0.4,1.3l-0.5,0.9l-0.4,0.8
			l-0.7,0.4l-0.7,0.2l-0.9,0.2l-0.9,0.1l-0.7,0.2l0,0.7l-0.1,0.7l-0.3,0.7l-0.4,0.2l-0.4,0.3l-0.8,0.2h-0.3l-0.9,0.7l-0.7,0.2
			l-0.4,0.1l-0.7-0.1l0.2-0.4l0.8-0.8l1-1.3l0.6-0.8l0.8-0.8l0.3-0.5l0.4-0.8l0.6-0.8l0.4-0.5l0.7-0.8l0.5-0.5l0.6-1l0.3-0.8
			l0.3-0.6l0.4-0.3l0.5-0.3l1-0.6l1-0.7l0.3-0.5l0.2-0.3l0.3-0.9l0.1-0.7l0.2-0.7l0.3-0.4l0.2-0.1l0.4,0.1l0.6,0.2l0.5-0.3l0.5-0.2
			l0.3,0.4l-0.3,0.9l-0.8,0.8l-0.5,1.1l-0.2,0.7L1232.2,292.1z"/>
		<path class="st0" d="M1133.4,297.1l0.8,0l0.1,1.1v0.8l-0.1,0.8l-0.3,0.7l-0.4,0.3l-0.2,0.1l-0.2,0.1h-0.6l-0.2-0.6l0.2-0.7
			l0.7-0.8l0.1-1L1133.4,297.1z"/>
		<path class="st0" d="M1130,297.2l1,0l0.3,0.5l0.2,0.7l-0.2,0.1l-0.3,0.2l-0.2,0.2l-0.1-0.1l-0.5-0.3l-0.1-0.8L1130,297.2z"/>
		<path class="st0" d="M1136.5,297L1136.5,297l1.1,0.1l-0.1,0.2v1.1l-0.2,0.3l-0.3,0.1l-0.6-0.7l0-1L1136.5,297z"/>
		<path class="st0" d="M1222.3,295.2l0.6-0.2l0.6-0.3l0.4,0l0.4,0.1l0.2,0.1l0.2,0.3l-0.3,0.7l-0.7,1.1l-0.3,0.7l-0.4,0.2l-0.5,0.3
			l-0.3,0.2l-0.5-0.1l-0.4-0.5l-0.4-0.8l-0.4-0.8l0.1-0.9l0.4-0.6l0.7,0L1222.3,295.2z"/>
		<path class="st0" d="M1217.3,297.4l0.2,0.1h0.4l0.1,1l0.2,0.7l0.2,0.2l0.3-0.3l0.5-0.2l0.4,0.1l0.3,0.1l0.6,0.1l0.3,0.7l0.1,0.8
			l-0.4,0.8l-0.4,0l-0.5-0.2l-0.6,0.2l-0.3,0.7l-0.4,0.3l-0.5-0.2l-0.3-0.6l-0.2-0.3l-0.4-0.3l-0.2-0.8l-0.1-0.8l-0.2-0.5l-0.2-0.3
			l-0.2-0.4v-0.4l0.5-0.3l0.3-0.2L1217.3,297.4z"/>
		<path class="st0" d="M1150.1,305.1l0.8-0.1l0.2,0.4l-0.3,0.4l-0.5,0.1l-0.3-0.1l-0.1-0.3v-0.3L1150.1,305.1z"/>
		<path class="st0" d="M1151.5,308.3l0.6,0.3v0.9l-0.4,0.1l-0.8-0.4l-0.9-0.2l-0.4-0.9l-0.1-1.3v-0.4l0.7-0.4h0.4l0.2,0.5v0.5
			l0.2,0.7L1151.5,308.3z"/>
		<path class="st0" d="M1210.3,317.8l-0.2,0.1l-0.2-0.7v-0.8l-0.1-0.5l0-0.5V315l0.2-0.4l0.4-0.3l0.7-0.3l0.3-0.4l0.1-0.6l0.1-0.5
			l0.3-0.6l0.3-0.6l0.3-0.6l0.4-0.3l0.5-0.7l0.3-0.6l0.2-0.4l0.1-0.5l0.2-0.4l0.4-0.8l0.6-0.8l0.3-0.3l0.3-0.2l0.5-0.2l0.6,0.5
			l0.8-0.1h0.6l0.3,0.2l0.1,0.3l0.1,0.3l-0.2,0.8l-0.7,0.9l-0.9,1.2l-1.3,1.1l-1.1,1.2l-0.8,0.7l-1.3,1.5l-0.6,0.9l-0.5,1.2
			l-0.9,1.3L1210.3,317.8z"/>
		<path class="st0" d="M1138,320.9v-0.3l0.1-0.6v-0.9l-0.1-0.5l-0.1-0.2v-0.3l-0.2-0.1l-0.5-0.1l-0.1-0.1l-0.5-0.6l0.2-0.5l0.3-0.3
			l0.3-0.6l0.5,0.4l0.7,0.8l0.8,0.6l-0.3,0.4l-0.2,0.3l0.1,0.6l0.1,0.9l0.2,0.8l0.2,0.6l-0.3,0.6l-0.4,0.6l-0.2,0.6v0.3l0.2,0.5
			l0.5,0.2l0.3-0.2l0.3-0.2l0.3,0.3l0.2,0.3l-0.2,0.7h-1l-0.5-0.4l-0.6-0.3l-0.3-0.4l-0.3-0.9l-0.1-0.3v-0.7l0.1-0.5v-0.2
			L1138,320.9z"/>
		<path class="st0" d="M1209.1,316.7l0.2-0.1l0.1,0.4l0.1,0.9l0.2,0.8l-0.3,0.2l-0.2,0.2h-0.3l-0.5-0.3l-0.3-0.5l-0.2-0.3l-0.2-0.6
			l0-0.5l0.2-0.3h0.4l0.5,0.1L1209.1,316.7z"/>
		<path class="st0" d="M1209.1,319.8l-0.6,1l-1,1.9l-0.5,1.5l-0.6,1.4l-0.3,1.4l-0.4,1.1l-0.4,1.1l-0.3,0.8l-0.7,0.9l-0.7,0.9
			l-0.3,0.7l-0.4,0.8l-0.2,0.7l-0.4,1.3l-0.5,1.4l-0.4,1.4l-0.5,1.6l-0.3,1l-0.3,0.7l-0.3,0.5l-0.3,0.3l-0.1,0.4l-0.3,0.8l-0.2,0.9
			l-0.2,0.5l-0.3,0.6l-0.5,0l0-1l-0.4-0.3v-0.3l-0.2-0.2l-0.2-0.1l-0.6,0.1l-0.1-0.3l0.7-0.9l0.1-0.3l0.3-0.3l0.4-0.1l0.4-0.4
			l0.4-0.7l0-1l0.7-0.8l0.7-2.5l0.2-0.5l0.1-0.2l-0.1-0.2l-0.2-0.3l0.3-0.7l0.4-0.8l0.2-0.8l0.1-0.8l0-0.5v-0.9l0.5-0.1l0.8-0.2
			l0.7-0.3l0.3-0.1l0.5-0.4l0.1-0.8l0.1-0.8l0.3-0.5l0.3-0.8v-0.4l-0.2-0.5l-0.1-0.3l-0.2-0.4l0.4-0.4l0.7-0.5l0.3-1.4l0-1l-0.2-0.5
			l-0.3,0l-0.4-0.2l-0.2-0.4l0.1-0.3l0.2-0.3l0.5-0.3l0.3-0.4l0.2-0.2l0.3-0.3l0.3-0.3l0.3-0.2l0.3-0.1h0.7l0.2,0.3l0.3,0.4l0.2,0.2
			l0.3,0.2l0.2,0.1L1209.1,319.8z"/>
		<path class="st0" d="M1152.2,323.7l-0.2-0.6l0.5-0.8l0.2-0.3l0.3-0.4l0.4,0.3l-0.1,0.9l-0.3,0.9l0.1,0.4l0.2,0.6l0.2,0.6l0.3,0.8
			l0.1,0.5l-0.5,0.4l-0.5-0.3l-0.2-0.5l-0.1-0.8l0-0.7L1152.2,323.7z"/>
		<path class="st0" d="M1174.3,323l0.1-0.3l0.2-0.2l0.3-0.3h0.3l0.2,0.5l0.3,0.6l-0.2,0.5l-0.4,0.4l-0.3,0.2l-0.3-0.2l-0.3-0.4
			l-0.1-0.6L1174.3,323z"/>
		<path class="st0" d="M1168.1,330.7l-0.3,0.2l-0.4,0.1l-0.4,0.3l-0.3,0.2l-0.4-0.1l-0.1,0.3l-0.3-0.6l-0.1-0.6v-0.4l0.2-0.4
			l0.5-0.3l0.6,0.3l0.3,0.1l0.2-0.3l0.2-0.3l0.3-0.3l0.5,0.1l0.2,0.1l0.2,0.3l0.3,0.3l0.1,0.5l-0.3,0.5l-0.5,0L1168.1,330.7z"/>
		<path class="st0" d="M1200.4,334l-0.2,0.3l-0.2,0.3l-0.1,0.5l-0.3-0.1l-0.3-0.2l-0.6-0.5l0.2-0.4l0.2-0.8l0.6-0.6l0.1-0.3
			l-0.1-0.6v-1.1l0.3-0.2l0.4,0.1l0.2,0.3l0.3,0.4l0,1.1l-0.2,0.7v0.6L1200.4,334z"/>
		<path class="st0" d="M1158.1,342.4l0.3-0.3h0.2l0.2-0.1l0.3,0.1l0.2,0.5l-0.1,0.5l-0.4,0.3l-0.4,0.2l-0.2-0.2v-0.3l-0.1-0.3v-0.3
			L1158.1,342.4z"/>
		<path class="st0" d="M1158.2,346.3l-0.2,0.5l-0.3,0.3l-0.2,0.2l-0.2-0.3l-0.7-0.4l-0.3-0.1l-0.2-0.7l0.4-0.5l0.5,0.2l0.6,0.1
			l0.1-0.3l0.2-0.1l0.3,0.1l0.1,0.4L1158.2,346.3z"/>
		<path class="st0" d="M1198.6,347.6l-0.1,0.5v0.5l-0.5,0.6l-0.3,0.4l-0.2,1.3l-0.6,2.1l-0.6,1.5l-0.8,2.1l-0.4,1.5l-0.4,1.3l-0.1,2
			l0,0.8l-0.2,0.9l-0.4,0l-0.3-0.5l-0.2-0.4l-0.4-0.3l-0.6,0.1l-1,0.4l-0.5,0.3l-0.4,0.2l-0.5-0.1l-0.5-0.3l-0.3-0.3l-0.6-0.2
			l-0.7,0l-0.7,0.1h-0.7l-0.3,0.1l-0.2-0.4l-0.1-0.3l0.3-0.3l0.2-0.4l0.1-0.4l0.2-0.4l0.1-0.3l0.4-0.4l0.4-0.5l0-0.9l-0.1-0.4
			l0.6-0.3l0.8,0.3l0.5,0.3l0.2,0.4l0.2,0.6l0,0.8l-0.1,0.4l0.1,0.5l0.7,0.3l1.3,0.1l0.7-0.3l0.7-0.3l0.8-0.9l0.3-0.8l0.1-0.4
			l0.1-0.7l-0.6-0.5l-0.7,0.3l-0.6-0.3l-0.2-0.5l-0.6-0.3h-0.5l-0.4,0.1l-0.3-0.4l0.1-0.8v-0.5l-0.2-0.6l-0.2-0.8l0.5-0.2l0.7-0.2
			l0.3-0.2l0.6-0.6l0.4-0.3l0.5-0.1l0.9-0.1l0.3-0.1l0.2-0.3v-0.4l-0.1-0.5l-0.1-0.3l0.3,0.1l0.3-0.3l0.6-0.3l0.3-0.5l0.4-0.2
			l0.3-0.3l0.3-0.4l0.2-0.4l0.3-0.3h0.6l0.4,0.1L1198.6,347.6z"/>
		<path class="st0" d="M1097.4,361.9l-0.8-0.3l-0.7-0.4l-0.4-0.4l-0.1-0.4v-0.2l0.6-0.4l0.2-0.3l-0.1-0.3l-0.7-0.3l-0.2-0.7
			l-0.1-0.8l0-0.8l0.2-0.3l0.7,0.4l0.8,1.4l0.6,0.9l0.8,0.9l0.5,0.6l0.3,0.3l-0.6,0.9L1097.4,361.9z"/>
		<path class="st0" d="M1187.1,362.7h0.5l0.3,0.1l0.2,0.2l0.4,0.1l0.2,0.1l0.2,0.3l0.2,0.4l0.3,0.3l0.3,0.1l0.5-0.2l0.3-0.2l0.2-0.2
			h0.2l0.6-0.3l0.3,0l0.3,0.3l0.1,0.3l-0.2,0.4l-0.1,0.8l0.2,0.7l0.3,0.6l0.2,0.3v0.3l-0.2,0.3l-0.6,0.2l-0.3,0.2l-0.2-0.1h-0.3
			l-0.4-0.4l-0.2-0.4l-0.4-0.3l-0.4-0.2l-0.6,0l-0.7,0.1h-0.8l-0.7,0.2l-0.5,0l-0.3-0.1l-0.3-0.2l0.2-0.6l0.3-0.5l0.2-0.4l0.2-0.4
			v-0.4h-0.2l-0.4-0.1l-0.4-0.1l-0.2-0.3v-0.3l0.2-0.3l0.6-0.1l0.3-0.1L1187.1,362.7z"/>
		<path class="st0" d="M1187.1,384.3l-0.3,0l-0.1-0.6l0.1-0.4l0.2-0.1l0.2-0.4l0.3-0.6l0.2-0.6l0.2-0.4l-0.2-0.4l0.2-1l-0.1-0.7
			l0-0.7l0.2-0.3l0.2-0.7l0.2-0.3l-0.1-0.5l-0.1-0.3l-0.2-0.3l-0.2-0.2h-0.9l-0.7-0.1l-0.7,0.2l-0.5-0.3l-0.5-0.1h-0.4l-0.7,0.2
			l-0.3,0.4l-0.2,0.8l-0.2,0.8l-0.3,0.4l-0.6,0.2l-0.4-0.4l-0.6-0.1l-0.3,0.1h-0.5l0.1-0.5l0.3-0.3l0.3-0.7l0.1-0.3l-0.2-0.3
			l-0.4,0.2l-0.2,0.2l-0.6,0.1l-0.3-0.1l-0.1-0.5l0-0.6l0.2-0.6l0.1-0.2l0.3,0.4l0.7-0.2l0.5,0.2h0.7l0.6-0.3l0.1-0.3V374l-0.6-0.2
			l-0.9,0.1l-0.7-0.3l-0.5-0.3l-0.2-0.3l-0.1-0.4l0-0.5l0.1-0.7l0.1-0.5l0.3-0.4l0.2-0.4l0.1-0.2l0.2,0.3l0.3,0.5l0.7,0.8l0.2,0.4
			l0.3,0.4l0.3,0.4l0.3,0.3l0.4,0.2l0.3,0l0.4-0.1l0.3-0.1l0.2,0.1h0.9l0.6-0.2l0.2,0.1l0,0.3l0.2,0.6l0.5,0.2l0.3-0.3l0.7-0.3
			l0.8-0.3l0.4-0.4l0.1-0.3l-0.1-0.6l-0.1-0.6v-0.6l0.2-0.4l0.1-0.1l0.2-0.3l0.3-0.4l0.2-0.2l0.1-0.3l0.2-0.3l0.5-0.4l0.2-0.3
			l0.1-0.2l0.7,0.1l0.6,0l0.4-0.2l0.4-0.3l0.5-0.3l0.2-0.3v-0.4l-0.1-0.4l-0.1-0.3l0.2-0.6V365l0.2-0.2l0.7,0.3l0.5,0l0.5-0.1
			l0.3,0.1l0.2,0.4v0.6l-0.1,0.6l-0.1,0.8l-0.3,0.4l-0.5,0.7l-0.5,1.4l-0.8,1.6l-0.4,0.9l-0.4,0.9l-0.2,0.6l-0.3,0.5l-0.4,1
			l-0.5,0.9l-0.4,1.4l-0.5,1.3l-0.4,1.2l-0.7,1.1l-0.3,0.7l-0.5,0.5l-0.3,0.3l-0.3,0.5l-0.5,0.5L1187.1,384.3z"/>
		<path class="st0" d="M1187.5,378.9v0.8l0,0.3l0.1,0.8l-0.3,0.2l-0.4,0.3l-0.3,0.5l-0.3,0.2l-0.2,0.1h-0.2l-0.5-0.6l-0.2-0.4
			l-0.2-0.7l-0.4,0.1h-0.3l-0.7-0.2l-0.2-0.6l0.2-0.7l0.6-0.3l0.4-0.3l0.2-0.3l0.1-0.6l0.1-0.2l0.2-0.5l0-0.3l0.5-0.1l0.8-0.1h0.5
			l0.3,0.1l0.6,0.2v0.6l-0.4,0.5l0,0.4l-0.1,0.4L1187.5,378.9z"/>
		<path class="st0" d="M1097.8,379.8l0.3,0.2l0.6,0.4l0.4,0.6l0.3,0.5l0.3,0.8l0.6,0.9l0.3,0.4l0.6,0.9l0.2,0.3l0.5,0.9l0.4,0.6
			l0.3,0.7l0.1,0.3l-0.3,0.3l-0.1,0.1l-0.3-0.3l-0.4-0.4l-0.2-0.3l-0.4-0.5l-0.6-0.4l-0.6-0.1l-0.4-0.6l-0.7-0.1l-0.6,0.3l-0.7-0.2
			l-0.3-0.1l-0.7-0.5l-0.6-0.1h-0.7l-0.3-0.2l0.2-0.4l0.2-0.4l0.2-0.6l0.1-0.4l0.2-0.5l-0.1-0.8l-0.4-0.5l-0.2-0.5l0.2-0.5l0.8-0.3
			l0.8,0.2L1097.8,379.8z"/>
		<path class="st0" d="M1182.8,384.6l-0.6,0.2l-0.4-0.2l-0.5-0.1h-0.3l-0.3-0.1l0.1-0.2v-0.4l0.7-0.3l0.7-0.2l0.6-0.4l0.3-0.2
			l0.4-0.3h0.7l0.3,0.1l0.2,0.6v1.2l-0.2,0.3l-0.3,0.1l-0.3-0.3l-0.1-0.3l-0.2-0.3l-0.5,0.2L1182.8,384.6z"/>
		<path class="st0" d="M1179.4,385.6v0.4l-0.1,0.5h-0.4l-0.4-0.4l-0.4-0.5l-0.2-0.3l0.2-0.4l0.3-0.3h0.7l0.2,0.1l0.1,0.3v0.3
			L1179.4,385.6z"/>
		<path class="st0" d="M1183.1,385.9l0.3-0.2l0.2-0.1l0.2,0.1l0.3,0.3l0.1,0.3l-0.1,0.3l-0.5,0.5l-0.2,0.6l-0.4,0.3h-0.8l-0.7-0.2
			l-0.3-0.1l-0.4-0.4v-0.9l0.5-0.2l0.7-0.2h1.1L1183.1,385.9z"/>
		<path class="st0" d="M1180.8,402.6l-0.6,0.3l-0.7,0l-0.1-0.7l0.3-0.6l0.3-0.3l0.1-0.4l0.1-0.6l0.4-1.3l0.6-0.7v-1.1l0.5-1.5
			l0.1-0.5l0.3-0.8l0.2-0.5l0.3-0.5l0.2-0.6l-0.7-0.4l-0.5-0.2l-0.3-0.3l0.1-0.3l0.4-0.3l1.1,0.2l0.7-0.2l0.4-0.2l0.2-0.9l-0.4-0.5
			l-0.3-0.3l-0.2-0.3l0.4-0.3h0.7l0.4-0.1l0.4-0.3l0.4-0.4l0.3-0.4l0.5-0.4l0.5,0.1l0,0.8l-0.4,1.1l-0.1,0.6l0.3,0.5l0.1,1.1
			l-0.4,0.6l-0.1,0.3l-0.2,0.2l-0.2,0.2l-0.2,0.2l-0.3,0.2l-0.2,0.3l-0.2,0.2l-0.4,0.6l-0.4,0.7l-0.7,1.2l-0.5,1.6l-0.4,1.1
			l-0.4,0.9l-0.4,1l-0.6,1.4L1180.8,402.6z"/>
		<path class="st0" d="M1177.7,392.3l0.4-0.2v1l-0.3,0.6l-0.5,0.1l-0.1-0.5l0-0.3l0.2-0.5L1177.7,392.3z"/>
		<path class="st0" d="M1166.7,399.9l0,0.3l-0.4,0.3l-0.5-0.1l-0.3,0.1l-0.5,0.1l-0.3,0l-0.2,0.4l-0.1,0.5l-0.2,0.2l-0.3,0.1
			l-0.2-0.1l-0.3-0.3l-0.3-0.4l-0.2-0.3l-0.7,0.2h-0.6l-0.2-0.2v-0.8l0.4-0.7l0.3-0.5l0.6-1l0.1-0.1l0.5-0.2l0.5-0.2h0.3l0.3,0.2
			l-0.3,0.5l0.1,0.5l-0.1,0.4l-0.1,0.5l0.6,0.3l0.6-0.3l0.2,0.1l0.7,0.3l0.3,0.1L1166.7,399.9z"/>
		<path class="st0" d="M1177.5,399.8l0.2-0.5l0.5,0.3l0.2,0.7l0.2,0.7l0.1,0.7l-0.2,0.3l-0.4,0.2l-0.5-0.3l-0.1-0.2l-0.2-0.6
			l0.1-0.6l0.2-0.6V399.8z"/>
		<path class="st0" d="M1170,400.6l0.6,0.1l0.4-0.1l0.3,0.3l0.1,0.2v0.3l-0.3,0.5l-0.8,0.1l-0.7-0.3l-0.3,0.3l-0.5,0.5l-0.4-0.1
			l-0.4-0.3l-0.2-0.4l-0.1-0.3l-0.1-0.3l0-0.6v-0.2h0.2l0.5,0.2h0.8L1170,400.6z"/>
		<path class="st0" d="M1169.8,408.5l-0.1,0.6l-0.1,0.6l-0.3,0.5l-0.2,0.4l-0.3,0.4l-0.4,1l-0.1,0.7l-0.1,0.3l0.1,0.2v0.2l-0.4-0.5
			l-0.7-0.2l-0.3-0.4l-0.1-0.3l0.6-0.8l0.7-0.5l0.7-0.4l0.1-0.8l0.1-0.9l-0.1-0.5l-0.2-1.4l0.1-0.5l0.2-0.8l0.1-1l0.2-0.8l0.2-0.3
			l0.3-0.4l0.5-0.1l0.3,0.3v0.8l-0.3,0.4l-0.4,0.8l-0.2,0.7l0.1,1.2l0,1.3V408.5z"/>
		<path class="st0" d="M1155.9,413.6l0.6-0.2l0.6-1l0.3-1.4l0.3-1.7l0.2-0.9l0.1-1l0.6-0.8l0.4-0.8l0.3-0.3l0.3-0.4l0.3-0.5l0.2-0.3
			l0.1-0.1h0.3l0.2,0.6l0.5,1l0.4,1v1.3l-0.5,0.7h-0.6l-0.6,0.1l-0.3,0.2l0.1,0.5l0.2,0.3l0.5,0.1l0.2,0.4l0.1,0.9l0.2,0.6l0.2,0.3
			l0,0.3l0.1,0.3v0.3l0.1,0.3v0.2l-0.4,0.3l-0.5,1l-0.5,1.5l-0.3,1.2l-0.3,0.6l-0.7-0.2l-0.9-0.3l-1.6,0.3l-0.9,0.3l-0.6-0.3
			l-0.2-0.7l0.4-0.6l0.4-0.7l0.3-1l0.1-0.7L1155.9,413.6z"/>
		<path class="st0" d="M1171.5,418l-0.8-0.2l-0.1-0.8l0.3-0.3l0.8-0.3l0.7-0.3l0.3-0.3l0.2-0.7l0.3-0.6l0.3-0.4l0.8-0.5l0.5-0.4
			l0.1-0.9l0.2-0.8l0.3-0.9l0.8-1.1l0.9-0.8l0.7-0.3l0.7-0.3l-0.2-1l-0.4-0.7l-0.1-0.7l0.3-0.3l0.5,0.2l0.3,0.3l0.3,0.1l0.9,0.2h0.4
			l0.2,0.3l-0.5,0.5l-0.6,0.3l-0.1,1.4l-1,1.2l-1.2,0.8l-0.8,0.8l-0.8,1l-0.5,1.1l-0.3,0.7l-0.2,0.5l-0.8,0.4l-0.4,0.3l-0.2,1
			l-0.7,0.8l-0.7,0.3L1171.5,418z"/>
		<path class="st0" d="M1173.3,409.3l0.6-0.2l0.2,0.2l0.3,0.6l0.2,0.6v0.6l-0.6,0.3l-0.4-0.1l-0.2-0.6l-0.2-0.5l0.1-0.6
			L1173.3,409.3z"/>
		<path class="st0" d="M1162.9,410.1l0.2-0.1h0.2l0.2,0.2v0.5l-0.3,0.8l-0.3,0.9l-0.4,0.8l-0.3,0.2l-0.2-0.3l-0.2-0.5l-0.2-0.4
			l0.3-0.4l0.5-0.5l0.2-0.7l0.2-0.2L1162.9,410.1z"/>
		<path class="st0" d="M1170.6,410.7l0.3-0.3l0.3-0.3h0.7l0.1,0.4v0.9l0.1,0.5l-0.2,0.6l-0.5-0.1l-0.2-0.3h-0.4l-0.7,0l-0.1-0.2
			l-0.2-0.4l0.2-0.3L1170.6,410.7z"/>
		<path class="st0" d="M1153.2,415.7l0.1-0.3l0.1-0.5l0.1-0.3l0.2-0.3l0.4,0.1l0.3,0.3l0,0.5l-0.1,1.4l-0.3,1l-0.2,0.4l-0.3,0.6
			l-0.5,0.1l-0.4-0.4l-0.2-0.4l0.4-0.6l0.2-0.4l0.1-0.3l0.2-0.5L1153.2,415.7z"/>
		<path class="st0" d="M1159.1,419.7l0.3-0.3l0.5-0.6l0.2,0.1l0.2,0.4v0.8l-0.3,0.5l-0.1,1l0.6,0.8l0.7,1.8l0.1,0.8l-0.1,0.4
			l-0.7,0.4l-1.2,0.2l-1.1,0.2l-0.6,0.4l-0.3,0.7l-0.2,1.3l-0.2,1.1l-0.4,1.5l-0.2,0.3l-0.2,0.4l-0.1,0.8l0.5,1l0.3,0.5l0.3,0.3
			l0.3-0.2l0.3-0.3l0.1-0.4l0.1-0.4v-0.5l0.3-0.3l0.3-0.1l0.2,0.2l0.3,0.4l-0.1,0.8l-0.3,0.4l-0.6,0.8l-0.3,1l0.2,0.7l0.7,0.5
			l0.2,0.3v0.5l-0.8,0.9l-0.6,1.4l0.1,0.5v0.9l-0.3,0.4l-0.1,0.3l0.6,0.4l0.3,0.4l0.2,0.5l-0.1,0.4l-0.2,0.4l-0.7,0.1l-0.5,0.1h-0.3
			l-0.1-0.3l0.3-0.6l-0.1-0.5l-0.3-0.8l-0.4-0.9l-0.3-0.7l-0.2-0.6l-0.3-1l-0.4-0.3l-0.2,0.3v0.9l0,1.3l-0.3,2l-0.2,0.8l-0.2,0.7
			l-0.5,0.2l-0.1-0.8l0.1-1.3l-0.1-0.9l-0.3-0.7l0.9-2.5l0.1-0.8l0.1-0.7l0-0.5l0.6-1.7l-0.1-0.6l-0.6-1.3l-0.2-0.9l-0.4-0.5
			l-0.6,0.2l-0.7-0.2h-0.4l-0.1-0.4l0.2-0.5l0-0.7l-0.1-0.3l-0.2-0.6V429l0.3-0.8l0.4-0.2l0.7-0.2l1.9-3.7l0.2-0.8l0.3-0.9l0.3-0.8
			l0.3-0.4l0.5-0.6l0.6-0.6l0.7-0.2l0.7-0.1L1159.1,419.7z"/>
		<path class="st0" d="M1169.9,427.5l-0.4,0.2l-0.6-0.1l-0.2-0.4l0.1-0.7l0.1-0.5v-0.5l-0.4-0.2l-0.7-0.2l-0.2-0.3l0.1-0.4l0.5-0.5
			l0.3-1.2l-0.1-0.7l-0.2-0.4l0-0.3h0.6l0.2-0.3l0.2-0.4l0.2-0.6l0.2-0.3l0.1-0.3l0.3-0.1l0.4,0.4l-0.1,0.9l-0.4,1.4l0.4,0.8
			l0.3,1.3l0,0.9l-0.2,0.9L1169.9,427.5z"/>
		<path class="st0" d="M1162.3,419.4l0.6,0.8l0.6,0.4l0.8,0.3l0.3,0.3l-0.3,0.4l0.1,0.7v0.8l-0.3,0.5l-0.6,0.3l-1.7-1.7l0.7-0.7
			l-0.6-0.9l-0.1-0.3l0-0.5L1162.3,419.4z"/>
		<path class="st0" d="M1153,420.7l0.2-0.2l0.5-0.3l0.3-0.2l0.3,0.1l0.1,0.4l-0.2,0.3l0,0.9v0.6l0.1,0.3v0.3l-0.3,0.3l-0.4-0.6
			l-0.2-0.7v-0.7l-0.1-0.3L1153,420.7z"/>
		<path class="st0" d="M1168.9,433.3l-0.6-0.3l-0.8,0.4l-0.2,0.3l-0.7-0.1h-0.7l-0.9,0.6l-0.8,0.5l-0.9-0.1l-0.4-0.9l-0.1-0.3
			l0.2-0.5l0.1-0.6l0.1-0.4l0.3-0.3l0.6-0.3l0.6,0.1l0.3,0.3l0.6-0.2l0.2-0.1l0.7,0.2l0.7,0l0.6-0.2l0.1-0.3v-0.3l0.1-0.5l0.6-0.2
			l0.5,0.1l0.2,0.2l0.4,0.2l0.3-0.1l0.2-0.1l0.2,0.2l0.1,0.3l-0.8,0.4v0.8l0,1.1L1168.9,433.3z"/>
		<path class="st0" d="M1084.5,434.4l-0.2,0.1v1h-0.4l-0.7-0.3l-0.8-0.1l-0.7-0.3l-0.5-0.4l-0.4-0.5l0.2-0.4l0.3-0.3h0.7l0.8,0
			l0.8-0.3l0.6-0.2h0.4l0.3,0.4l-0.1,0.8L1084.5,434.4z"/>
		<path class="st0" d="M1163.1,439l-0.4,0.2l-0.5,0.5l-0.3,1.6l-0.3-0.1l-0.6-0.4h-0.9l-0.5,0.2l0.5-0.8l0.4-0.9l0.3-0.7v-0.9
			l-0.2-0.3l0.1-0.3l0.7-0.3l0.3,0.2l0.2,0.3l0.4,0.4l0.7-0.2l0.3-1l0.1-0.3l0.8-0.2l0.5-0.1l1.3-0.4l-0.2,0.6l-0.3,0.7l-0.3,0.8
			l-0.8,0.2l-0.4,0.7L1163.1,439z"/>
		<path class="st0" d="M1167.1,438.6h-0.3l-0.3-0.2l-0.2-0.4v-0.3l0.3-0.8l0.3-0.6l0.2-0.2l0.4-0.1l0.1,0.4v0.8l-0.3,0.8
			L1167.1,438.6z"/>
		<path class="st0" d="M1165.7,439.9l-0.3,0.9l-0.8,1.4l-0.8,0.9l-0.6,0.7l-0.6,1.1l-0.4,0.6l-0.5,0.5l-0.4,0.1l-0.2-0.1l0.4-1.3
			l0.1-0.9l0-0.9v-0.7l0.4,0.5l0.4,0.4l0.3-0.3l-0.2-0.5l0.8-0.5l0.6-0.7l0.5-0.7l0.2-0.4l0.1-0.5l0.4-0.4l0.3,0.3L1165.7,439.9z"/>
		<path class="st0" d="M1159.9,447.7l-0.8,0.9l-0.6,0.6l-0.6,0.8l-0.4,1l-0.8,0.9l-0.7,0.7l-1.3,0.8l-1.3,0.2l-0.7,0.2h-0.3
			l-0.3-0.2l-0.3-0.2l0.3-0.8l0.8-0.6l0.4-0.3l0.3-1l0.1-0.5l0.2-0.8l0.7-0.3l0.9,0.1l0.8,0.1l0.6-0.4l0.5-0.4l0.5-0.5l0.6-0.8
			l0.2-0.4l0.6-0.3h0.5l0.2,0.4L1159.9,447.7z"/>
		<path class="st0" d="M1147,456.5v0.6l-0.9,0.1l-0.7,0.1l-1-0.4l-0.4-0.2l-0.3-0.2l-0.1-0.3v-0.5l0.8-0.9h0.8l0.4,0.4v0.3l0.6,0.5
			l0.6,0.4L1147,456.5z"/>
		<path class="st0" d="M1149.3,533.1l-0.2,0.2l-0.3-0.1l-0.3-0.3l0.2-0.5V532l0.1-0.3l0.1-0.3l-0.1-0.3v-0.4l0.2-0.3h0.9l0.3,0.2
			l0.5,0.4l0.2-0.1l0.4,0.1l0.2,0.2l0.2,0.3l-0.3,0.4h-0.3l-0.4,0.1h-0.4l-0.5,0.2l-0.1,0.3v0.3L1149.3,533.1z"/>
		<path class="st0" d="M1152.1,533.7l0.4,0.4l0.2,0.5l0.2,0.4l0.2,0.8l0.2,0.5l0.2,0.6l0.1,0.7l0.2,1.1l0.2,0.7l0,0.6l-0.4,0.2
			l-0.4,0.2l-0.5,0.1l-0.4,0.3l0.1,0.4l0.3,0.3l0.4,0.4l0.1,0.6l-0.3,0.4l-0.6-0.3l-0.7-0.3l-0.3-0.2l-0.2-0.3l-0.1-0.1l-0.2-0.8
			l-0.2-0.3l-0.2-0.7l-0.2-0.4l-0.2-0.5l-0.1-0.8l0.1-0.5l0.3-0.1l0.2,0.4l0.2,0.5l0.2,0.4l0.3,0.2l0.3-0.1v-0.4l-0.2-0.5l-0.2-1
			l-0.2-1l0.2-0.4l0.3-0.3l0.3-0.3v-0.6L1152.1,533.7z"/>
		<path class="st0" d="M1148.6,536.1l0.2-0.4l0.6-0.2l0.3-0.1l0.2-0.2l0.3-0.7l-0.2,0.8l-0.3,0.7l0.2,0.3l-0.2,0.3l-0.3,0.2
			l-0.3-0.1l-0.2-0.1L1148.6,536.1z"/>
		<path class="st0" d="M1149.3,554.8l-0.2,0.6l-0.3,0.3l-0.2,0.4l-0.2,0.8l-0.2,0.5l-0.7-0.3l-0.4-0.2l-0.2-0.4l0.3-0.5l-0.3-0.4
			l-0.2-0.9l0.3-0.7h0.6l0.7-0.2l0.3-0.2l0.6-0.5l0.5-0.3l0.5,0.2l0.1,0.6l-0.3,0.3l-0.4,0.3l-0.1,0.3L1149.3,554.8z"/>
		<path class="st0" d="M1149.3,559.1l-0.2-0.5l0.1-0.3l0.2-0.4l0.3-0.2l0.3-0.6l0.4-0.5l0.3-0.3l0.6-0.1l1,0.2l1-0.2l0.7-0.2
			l0.3-0.4l0.3-0.8l0.2-0.4l0.2-0.3h0.6l0.3,0.2l-0.4,1.5l-0.2,0.4l-0.5,1l0.1,0.8l0.3,0.8l-1.9,0.1L1149.3,559.1z"/>
	</g>
</g>
<g>
	<path class="st1" d="M1130,6.9c-0.7,4.1-5,5.7-10.5,6.3C1120.5,9.4,1123.6,7,1130,6.9z"/>
	<path class="st1" d="M1112.9,15.6c-1.1,3.1-4.6,4.4-6.5,6.9c-5.2,0-8.7,1.1-8.9,4.6c-15.6,4.8-26.5,13-39.7,19.6c0-1.2,0-2.3,0-3.5
		c4.2-1.2,5.5-4.6,9.7-5.8c1-1.9-2.6-0.4-1.6-2.3c1.8,0.3,1.2-1.1,2.4-1.2c2.5-0.7,2,0.9,3.2,1.2c0.6-1.7,2.8-2.3,2.4-4.6
		c3.1,2,2.6-0.4,7.3,0c1-1.9-2.6-0.4-1.6-2.3c2.6,0.7,0.6-1.9,3.2-1.2c0.1,0.9-0.4,2.2,0.8,2.3c1.8-0.1,0.3-2.4,0.8-3.5
		c2.1,0.6,3.6,2.2,3.2-1.2C1098.4,23.3,1103.7,18.1,1112.9,15.6z"/>
	<path class="st1" d="M1045.7,47.9c3.5-0.2,5.1,1,4.9,3.5c-1.6,0-3.2,0-4.9,0C1045.7,50.2,1045.7,49.1,1045.7,47.9z"/>
	<path class="st1" d="M1020.5,49.1c4.6,1.8-3,4.2-4.1,5.8c-2.4-0.2-4.2-0.9-4.9-2.3C1016,52.4,1019.2,51.4,1020.5,49.1z"/>
	<path class="st1" d="M1003.5,57.7c1.6,0,3.2,0,4.9,0c0.8,4-5.7,2.9-4.9,6.9c-3.8-0.4-3.6,2-8.1,1.2
		C996.3,61.8,1005.1,63.4,1003.5,57.7z"/>
	<path class="st1" d="M1070.8,63.5c1.1,0,2.2,0,3.2,0c0,0.8,0,1.5,0,2.3C1071.2,66.2,1070.2,65.5,1070.8,63.5z"/>
	<path class="st1" d="M1033.5,66.9c0.8,0,1.6,0,2.4,0c0,0.8,0,1.5,0,2.3C1033.2,69.8,1033.3,68.5,1033.5,66.9z"/>
	<path class="st1" d="M1057.8,71.6c1.7,0.3,5.6-0.9,4.9,1.2C1061,72.4,1057.1,73.6,1057.8,71.6z"/>
	<path class="st1" d="M1045.7,78.5c1.6,0,3.2,0,4.9,0c0.1,1.6-2.7,1.1-1.6,3.5c-3.3-0.8-2.6,1.3-4.9,1.2
		C1043,80.4,1046.7,81.2,1045.7,78.5z"/>
	<path class="st1" d="M1037.5,84.3c1.1,0,2.2,0,3.2,0c0,0.8,0,1.5,0,2.3C1038,87,1036.9,86.2,1037.5,84.3z"/>
	<path class="st1" d="M1030.3,88.9c1.1,0,2.2,0,3.2,0c-0.4,1.3-1.4,2.1-3.2,2.3C1030.3,90.4,1030.3,89.6,1030.3,88.9z"/>
	<path class="st1" d="M856.8,158.1c1.4,0,2.7,0,4.1,0c-0.3,1.5-2.5,1.7-4.1,2.3C856.8,159.6,856.8,158.9,856.8,158.1z"/>
	<path class="st1" d="M828.4,180c1.6,0,3.2,0,4.9,0c-0.6,1.5-1.8,2.6-4.9,2.3C828.4,181.6,828.4,180.8,828.4,180z"/>
	<path class="st1" d="M825.1,183.5c1.1,0,2.2,0,3.2,0c-0.4,1.3-1.4,2.1-3.2,2.3C825.1,185,825.1,184.3,825.1,183.5z"/>
	<path class="st1" d="M808.1,195.6c2.9-0.5,1.1,2.3,1.6,3.5C806.8,199.6,808.6,196.8,808.1,195.6z"/>
	<path class="st2" d="M793.5,210.6c-5.6,3.9-5.4,12-13.8,13.8c1.1,2.7-2.7,1.9-1.6,4.6c15.7-7.3,22.6-20.9,37.3-28.8
		c0-1.2,0-2.3,0-3.5c1.4,0,2.7,0,4.1,0c2.1-3.5,5.3-6.2,10.5-7.5c0-1.2,0-2.3,0-3.5c1.1,0,2.2,0,3.2,0c4.4-7.4,15.2-10.3,18.6-18.5
		c5.8-2.2,12.9-3.5,13.8-9.2c3.6,0.9,2.5-1.7,5.7-1.2c2.9-5.8,12.5-6.9,14.6-13.3c1.8-0.3,1.1,1.1,2.4,1.2c1.8-0.1,0.3-2.4,0.8-3.5
		c5.9,1.1,2.7-4.2,8.1-3.5c2.1-7.6,15.6-7,17-15c5.6-0.2,8.2-2.7,9.7-5.8c6.5,0.6,5.8-3.9,8.9-5.8c3.5,0,7,0,10.5,0
		c2.6-3.2,6.2-5.6,9.7-8.1c1-2.4-1.3-2.5-1.6-4c1.1,0,2.2,0,3.2,0c0.1-1.6-2.7-1.1-1.6-3.5c2.4,0,2.4,1.8,4.1,2.3
		c6.6-0.5,10.2-3.1,10.5-8.1c1.6,0,3.2,0,4.9,0c1.6-3.7,8.1-3.8,8.9-8.1c18.4-5.6,26.4-18.5,46.2-23.1c1.4-0.9,3.1-1.6,2.4-4
		c2.7-0.2,0.9,2.8,4.9,1.7c0.3-3.2,5-3.3,4.1-7.5c5.9-1.1,2.7,4.2,8.1,3.5c-1.8,3.5-4.5,6.4-9.7,7.5c0.3,2.7-1.8,3.8-5.7,3.5
		c-1,1.9,2.6,0.4,1.6,2.3c-6.8,2.5-13.7,4.8-16.2,10.4c-4.8-0.5-4.1,2.8-8.9,2.3c-1,1.9,2.6,0.4,1.6,2.3c-1.6,0-3.2,0-4.9,0
		c1.4,1.3,2.1,3.1,1.6,5.8c-3.3-0.8-2.6,1.3-4.9,1.2c-0.3-1.9-0.1-3.5,1.6-4c-3.9,0-5.8,0.2-13,0.6c-1.1,2.5-4.7,3.2-7.3,4.6
		c-0.3,2.1,1.5,5.7-3.2,4.6c-0.1,1.4,1.8,1.4,2.4,2.3c8.4,0.2,8.1-5.8,16.2-5.8c-2.5,5-11.9,5-13.8,10.4c-2.4,0.6-1.4-1.3-1.6-2.3
		c-2.6-0.7-0.6,1.9-3.2,1.2c0.3,1.5,2.6,1.6,1.6,4c-7.8-0.2-5.2,7.1-13,6.9c-1.8,0.1-0.4,2.4-0.8,3.5c-1.8,0.3-1.1-1.1-2.4-1.2
		c-2.3,0.6-2.1,3.1-4.1,4c0.5,0.6,1.9,0.6,1.6,1.7c2.4-1.6,7.8-1,7.3-4.6c2.8,0.4,3.9-0.3,3.2-2.3c1.4,0,2.7,0,4.1,0
		c9.8-6.5,17.7-14.3,30-19c1.5-1.5,1.3-4.1,5.7-3.5c1.1-0.2,0.7-1.4,0.8-2.3c3.1-0.5,6.9-0.5,6.5-3.5c7.6,0.4,9.6-5.8,15.4-8.1
		c2.3-0.9,7.6-1.2,6.5-4.6c7.2-1,8.5-6.3,16.2-6.9c3.4-2.8,6.4-5.8,12.2-6.9c0-1,0-1.9,0-2.9c10.3-4.1,19.3-9,26.8-15
		c6.6,0.3,8.2-3,10.5-5.8c4.9,0.8,3.2-3.1,8.1-2.3c0,1.2,0,2.3,0,3.5c-8.1,2.9-14.7,6.9-20.3,11.5c-1.9,0-3.8,0-5.7,0
		c-0.6,1.7-2.8,2.3-2.4,4.6c-5.5,0.1-5.8,3.9-8.1,6.3c-5.6-1.5-2.3,3.4-7.3,2.3c0.1,5.8-10.1,4.3-11.3,9.2c-1.8,0.3-1.2-1.1-2.4-1.2
		c-1.8,0.1-0.3,2.4-0.8,3.5c-6.6,3.2-14.3,5.6-17,11.5c-5.9-0.5-6.2,2.9-8.9,4.6c-2.2,0-4.3,0-6.5,0c-1,1.9,2.6,0.4,1.6,2.3
		c-1.4,0-2.7,0-4.1,0c-5.8,6.5-16.4,9.5-21.1,16.7c-8.6,0.8-8.3,7.9-16.2,9.2c-1.1,0.2-0.7,1.4-0.8,2.3c-4.9-0.8-3.2,3.1-8.1,2.3
		c0.7,4.2-6.1,2.9-4.9,7.5c0.8,1,3.7,0.4,4.1,1.7c1.1-2.1,3.8-3.1,5.7-4.6c0.1,3-2.6,2.4,0,4.6c-3.8,2.3-8.6,3.8-9.7,8.1
		c-7.8,1.4-11,6-12.2,12.1c-8.5,4.6-16.7,9.2-21.9,16.2c-1,1.9,2.6,0.4,1.6,2.3c-5-1.3-1.5,3.6-6.5,2.3c0.3,2.5-1.4,3.6-4.9,3.5
		c-2.7,7.5-14.2,8.7-17,16.2c-2.8-0.4-3.9,0.3-3.2,2.3c-3.6-0.9-2.5,1.7-5.7,1.2c0,5.6-8.3,5.2-8.1,11c-1.1,0-2.2,0-3.2,0
		c0.4,4.5-6.9,3.6-6.5,8.1c-1.1,0-2.2,0-3.2,0c-5.3,8-14.8,12.9-20.3,20.8c-1.3,0-2.7,0-4.1,0c0,1.2,0,2.3,0,3.5
		c-1.8,0.3-1.2-1.1-2.4-1.2c-0.5,2.7-4.9,2.7-4.1,6.3c-1.1,0-2.2,0-3.2,0c-0.9,2.8-1.4,5.9-6.5,5.8c0,1.2,0,2.3,0,3.5
		c-4.2-0.1-2.5,4-7.3,3.5c1.1,3.5-4.3,2.3-3.2,5.8c-1.1,0-2.2,0-3.2,0c-0.1,6.1-8.7,6.1-9.7,11.5c-5.3-0.5-5.5,2.6-5.7,5.8
		c-10.8,2.3-9.6,13.1-20.3,15.6c-1.4,4.8-6.7,6.8-8.1,11.5c-1.1,0-2.2,0-3.2,0c-0.7,5.8-5.3,8.9-10.5,11.5c-0.9,2.8-1.4,5.9-6.5,5.8
		c0,7.5-9.6,8.2-9.7,15.6c-1.1,0-2.2,0-3.2,0c0,0.8,0,1.5,0,2.3c-7.3,1.9-6.1,9.9-13.8,11.5c0,1.2,0,2.3,0,3.5
		c-5.3,2.2-5.2,8.2-12.2,9.2c1.1,2.7-2.7,1.9-1.6,4.6c-1.1,0-2.2,0-3.2,0c0,9.8-11.1,11.7-13,20.2c-7.8,3.9-8.2,13-17,16.2
		c0,1.2,0,2.3,0,3.5c-3.2,0.8-4.3,3.1-4.9,5.8c-6.5,0.2-3,7.5-8.9,8.1c-1.5,8.7-9.8,12.6-13,20.2c-4.1,1.5-5.8,4.7-5.7,9.2
		c-3.7,0.7-2.1,4-3.2,5.8c-2.1,3.2-6.6,4.8-8.1,8.1c-0.8,1.8-0.4,4.6-1.6,6.3c-0.2,0.3-2.8,0.5-3.2,1.2c-0.4,0.6,0.5,1.8,0,2.3
		c-0.3,0.3-2.1-0.3-2.4,0c-0.5,0.4,0.3,1.8,0,2.3c-0.8,1.2-6.6,2.9-4.9,6.9c-2.8,0.3-3.7,2-3.2,4.6c-4.5,2.6-5.8,7.4-8.1,11.5
		c-1.1,0-2.2,0-3.2,0c-0.2,1.6,1.1,4.3-2.4,3.5c-2.4,8.1-9.2,13.1-11.3,21.3c-1.1,0-2.2,0-3.2,0c4.1,3.9-4.8,11.8-1.6,15
		c-3,0-2,2.8-5.7,2.3c-0.7,1.4,1.6,5-1.6,4.6c2.1,2.8,0.1,10.7-3.2,13.3c0.7,1.4,2.4,2.1,1.6,4.6c-3.2,0.8-4.3,3.1-4.9,5.8
		c-8.3-0.9-9.4,3.3-11.3,6.9c-5.5-0.4-9.7,2.8-13.8,0c-2.2,1.1-4.9,1.9-6.5,3.5c-7.6-3.5-21.5,3.6-23.5-4.6
		c-9.4-1.2-16-4.3-20.3-9.2c-2.4,0-4.9,0-7.3,0c-0.9-2.8-1.4-5.9-6.5-5.8c-0.9-1.8,1.3-1.4,1.6-2.3c-6.3-5.3-3.4-17.2-11.4-21.3
		c0.3-1.5,2.6-1.6,1.6-4c-0.3-0.8-2-0.5-3.2-0.6c1.3-3-1.6-3.1-2.4-4.6c4.5,0.9,0.9-4,4.1-4c-1.4-2-1.3,1.7-4.1,0.6
		c-1.3-2.1,2.8-0.3,2.4-1.7c-3.2-0.4-2.1-3.9-5.7-4c-0.9-2.3,1.9-7.1-1.6-7.5c4.5-2.7-4.3-8.5,0-11c-8.6-1.3-1.7-13.8-9.7-15.6
		c0.5-9.2-5.6-13.7-4.9-23.1c-0.1-0.7-1.5-0.5-2.4-0.6c0.3-2.9,0.2-5.6-3.2-5.8c-1-8.2,1.3-11.6-4.9-16.2
		c-0.2-13.4-11.3-24.9-9.7-35.8c-1.4-0.5-1.3-2.1-4.1-1.7c0.3-2.9,0.2-5.6-3.2-5.8c0.3-1.5,2.6-1.6,1.6-4c-0.3-0.8-2-0.5-3.2-0.6
		c0.6-7.1-3.6-16.5-1.6-20.8c-1.3-2.1-1.2,1.3-3.2,0.6c1.9-1.3,0.6-5.3-1.6-6.9c1.8-1.7,1.8-2.9,0-4.6c3-2.8-2.5-9.3-1.6-14.4
		c-0.3-0.8-2-0.5-3.2-0.6c2.4-7-1.1-11.8-1.6-19.6c0.1-1.2-2.9-0.3-4.1-0.6c0.3-1.7,3.9-1.1,2.4-4c-8.5-6.6-5.9-21.2-13.8-28.3
		c3-3.4-0.5-10.3-3.2-13.3c3-10.1-8.8-13.6-3.2-21.9c10.1-3.3,16.4,3.4,26.7,3.5c0.2,2.7,2.1,4.3,4.1,5.8c1.4-0.7,0.2-3.3,4.1-2.3
		c0.3,5,4.8,6.9,8.9,9.2c0.4,1.3-1.6,0.8-1.6,1.7c1.4,0.8,1.7,2.2,4.9,1.7c0.5,1.2-1.3,4,1.6,3.5c-3.1,9.9,11.4,16.8,13,27.1
		c3.4-0.7,3.6,0.9,5.7,1.2c-0.1,5.2,4.9,6.9,4.9,12.1c0.3,0.8,2,0.5,3.2,0.6c-1.2,3.2,2.2,3.1,1.6,5.8c1.6,0,3.2,0,4.9,0
		c-1.1,2.7,2.7,1.9,1.6,4.6c8.5,2,10.1,8.9,13.8,14.4c4-0.1,5.1,1.8,8.1,2.3c-0.5,2.5,0,4.3,4.1,3.5c2.7,7.1,9.5,11.3,11.4,19
		c0.3,0.8,2,0.5,3.2,0.6c-1.3,8.7,3.8,12.7,4.9,19.6c0.1,0.7,1.5,0.5,2.4,0.6c1.1,2.7-2.8,8.9,3.2,8.1c-2.5,7-0.9,16.9,4.9,21.3
		c-3.2,2.5,1,5-1.6,6.3c2.8,0.9,0.6,5.3,4.9,5.2c-1.8,1.7-1.6,2.8,1.6,3.5c0,5-0.5,10.4,1.6,13.8c3.5,0.2,5.1-1,4.9-3.5
		c7.9-3.8,9.6-12,17-16.2c1-4.3,2.1-8.5,7.3-9.8c-0.6-2.7,2.8-2.6,1.6-5.8c3.2-0.8,4.3-3.1,4.9-5.8c1.1,0,2.2,0,3.2,0
		c0-1.5,0-3.1,0-4.6c8.7-6.3,14-15.1,20.3-23.1c4.9,0.8,3.2-3.1,8.1-2.3c-0.7-3.8,3.6-4,3.2-7.5c6.2-1.5,6.7-7.2,12.2-9.2
		c0-1.5,0-3.1,0-4.6c3.1-1.7,7.2-2.6,6.5-6.9c3.6,0.9,2.5-1.7,5.7-1.2c2.5-6.7,7.2-11.8,13-16.2c0.6-1.8-2.8-0.7-1.6-2.9
		c5.4-0.4,6.5-3.9,8.1-6.9c5.3-1.4,6.5-5.7,8.9-9.2c2.8,0.4,3.9-0.3,3.2-2.3c10.6-1.1,9.5-10.6,18.6-12.7c0-1.2,0-2.3,0-3.5
		c8.9-7.1,16.6-15.1,26.7-21.3c0-1.2,0-2.3,0-3.5c5.6-1.6,7.6-5.8,10.5-9.2c5,1.3,1.5-3.6,6.5-2.3c1.6-6.9,10.4-8.8,13-15
		c8.5-0.1,6-8,13.8-8.7c1.2-4.7,5.1-7.5,10.5-9.2c-0.2-5.2,10-2.9,8.1-9.2c4.1-0.2,6.3-1.7,6.5-4.6
		C790.9,213.7,789.4,210.2,793.5,210.6z M967.8,98.1c0,1.7,0,3.5,0,5.2c1.4,0,2.7,0,4.1,0c1.3-2.7,3.5-4.9,8.1-5.2
		c-1.1-2.3-4.9-2.7-6.5-4.6C971.7,95.1,972.1,98.2,967.8,98.1z M959.7,107.9c0-0.8,0-1.5,0-2.3c-1.1,0-2.2,0-3.2,0
		C956.8,106.9,957.9,107.7,959.7,107.9z M945.9,116c2.9,0,4.3-1.2,4.1-3.5c-1.4,0-2.7,0-4.1,0C945.9,113.7,945.9,114.8,945.9,116z
		 M951.6,121.8c-1.1,2.3,1.8,1.8,1.6,3.5c1.9-0.4,3.4-1,3.2-2.9c-1.3-0.4-1.2-1.8-3.2-1.7C953.1,121.3,953,122,951.6,121.8z
		 M964.6,128.7c-1.3,3.7-4.5,6-9.7,6.9c-2.2,4.8-10.6,5.1-10.5,11.5c1.4,0,2.7,0,4.1,0c2.1-2.7,3.9-5.7,9.7-5.8
		c-1.1-2.7,2.7-1.9,1.6-4.6c5.7-1.1,6.2-6,12.2-6.9c-0.5-1.3-1.5-2.4-4.1-2.3C968.6,129.3,966,128.5,964.6,128.7z"/>
	<path class="st1" d="M1040.8,38.7c0,0.8,0,1.5,0,2.3c-4.6-0.8-3.2,2.7-7.3,2.3c0-0.8,0-1.5,0-2.3
		C1038.2,41.9,1037.7,39,1040.8,38.7z"/>
	<path class="st1" d="M1022.2,99.3c1,1.9-2.6,0.4-1.6,2.3c-3.7,0.3-6-0.3-6.5-2.3C1018,99.4,1019.1,101.4,1022.2,99.3z"/>
	<path class="st1" d="M998.6,113.7c1.8,0.3,2.9,1,3.2,2.3c-4.6,0.5-5.1,4-11.4,3.5c-1.5,1.5-1.3,4.1-5.7,3.5
		c0.1-2.2,4.3-1.6,3.2-4.6C993.3,118,997.7,117,998.6,113.7z"/>
</g>
</svg>
